<?xml version="1.0" encoding="UTF-8"?>
<svg xmlns="http://www.w3.org/2000/svg" xmlns:xlink="http://www.w3.org/1999/xlink" viewBox="0 0 360 258.1">
  <defs>
    <style>
      .cls-1 {
        stroke: #292929;
        stroke-width: .25px;
      }

      .cls-1, .cls-2 {
        stroke-miterlimit: 10;
      }

      .cls-1, .cls-3 {
        fill: #3d3d3d;
      }

      .cls-4 {
        fill: #0b0c11;
      }

      .cls-4, .cls-5, .cls-6, .cls-7, .cls-8, .cls-9, .cls-10, .cls-3, .cls-11, .cls-12, .cls-13 {
        stroke-width: 0px;
      }

      .cls-14 {
        isolation: isolate;
      }

      .cls-6 {
        fill: #26282a;
      }

      .cls-7 {
        fill: none;
      }

      .cls-8 {
        fill: #777377;
      }

      .cls-2 {
        fill: #141414;
        stroke: #525252;
      }

      .cls-9 {
        fill: #131315;
      }

      .cls-10 {
        fill: #0d111b;
      }

      .cls-15 {
        clip-path: url(#clippath);
      }

      .cls-11 {
        fill: #11151f;
      }

      .cls-12 {
        fill: #191b1f;
      }

      .cls-13 {
        fill: #434144;
      }

      .cls-16 {
        mix-blend-mode: darken;
        opacity: .5;
      }
    </style>
    <clipPath id="clippath">
      <path class="cls-7" d="m162.92,22.58c-.16.01-.32.02-.48.03m0,0c-1.43.08-2.85.21-4.28.23-3.46.06-6.77.82-9.92,2.2-1.52.67-2.74,1.77-3.91,3.16.5.06.78.09,1.05.13.21.07.43.16.65.2,2.13.41,4.28.72,6.38,1.25,1.93.49,3.81,1.22,5.71,1.84l1.64.53c.09.07.18.14.27.22,0,0,.01,0,.01,0,1.14.68,2.27,1.35,3.41,2.03l.08.07c.77.69,1.56,1.35,2.3,2.08.84.82,1.63,1.69,2.44,2.54.63,2.69,1.38,5.36,1.86,8.07.3,1.71.15,3.49.27,5.23.19,2.72.44,5.44.67,8.15.14,1.65.29,3.29.44,4.94.48,1.52.97,3.04,1.45,4.55.06.29.12.58.18.86.02.11.05.22.07.33.73,2.88.69,6.02,2.96,8.38.44.45.59,1.19.84,1.82.18.46.31.95.47,1.42,1.1,3.66,4.31,5.38,7.01,7.56.4.4.81.8,1.21,1.2,1.28,1.33,2.6,2.62,3.83,4,.74.83,1.35,1.73,2.56,1.93,1.69.28,3.1,1.14,4.37,2.25h0c.44.75.82,1.54,1.33,2.24.32.43.79.82,1.27,1.06,1.1.53,2.34.81,3.36,1.45,1.91,1.21,3.7,2.6,5.54,3.91.08.08.17.15.25.23.5.71,1.01,1.41,1.51,2.12-.27.4-.53.8-.8,1.2-.37.31-.73.62-1.1.93-1.61,1.08-3.17,2.27-4.87,3.18-.76.41-1.83.36-2.74.31-1.17-.07-2.33-.36-3.5-.56-1.04-.17-2.07-.38-3.12-.51-1.46-.19-3.01-.9-4.21.67-.13.16-.42.27-.64.28-2.78.1-4.17,2.14-5.66,4.04-.14.18-.18.43-.27.64.09.06.17.13.26.19.28-.28.54-.59.85-.83.48-.38.98-.98,1.51-1.03,1-.09,2.09-.02,3.04.28.86.27,1.07-.04,1.25-.71.19-.7.41-1.39.62-2.1,1.44.32,2.67.58,3.9.87,2.92.67,5.67,2.24,8.87,1.28.89-.26,1.96.1,2.95.17.48.15.95.3,1.43.46.24-.04.48-.08.72-.12.32-.28.64-.55.96-.83.65-.75,1.29-1.5,1.94-2.25.08-.09.16-.18.24-.28.09-.07.2-.13.27-.22,1.9-2.15,2.61-2.15,4.75-.15,1.63,1.52,3.32,2.98,4.99,4.46,1.18.97,2.35,1.96,3.55,2.91.63.5,1.32.94,1.98,1.41,1.12,1.21,1.79,2.89,3.59,3.38.73.54,1.47,1.07,2.2,1.61,1.44.92,2.88,1.84,4.37,2.8.12-.52.18-.81.28-1.24.62.33,1.13.61,1.71.92.61-.7,1.3-.67,2.03-.1.18.14.43.24.65.25,1.63.02,3.27.01,4.51.01.75-.78,1.19-1.43,1.79-1.78.44-.26,1.94-1.44,1.92-2.01-.04-1.7-.11-3.4-.16-5.1-.19-.96-.43-1.91-.55-2.88-.4-3.16-1.56-6.01-3.34-8.63h0c-.26-.71-.52-1.42-.77-2.13,0-.4.02-.8.03-1.2.08-.04.16-.08.23-.12.73.19.85-.33.96-.84,2.47.39,4.93.78,7.43,1.18-.31-.56-.77-1.14-.95-1.8-.12-.47.14-1.04.23-1.56.38-.04.76-.07,1.14-.11,0,0,.08-.02.08-.02.57.27,1.14.53,1.71.8h0c.34.13.67.26,1.01.39.56.39,1.12.78,1.67,1.17.09-.11.18-.23.28-.34-1.29-2.69-2.84-5.23-4.85-7.46-.55-1.02-1.1-2.04-1.65-3.06-.51-.79-1.02-1.58-1.53-2.38-.54-1.05-.97-2.17-1.63-3.13-2.22-3.22-4.5-6.41-6.8-9.58-1.22-1.68-2.55-3.28-3.83-4.91-1.23-1.06-2.45-2.13-3.69-3.17-1.87-1.58-3.75-3.14-5.63-4.7-.89-.73-1.78-1.45-2.67-2.18-.94-.78-1.89-1.55-2.81-2.36-2.44-2.16-4.88-4.34-7.31-6.52-.93-.84-2-1.59-2.73-2.58-2.52-3.38-5.54-6.25-8.84-8.83-2.41-1.89-4.89-3.68-7.34-5.51-.37-.5-.74-1-1.12-1.5h0s0,0,0,0c0,0,0,0,0,0-.99-1.8-1.87-3.68-3-5.39-1.02-1.55-2.23-2.99-3.5-4.34-1.54-1.64-3.13-3.26-4.88-4.67-1.25-1.01-2.86-1.56-4.18-2.5-5.17-3.66-10.58-2.96-16.07-.99-.72.26-1.34.79-2.01,1.19m33.63,16.7s-.05-.02-.08-.03c.03,0,.05.02.08.03h0Z"/>
    </clipPath>
  </defs>
  <g class="cls-14">
    <g id="Birds">
      <g id="Bird_2_-_Medium" data-name="Bird 2 - Medium">
        <g>
          <path class="cls-2" d="m162.92,22.58c-.16.01-.32.02-.48.03m0,0c-1.43.08-2.85.21-4.28.23-3.46.06-6.77.82-9.92,2.2-1.52.67-2.74,1.77-3.91,3.16.5.06.78.09,1.05.13.21.07.43.16.65.2,2.13.41,4.28.72,6.38,1.25,1.93.49,3.81,1.22,5.71,1.84l1.64.53c.09.07.18.14.27.22,0,0,.01,0,.01,0,1.14.68,2.27,1.35,3.41,2.03l.08.07c.77.69,1.56,1.35,2.3,2.08.84.82,1.63,1.69,2.44,2.54.63,2.69,1.38,5.36,1.86,8.07.3,1.71.15,3.49.27,5.23.19,2.72.44,5.44.67,8.15.14,1.65.29,3.29.44,4.94.48,1.52.97,3.04,1.45,4.55.06.29.12.58.18.86.02.11.05.22.07.33.73,2.88.69,6.02,2.96,8.38.44.45.59,1.19.84,1.82.18.46.31.95.47,1.42,1.1,3.66,4.31,5.38,7.01,7.56.4.4.81.8,1.21,1.2,1.28,1.33,2.6,2.62,3.83,4,.74.83,1.35,1.73,2.56,1.93,1.69.28,3.1,1.14,4.37,2.25h0c.44.75.82,1.54,1.33,2.24.32.43.79.82,1.27,1.06,1.1.53,2.34.81,3.36,1.45,1.91,1.21,3.7,2.6,5.54,3.91.08.08.17.15.25.23.5.71,1.01,1.41,1.51,2.12-.27.4-.53.8-.8,1.2-.37.31-.73.62-1.1.93-1.61,1.08-3.17,2.27-4.87,3.18-.76.41-1.83.36-2.74.31-1.17-.07-2.33-.36-3.5-.56-1.04-.17-2.07-.38-3.12-.51-1.46-.19-3.01-.9-4.21.67-.13.16-.42.27-.64.28-2.78.1-4.17,2.14-5.66,4.04-.14.18-.18.43-.27.64.09.06.17.13.26.19.28-.28.54-.59.85-.83.48-.38.98-.98,1.51-1.03,1-.09,2.09-.02,3.04.28.86.27,1.07-.04,1.25-.71.19-.7.41-1.39.62-2.1,1.44.32,2.67.58,3.9.87,2.92.67,5.67,2.24,8.87,1.28.89-.26,1.96.1,2.95.17.48.15.95.3,1.43.46.24-.04.48-.08.72-.12.32-.28.64-.55.96-.83.65-.75,1.29-1.5,1.94-2.25.08-.09.16-.18.24-.28.09-.07.2-.13.27-.22,1.9-2.15,2.61-2.15,4.75-.15,1.63,1.52,3.32,2.98,4.99,4.46,1.18.97,2.35,1.96,3.55,2.91.63.5,1.32.94,1.98,1.41,1.12,1.21,1.79,2.89,3.59,3.38.73.54,1.47,1.07,2.2,1.61,1.44.92,2.88,1.84,4.37,2.8.12-.52.18-.81.28-1.24.62.33,1.13.61,1.71.92.61-.7,1.3-.67,2.03-.1.18.14.43.24.65.25,1.63.02,3.27.01,4.51.01.75-.78,1.19-1.43,1.79-1.78.44-.26,1.94-1.44,1.92-2.01-.04-1.7-.11-3.4-.16-5.1-.19-.96-.43-1.91-.55-2.88-.4-3.16-1.56-6.01-3.34-8.63h0c-.26-.71-.52-1.42-.77-2.13,0-.4.02-.8.03-1.2.08-.04.16-.08.23-.12.73.19.85-.33.96-.84,2.47.39,4.93.78,7.43,1.18-.31-.56-.77-1.14-.95-1.8-.12-.47.14-1.04.23-1.56.38-.04.76-.07,1.14-.11,0,0,.08-.02.08-.02.57.27,1.14.53,1.71.8h0c.34.13.67.26,1.01.39.56.39,1.12.78,1.67,1.17.09-.11.18-.23.28-.34-1.29-2.69-2.84-5.23-4.85-7.46-.55-1.02-1.1-2.04-1.65-3.06-.51-.79-1.02-1.58-1.53-2.38-.54-1.05-.97-2.17-1.63-3.13-2.22-3.22-4.5-6.41-6.8-9.58-1.22-1.68-2.55-3.28-3.83-4.91-1.23-1.06-2.45-2.13-3.69-3.17-1.87-1.58-3.75-3.14-5.63-4.7-.89-.73-1.78-1.45-2.67-2.18-.94-.78-1.89-1.55-2.81-2.36-2.44-2.16-4.88-4.34-7.31-6.52-.93-.84-2-1.59-2.73-2.58-2.52-3.38-5.54-6.25-8.84-8.83-2.41-1.89-4.89-3.68-7.34-5.51-.37-.5-.74-1-1.12-1.5h0s0,0,0,0c0,0,0,0,0,0-.99-1.8-1.87-3.68-3-5.39-1.02-1.55-2.23-2.99-3.5-4.34-1.54-1.64-3.13-3.26-4.88-4.67-1.25-1.01-2.86-1.56-4.18-2.5-5.17-3.66-10.58-2.96-16.07-.99-.72.26-1.34.79-2.01,1.19m33.63,16.7s-.05-.02-.08-.03c.03,0,.05.02.08.03h0Z"/>
          <g class="cls-15">
            <g>
              <path class="cls-3" d="m165.17,28.7c-.84-1.02-1.05-3.12-1.15-4.69-.13-2.09-.59-2.96-2.51-3.5-1.38-.39-2.83-.68-4.26-.94-2.12-.39-4.22-.36-6.37-.68-2.82-.42-8.29-1.03-10.42,1.43-1.01,1.16-1.16,6.38-.51,7.85,1,2.28,3.26,3.57,5.65,4.71,1.89.9,4.75.95,6.85,1.25.74.11,1.53-.03,2.29.02.62.04,1.38.49,1.98.37,1.45-.29,3.29-2.55,4.48-3.48,1.27-.99,2.17-1.63,3.78-2.07.12.02.18-.08.18-.29Z"/>
              <path class="cls-5" d="m164.98,29c-6.72-1.93-13.8-2.2-20.65-.79,6.61-2.45,14.24-2.14,20.65.79h0Z"/>
            </g>
            <path class="cls-1" d="m207.67,110.22c.23.14,1.26.85,2.07.49.44-.2.46-.56.89-.98.73-.74,1.77-.78,2.9-.84,1.88-.09,3.03.55,3.35.74.73.43.82.74.84.89.07.46-.33.84-.98,1.48-.45.43-.93.9-1.72,1.23-.84.35-1.16.17-1.43.44-.7.72.48,2.94.79,3.54,1.74,3.46,2.05,8.96.39,11.42-1.38,2.05-3.55,1.13-14.67,2.41-6.22.72-7.58,1.24-11.07.84-3.56-.41-6.92-.8-9.45-3.54-2.47-2.68-3.43-6.81-2.36-10.29,1.63-5.31,7.41-7.29,10.29-8.27,7.98-2.73,18.1-.87,20.18.44Z"/>
            <path class="cls-5" d="m188.32,74.13c-1.45-2.21-.83-1.6-4.88-8.47-.53-.9-1.17-1.98-1.68-3.58-.47-1.47-1.32-4.17-.2-6.59.63-1.36,1.71-2.27,3.06-3.06,5.35-3.15,12.32-3.03,16.6-2.68,1.99.16,6.84.66,13.66,2.68,8.41,2.49,14.43,5.71,16.34,6.77,10.78,5.95,17.19,12.94,24.51,21.06,10.79,11.97,13.91,19.32,15.45,24.64,2.42,8.39.63,10.82-.13,11.62-2.79,2.93-9.48,2.45-13.53-.13-.91-.58-5.98-3.81-8.3-6.64-.27-.33-1.15-1.45-2.43-1.53-.88-.06-1.61.39-1.79.51-1.02.65-1.01,1.46-1.66,2.04-1,.9-2.43.23-4.34.13-2.53-.14-3.65.78-5.74,1.28-3.49.82-6.55-.28-9.7-1.4-4.74-1.7-8.64-5.18-19.91-17.74-4.94-5.51-11.32-12.77-15.32-18.89Z"/>
            <ellipse class="cls-5" cx="166.85" cy="25.28" rx="1.66" ry="2.4" transform="translate(122.6 188.13) rotate(-83.41)"/>
          </g>
        </g>
        <g class="cls-16">
          <path class="cls-4" d="m245.41,108.29c-.08.04-.16.08-.23.12-1.4.23-1.53,1.66-2.33,2.46-.05.05.02.34.11.42.94.85.68,1.78.42,2.84-.13.57-.16,1.46.81,1.85.86.35,1.33,1.77.98,2.46-.8,0-1.59.02-2.39.02-.47.04-.95.03-1.4.15-.46.12-.88.36-1.36.55-.11-.56-.17-.93-.24-1.3-.12-.03-.24-.06-.35-.09-.16.45-.32.91-.48,1.36-.26.09-.52.18-.78.28-.23.23-.46.47-.69.7-.23.17-.46.34-.69.51-.39.03-.78.05-1.17.08-.1-.01-.19-.03-.29-.04-.15,0-.31-.02-.46-.03h-.48c-.16,0-.31,0-.47.01-.25.05-.69.05-.73.17-.29.9-1.03.77-1.7.82-.54-.04-1.09-.08-1.63-.12-.1,0-.2-.02-.31-.03-.39-.05-.77-.11-1.16-.16-.33-.02-.66-.03-.99-.05-.23,0-.47,0-.7,0-.24-.21-.48-.42-.72-.62-.6-2.26-1.46-4.29-3.21-6.04-1.03-1.03-2.21-1.61-3.35-2.34-.17-.11-.47-.02-.71-.02.04.24,0,.55.14.7.49.54,1.04,1.02,1.57,1.53-.09.05-.17.1-.26.15.27.53.42,1.18.83,1.57,1.29,1.24,2.78,2.29,3.56,3.98-.72-.03-1.43-.06-2.15-.1-.44-.38-1.05-.67-1.28-1.15-.41-.86-1.48-.9-1.88-1.95-.33-.84-1.69-1.28-2.59-1.9-1.29-.9-1.24-2.07.03-2.93.4-.28.69-.85.81-1.34.04-.18-.58-.52-.91-.77-.19-.14-.4-.24-.63-.38-.9,1.03-1.62.26-2.41-.2-.56-.33-1.24-.86-1.76-.75-1.19.24-2.31.65-3.41-.19,0,0-.1.11-.15.16-.08-.08-.17-.15-.25-.23-.39-.5-.7-1.11-1.2-1.48-.76-.56-1.33-1.08-1.5-2.12-.1-.61-.91-1.63-1.29-1.58-1.41.17-2.49-.55-3.6-1.05-1.39-.63-2.63-1.6-3.93-2.43,0,0,0,0,0,0-.18-.32-.29-.73-.56-.93-.75-.56-1.64-.95-2.35-1.55-1.28-1.08-2.81-1.87-3.71-3.41-.44-.75-1.23-1.31-1.89-1.92-.54-.5-1.13-.95-1.75-1.46-.25.54-.37.81-.5,1.09-.4-.4-.81-.8-1.21-1.2.13-.37.26-.74.4-1.15h1.03c-.16-.21-.25-.39-.29-.38-1.86.44-1.85-.89-2.01-2.09-.03-.22-.16-.42-.28-.71-.34.23-.58.48-.87.55-.39.1-1.04.23-1.18.05-.83-1.12-1.74-2.24-2.24-3.51-.53-1.33-.72-2.83-.09-4.26.09-.4,1.02-.8,0-1.2.21-.4.42-.8.63-1.19.49.33.77.52,1.05.71.65.45,1.32.88,1.94,1.36.19.15.41.58.34.66-.64.79.15,1.15.49,1.56.21.25.81.45,1.04.32.33-.18.75-.81.65-1.02-.36-.78.84-2.05-.81-2.31.28-.31.48-.54.67-.76-.8-.3-1.46-.56-2.13-.81.04-.13.08-.25.12-.38.18.02.36.03.54.04,1.12.06,1.76-.53,2.02-1.6.07-.3.66-.57,1.06-.66.3-.07.68.14,1.02.23,0,0,0,0,0,0-.09,1.96.57,3.47,2.21,4.73.98.75,1.56,2.05,2.31,3.1-.1.08-.2.16-.3.24.3.06.61.11.81.15.13.43.23.76.33,1.09.33-.23.69-.43.97-.72.14-.14.1-.45.15-.68h.72c.24.39.44.81.73,1.16.26.31.76.49.9.83.51,1.28,1.81,1.45,2.77,2.06.5.31,1.2.3,2.03.48.55-.79,1.24-.42,1.92.4.09.11.34.08.52.11.08.08.16.16.24.24,1.03,1.44.01,2.72-.38,3.74,1.6,1.22,3.02,2.3,4.44,3.39-.06.09-.11.18-.17.27.26-.11.52-.22.67-.28.26.64.49,1.2.72,1.76.08-.04.16-.09.24-.13.03-.33.07-.65.1-.98.31.11.74.14.91.36,1.03,1.29,3.12,1.51,3.53,3.44.02.08.21.12.29.2.65.69,1.49,1.29,1.89,2.1.89,1.82,2.47,2.79,4.08,3.77.21.13.53.06.8.08-.12-.26-.19-.72-.35-.75-1.93-.44-2.28-2.41-3.4-3.6-.53-.56-.78-.95-1.73-.38.27-.82-.26-1.93,1.05-1.53.64.19,1.11.93,1.65,1.43.27.25.45.61.75.81.91.6,1.46,1.9,2.89,1.57.07-.02.17.19.27.21.26.06.53.07.8.09-.08-.26-.08-.62-.26-.76-.83-.66-1.72-1.26-2.58-1.88-.59-.43-1.26-.79-1.76-1.3-.49-.5-.8-1.16-1.29-1.9.06-.06.27-.3.49-.53.37.33.67.59,1.05.93.26-2.44-2.1-2.85-2.98-4.35-.6-1.03-1.98-1.54-2.18-2.98-.05-.39-.56-.96-.91-1-1.05-.12-1.2-.88-1.44-1.62-.18-.53-.36-1.06-.44-1.61-.04-.28.12-.6.19-.89.31.11.72.12.92.33.99,1.09,1.86,2.29,2.89,3.35,1.18,1.23,2.5,2.32,3.72,3.51,2.21,2.15,4.38,4.34,6.58,6.49.2.19.57.39.79.33.94-.27,1.78-.34,2.46.56.51.67,1.5,1.33,1.48,1.98-.03,1.58.56,1.12,1.36.7.15-.08.4.06.34.05v2.47c1.07-1.06,2.21-1.18,2.42-.44.32,1.13.98.68,1.47.65-.33-.71-.64-1.38-.85-1.84.81-.39,1.45-.7,2.19-1.06-.47-.42-.77-.68-1.07-.95.06-.14.12-.28.18-.42.47.18.93.37,1.4.55.45.17.9.33,1.34.49.03-.11.06-.22.1-.34-.29-.25-.57-.49-.88-.76.15-.24.24-.41.35-.57.53-.78.61-1.35-.38-1.94-.74-.45-1.3-1.22-1.88-1.91-.26-.31-.28-.87-.57-1.12-1.1-.93-1.12-1.04.02-1.77-.32-.53-.51-1.27-.98-1.54-.71-.4-1.61-.46-2.52-.69.43-.52.7-.86.92-1.13-.84-.88-1.77-1.53-2.22-2.43-.33-.65-1.29-1.46-.37-2.39.16.08.32.16.48.24.41.39.86.75,1.24,1.17,1.59,1.76,3.2,3.51,4.73,5.33.89,1.06,1.64,2.24,2.45,3.36.63.88,2.06,1.38,3.05,1.01.17.37.34.73.52,1.1.12.01.25.03.37.04.05-.38.23-.81.12-1.14-.22-.72-.57-1.43-1.56-1.14-.02-.32-.03-.57-.06-.91-.46.15-.8.27-1.38.46.64-1.79-.22-2.85-1.41-3.8-.23-.18-.32-.54-.46-.83-.53-1.09-.98-2.23-1.6-3.26-.39-.65-1.03-1.16-1.79-1.97q.01-1.16-1.35-2.07c-.16-.4-.32-.8-.48-1.2-.24-.32-.48-.64-.72-.96-.08,0-.16,0-.24,0-.32-.4-.64-.8-.96-1.2-.16-.64-.32-1.28-.48-1.92.16-.64.32-1.28.48-1.92.31.18.62.37.93.55.65.38,1.3.75,1.95,1.13.08,0,.16,0,.24,0,.33.61.61,1.26,1.01,1.82.64.88,1.35,1.7,2.05,2.53,1.44,1.73,2.86,3.49,4.54,5,.35.31.69.64,1.04.96.16.16.32.32.48.47.16.32.32.64.48.96,0,.08,0,.15,0,.23.13.26-.36.94.49.7.33.54.7,1.06.96,1.63.36.8.64,1.65.95,2.47.23.02.45.04.68.05.01.3.02.61.03.91h0c-.22.11-.45.22-.67.33.23.2.47.4.7.6.07.01.14.02.21.04-.3,1.16.53,1.84,1.2,2.46.72.68,1.65,1.14,2.52,1.73-.78.18-1.84,1.46-1.74,2.13.04.23.47.62.57.58,1.39-.6,2.6-.11,3.8.52.03.02.08,0,.12,0-.08.64-.16,1.28-.24,1.93-.08.07-.16.14-.24.21-.09.52-.36,1.1-.23,1.56.18.66.64,1.24.95,1.8-2.5-.4-4.97-.79-7.43-1.18-.32.28-.64.56-.96.84Zm-41.91-13.03c-1.62-2-2.75-2.42-3.59-1.39.94.98,1.86,1.99,3.59,1.39Zm18.57,10.28c-.03.13-.05.27-.08.4.64.57,1.28,1.14,1.92,1.71.09-.04.18-.09.27-.13-.12-.4-.12-.96-.39-1.17-.49-.38-1.14-.55-1.72-.8Zm14.23-.46c-.07.08-.15.15-.22.23.16.13.32.26.48.39l.15-.16-.41-.45Z"/>
          <path class="cls-9" d="m159.76,32.15c-.55-.18-1.09-.35-1.64-.53.23-.19.43-.47.7-.57.77-.28,1.76-.29,2.3-.79.53-.49.91-.77,1.59-.58.31,0,.61.02.92.03.13.08.32.25.37.22.29-.2.55-.45.82-.68-.4-.39-.81-.78-1.21-1.17-.15,0-.31,0-.46,0-.17-.08-.34-.15-.51-.23-.15,0-.31-.01-.46-.02-.08-.16-.16-.33-.23-.49l.31-1.81c-.32-.47-.68-1.29-.47-1.47.62-.55,1.46-.64,2.08-.25.11.71.19,1.25.24,1.61.88.05,1.55-.05,2.11.15,1.47.51,1.85.44,2.82-.92.56.33,1.12.67,1.61.96v1.14c.51-.33,1.03-.66,1.6-1.03.46.25,1.01.54,1.55.83-.45.99-.88,1.95-1.26,2.77-.58-.31-.92-.5-1.27-.69.03.47-.07,1.02.13,1.4.24.43.75.72,1,.94.25-.5.4-1.26.71-1.33.75-.17,1.7-.27,2.34.05.85.42,1.21-.19,1.45-.53.5-.71,1.46-1.25,1.14-2.39-.1-.36.03-.78.05-1.18.4.06.81.07,1.2.18.91.25,1.8.54,2.7.81.03-.09.07-.17.1-.26.16.33.31.65.52,1.07.3-.42.52-.71.8-1.1.92.6,1.77,1.16,2.63,1.72-.08.06-.16.12-.24.18.25.42.49.84.77,1.25.22.33.48.64.72.95.31.39.62.78.92,1.18q.19,1.44,1.77,1.53c-.06.42-.12.84-.19,1.31,1.47-.17,1.87.84,2.17,1.57-.44.49-.74.83-1.09,1.23,2.94,1.24,4.54,2.78,4.47,4.22-1.67-.66-1.72.6-1.9,1.77-1.1-.18-2.23-.4-2.42,1.2-.46-.27-.78-.45-1.32-.77-.48.84-.94,1.63-1.39,2.42-.5.01-.93,0-.86.77.03.31-.37.66-.66,1.13-1.08-2.14-4.06-2.77-5.18-1.56.25.31.48.58.71.85-.64.47-1.28.94-1.92,1.4-.93.67-1.81,1.48-2.83,1.95-.75.34-1.7.24-2.8.36-.14-.72-.28-1.47-.42-2.22l-.34-.32-.17,1.11c-.15-.06-.31-.13-.46-.19.25-1.06.25-2.04-.6-2.76-.01-.01.01-.08.02-.11.13-.7.35-1.4.35-2.1,0-.81.61-1.93-.85-2.21-.11-.02-.24-.22-.25-.35-.1-.86-.18-1.73-.24-2.6-.03-.51,0-1.03,0-1.68.12-.09.4-.31.72-.55-1.67-1.12-1.68-1.19-.75-2.79-.31-.4-.64-.81-.99-1.26-.16.39-.28.7-.42,1.03-.96-.8-1.2-.8-1.87,0,.62.25,1.22.48,1.82.73-.04.51-.09,1.08-.14,1.65-.44-.02-.89-.05-1.42-.08.02.42.04.72.06,1.08-.36.12-.73.24-.89.29-1.02-.87-1.86-1.66-2.78-2.35-.46-.35-1.05-.52-1.59-.77,0,0-.08-.07-.08-.07.03-.11.1-.31.08-.32-1.16-.58-2.33-1.14-3.5-1.71,0,0-.01,0-.01,0-.09-.07-.18-.14-.27-.22Z"/>
          <path class="cls-12" d="m163.54,34.47c.53.25,1.13.43,1.59.77.92.69,1.77,1.48,2.78,2.35.16-.05.53-.17.89-.29-.02-.36-.03-.66-.06-1.08.53.03.99.06,1.42.08.05-.57.1-1.14.14-1.65-.61-.24-1.2-.48-1.82-.73.67-.8.91-.8,1.87,0,.14-.33.26-.64.42-1.03.36.45.68.86.99,1.26-.93,1.6-.91,1.67.75,2.79-.32.25-.6.47-.72.55,0,.65-.03,1.17,0,1.68.06.87.14,1.74.24,2.6.01.13.15.33.25.35,1.46.28.85,1.41.85,2.21,0,.7-.23,1.4-.35,2.1,0,.04-.03.1-.02.11.85.73.85,1.71.6,2.76.15.06.31.13.46.19l.17-1.11.34.32c.14.75.28,1.5.42,2.22,1.1-.12,2.05-.01,2.8-.36,1.03-.47,1.9-1.28,2.83-1.95.64-.46,1.28-.93,1.92-1.4,1.4.05,1.54.38.79,2.27.57.05,1.09.09,1.61.13.16,0,.32,0,.48,0,.33-.05.71-.02.99-.17.71-.39,1.38-.86,2.21-1.38.06.43.23.8.12.91-.53.56-1.06,1.18-1.71,1.55-1.03.58-2.2.9-3.22,1.5-.55.32-.91.98-1.4,1.55.94.67,1.94,1.37,2.94,2.08-.07.08-.13.16-.2.25.58-.19,1.17-.37,1.55-.49,1.12,1.24,2.1,2.32,3.13,3.46.14-.23.28-.51.48-.74.48-.59,1.71-.51,1.76.13.08,1.02.56,1.49,1.49,1.72.2.05.33.39.54.67-.25.14-.45.19-.57.32-1.32,1.36-2.29,1.25-3.17-.38-.11-.21-.12-.51-.28-.64-.25-.2-.6-.42-.89-.4-.18.02-.33.46-.47.73-.25.48-.38,1.06-.74,1.43-.78.81-.7,1.32.26,1.85.67.37,1.63.75.86,1.87-.09.13-.08.46.02.56.67.71,1.34,1.43,2.09,2.05.39.33.95.46,1.56.74-.31.41-.59.66-.7.97-.13.37-.16.79-.14,1.19.02.48.13.95.2,1.42-.44-.06-.88-.11-1.58-.2-1.33,1.17.37,2.26.49,3.44-.35.44-.7.89-1.06,1.34-.24-.29-.51-.56-.72-.87-.5-.74-.96-1.5-1.44-2.25,0,0,0,0,0,0-.31-.77-.6-1.54-.92-2.29-.34-.82-.65-1.67-1.08-2.44-.95-1.7-2.64-2.93-3.16-4.95-.09-.36-.76-.61-1.2-.82-.09-.04-.56.39-.53.48.15.41.42.78.64,1.17.04.07.08.13,0,0-.03.55-.02.92-.08,1.27-.16,1,.53,2.36-1.26,2.68-.62.11-.7.73-.07,1.15.25.17.56.27.79.38-.11,1.09-.22,2.11-.33,3.12h0c-2.16,0-2.89-.72-3.19-2.83-.09-.63-.62-1.19-.95-1.78-.15,0-.3,0-.45,0-.41.76-.81,1.53-1.3,2.44-.33-.06-.82-.15-1.32-.24-.02-.11-.05-.22-.07-.33-.06-.29-.12-.58-.18-.86-.48-1.52-.97-3.04-1.45-4.55.25-.35.7-.7.71-1.06.03-1.09,1.06-1.5,1.54-1.43,1.11.15,1.42-.56,1.85-1.17.35-.48.53-1.07.79-1.61-.06-.25.13-.88.75-1.5.26-.26.58-.66.57-.98-.03-1.96,1.01-3.17,2.23-3.85.51-1,.94-1.66,1.19-2.39.1-.29-.17-1.03-.29-1.03-.6-.01-1.37-.05-1.76.28-.72.62-1.25,1.49-1.82,2.28-.61.86-1.18,1.74-1.76,2.62-.27.42-.51.86-.77,1.3.62,1.49-.32,2.49-1.29,3.38-.35.32-1,.32-1.48.46-.15-.69-.26-1.04-.29-1.41-.06-.77-.37-1.73-.04-2.28.51-.84.55-1.31.24-2.31-.6-1.96-1.03-4.05-.84-6.16.05-.58.2-1.17.12-1.73-.22-1.45-.55-2.89-.85-4.33-.04-.21-.22-.38-.31-.58-.13-.29-.4-.63-.34-.89.27-1.22-.39-1.72-1.4-2-.81-.85-1.6-1.72-2.44-2.54-.74-.72-1.53-1.39-2.3-2.08Zm20.54,25.49q2.22.75,3.55-1.17c-.46-.45-.95-.93-1.43-1.41-.06.06-.12.12-.19.19-.07-.28-.14-.56-.18-.72-.72.7-1.43,1.38-2.14,2.05-.15-.17-.3-.34-.44-.51.38-.29.77-.58,1.17-.89-.03-.87-.32-1.44-1.34-1.84-1.33-.53-2.05-.48-2.67.9-.27.59-.96,1.1-.31,1.9.35.44.69,1,.74,1.54.15,1.84,1.54,2.86,2.52,4.43.21-.54.28-.85.43-1.11.16-.28.38-.53.58-.79-.1,0-.19,0-.29,0v-2.57Z"/>
          <path class="cls-8" d="m235.62,120.71c.39-.03.78-.05,1.17-.08.15-.02.3-.03.46-.05.23-.15.47-.3.7-.45.08-.01.16-.03.24-.04.7.19.74-.29.77-.77.57.12,1.13.23,1.7.35-.08.17-.16.34-.24.52,0,0-.01.01-.01.01-1.26.2-1.92,1.54-1.38,2.89.56-1.04,1.45-1.23,2.54-1.29,1.33-.07,1.67.96,2.37,1.89.56-.62.98-1.28,1.57-1.66.46-.29,1.13-.24,1.71-.34.01.37,0,.73.04,1.1.05.52.03,1.09.25,1.54.07.14.78,0,1.2-.04.19-.02.39-.07.67-.13-.57-.68-.29-.92.43-.91.06,1.7.12,3.4.16,5.1.01.57-1.48,1.75-1.92,2.01-.61.35-1.04,1.01-1.79,1.78-1.24,0-2.87,0-4.51-.01-.22,0-.47-.11-.65-.25-.73-.57-1.42-.6-2.03.1-.57-.31-1.08-.58-1.71-.92-.1.43-.16.72-.28,1.24-1.49-.96-2.93-1.88-4.37-2.8.15-1.09.27-2.19.45-3.27.11-.66.22-1.34.49-1.94.45-1,1.37-1.91.26-3.05-.09-.1,0-.38.01-.58.16,0,.31-.01.47-.02.16,0,.32,0,.48,0,.15,0,.31.02.46.02.1.01.19.03.29.04Z"/>
          <path class="cls-6" d="m197.67,40.77c2.45,1.83,4.93,3.63,7.34,5.51,3.3,2.58,6.32,5.45,8.84,8.83.74.99,1.8,1.74,2.73,2.58,2.43,2.18,4.86,4.36,7.31,6.52.92.81,1.87,1.58,2.81,2.36.88.73,1.78,1.45,2.67,2.18,0,.34-.02.68-.03,1.03.17.41.34.82.5,1.2-1.35.21-.55,1.15-.37,1.74.28.96.07,1.45-.89,1.47-.76.01-.8.39-.48.91.57.95,1.15,1.88,1.77,2.8.35.52.76.98,1.15,1.47.16.32.32.63.48.95-.31.16-.63.32-.94.47-.4-.48-.8-.96-1.2-1.44-.34-.79-.46-1.91-1.05-2.29-1.29-.82-1.45-1.97-1.59-3.23-.17-1.34.84-3.02-1.13-3.84-.18-.08-.26-.38-.4-.57-1.02-1.37-2.18-2.66-2.55-4.4-.03-.13-.31-.2-.47-.3h0c-.25-.57-.37-1.27-.78-1.67-1.69-1.65-3.43-3.26-5.23-4.79-1.24-1.05-2.62-1.92-3.94-2.88-.03-.02-.08-.01-.12-.02-.72-.32-1.44-.64-2.16-.96-.66-1-1.3-2.02-1.99-3-.43-.61-.9-1.18-1.4-1.73-.43-.46-.9-.89-1.41-1.27-.77-.57-1.66-.99-2.36-1.62-.56-.51-.92-1.24-1.38-1.87-.07-.09-.19-.13-.29-.2-1.32-.92-2.74-1.59-3.86-2.93-.76-.91-1.07-1.71-1.21-2.74.18.06.36.13.54.19-.05.82.22,1.39,1.12,1.5Z"/>
          <path class="cls-13" d="m206.1,119.1c-.99-.07-2.06-.44-2.95-.17-3.2.95-5.95-.62-8.87-1.28-1.23-.28-2.46-.55-3.9-.87-.21.7-.43,1.4-.62,2.1-.18.67-.39.98-1.25.71-.96-.3-2.04-.38-3.04-.28-.53.05-1.03.65-1.51,1.03-.31.25-.57.55-.85.83-.09-.06-.17-.13-.26-.19.09-.22.13-.47.27-.64,1.49-1.9,2.88-3.94,5.66-4.04.22,0,.51-.12.64-.28,1.2-1.57,2.75-.86,4.21-.67,1.04.14,2.08.34,3.12.51,1.17.2,2.33.49,3.5.56.91.06,1.98.1,2.74-.31,1.7-.91,3.26-2.1,4.87-3.18.67.28.57,1.58,1.72,1.26.22-.06.74.18.75.31.02.31-.12.68-.29.96-.25.41-.54.82-.89,1.14-.61.56-1.3,1.51-1.91,1.48-1-.05-1.06.34-1.13,1.02Z"/>
          <path class="cls-9" d="m243.74,88.74c-.16-.32-.32-.64-.48-.96.2.05.39.1.59.15l.1-.43c-.39-.06-.78-.13-1.17-.19-.35-.32-.69-.64-1.04-.96-1.68-1.52-3.1-3.27-4.54-5-.69-.84-1.41-1.66-2.05-2.53-.4-.56-.68-1.21-1.01-1.82.45-.15.89-.41,1.35-.43.72-.04,1.63-.41,1.85.87.06.34.69.58,1.15.93.09-.8.14-1.26.19-1.72,1.28,1.63,2.61,3.24,3.83,4.91,2.31,3.16,4.58,6.35,6.8,9.58.66.96,1.09,2.08,1.63,3.13-.17,0-.34.02-.51.02-.08-.16-.16-.32-.24-.48-.63-.49-1.27-.97-1.9-1.46h0c-.17-.15-.33-.3-.5-.46-.15-.01-.3-.02-.46-.03-.64-.95-1.32-1.88-1.91-2.87-.5-.84-1.03-.83-1.69-.24Zm-6.98-8.89c.12-.06.24-.12.36-.17.02-.73-.13-1.42-.88-1.84-.17-.1-.51.03-.72.14-.06.03,0,.44.1.59.35.45.75.86,1.14,1.29Z"/>
          <path class="cls-6" d="m168.28,39.08c1.01.29,1.67.78,1.4,2-.06.26.21.6.34.89.09.2.27.38.31.58.31,1.44.63,2.88.85,4.33.09.56-.07,1.15-.12,1.73-.19,2.12.24,4.2.84,6.16.31,1.01.27,1.47-.24,2.31-.34.55-.02,1.51.04,2.28.03.36.14.72.29,1.41.48-.14,1.13-.13,1.48-.46.97-.89,1.91-1.89,1.29-3.38.26-.44.5-.88.77-1.3.57-.88,1.14-1.77,1.76-2.62.57-.79,1.09-1.66,1.82-2.28.39-.34,1.17-.3,1.76-.28.11,0,.39.74.29,1.03-.25.73-.68,1.4-1.19,2.39-1.21.69-2.26,1.89-2.23,3.85,0,.33-.31.72-.57.98-.62.62-.81,1.25-.75,1.5-.26.54-.44,1.13-.79,1.61-.43.6-.74,1.32-1.85,1.17-.49-.07-1.52.34-1.54,1.43,0,.36-.46.7-.71,1.06-.15-1.65-.3-3.29-.44-4.94-.23-2.72-.48-5.43-.67-8.15-.12-1.74.03-3.52-.27-5.23-.48-2.72-1.23-5.38-1.86-8.07Z"/>
          <path class="cls-13" d="m163.63,29.71c-.31,0-.61-.02-.92-.03-.95-1.07-3.2-1.54-3.91-.64-.77.97-1.55.73-2.44.46-1.28-.39-2.54-.88-3.84-1.16-1.54-.33-3.12-.65-4.68-.65-.77,0-1.96-.73-2.45.64-.27-.03-.55-.07-1.05-.13,1.17-1.39,2.39-2.49,3.91-3.16,3.15-1.39,6.46-2.15,9.92-2.2,1.43-.02,2.85-.15,4.28-.23,0,.15,0,.29,0,.44-.32.01-.63.02-.95.03-2.25.22-4.5.39-6.74.67-1.26.16-2.62.22-3.61,1.46.76.59,1.46,1.13,2.28,1.77,1.12-.11,2.43-.23,3.73-.35.56,0,1.12,0,1.68,0,.24.08.48.16.72.23.16,0,.32.01.48.02.38,1.08,1.29.95,2.15.96.15,0,.31.01.46.02.17.08.34.15.51.23.15,0,.31,0,.46,0,.17.54.75,1.08.02,1.63Z"/>
          <path class="cls-12" d="m180.66,77.22c-.28-.19-.56-.38-1.05-.71-.21.39-.42.79-.63,1.19-.23.18-.46.36-.69.54.23.22.45.44.68.67-.63,1.43-.44,2.93.09,4.26.51,1.27,1.41,2.4,2.24,3.51.14.18.79.05,1.18-.05.28-.07.52-.32.87-.55.12.29.25.49.28.71.16,1.2.15,2.52,2.01,2.09.05-.01.13.17.29.38h-1.03c-.14.41-.27.78-.4,1.15-2.7-2.18-5.91-3.9-7.01-7.56.13-.3.41-.64.35-.89-.39-1.55-.43-3.26-1.77-4.44-.91-.8-.56-1.56.13-2.52.33.54.62,1,.98,1.58.97-.66,1.6-2.06,3.24-1.44v-1.5s0,0,0,0c.49.14.97.28,1.46.41-.08-.09-.16-.17-.25-.26.44-.58.85-1.62,1.31-1.64.77-.03,1.57.59,2.52,1.01-1.84,1.48-3.7,2.34-4.81,4.07Z"/>
          <path class="cls-13" d="m249.81,123.24c-.72-.01-1,.23-.43.91-.29.06-.48.12-.67.13-.42.03-1.13.19-1.2.04-.21-.45-.2-1.02-.25-1.54-.03-.36-.03-.73-.04-1.1-.58.1-1.26.05-1.71.34-.59.38-1.01,1.04-1.57,1.66-.7-.94-1.04-1.97-2.37-1.89-1.09.06-1.99.25-2.54,1.29-.54-1.35.12-2.69,1.38-2.89-.24.4-.48.8-.78,1.28,2.09-.16,2.71-1.5,3.16-3.01.8,0,1.59-.02,2.39-.02.68.01,1.36.05,2.03.04.65-.01,1-.3.73-.99-.56-1.48-1.14-2.95-1.69-4.43-.16-.42-.22-.88-.32-1.32,1.78,2.62,2.94,5.47,3.34,8.63.12.97.36,1.92.55,2.88Z"/>
          <path class="cls-12" d="m208.23,108.68c.05-.06.15-.17.15-.16,1.1.85,2.22.44,3.41.19.52-.11,1.2.43,1.76.75.79.46,1.5,1.23,2.41.2.23.14.44.24.63.38.33.25.95.59.91.77-.11.49-.4,1.06-.81,1.34-1.27.87-1.32,2.03-.03,2.93.9.63,2.26,1.06,2.59,1.9.41,1.05,1.47,1.08,1.88,1.95.23.48.84.77,1.28,1.15-.34.03-.68.07-1.02.1-1.66-1.49-3.35-2.94-4.99-4.46-2.14-2-2.85-1.99-4.75.15-.08.09-.18.15-.27.22-.08.09-.16.18-.24.28-.65.75-1.29,1.5-1.94,2.25.08-.49.01-1.08.27-1.44.61-.85,1.46-1.53,2.06-2.39.74-1.05.87-2.31.23-3.43-.21-.37-1.05-.38-1.6-.55h-.42c-.5-.72-1.01-1.42-1.51-2.13Zm5.65,1.42c-.17.72-.26,1.12-.4,1.7.55-.2.85-.31,1.25-.45-.25-.36-.44-.64-.85-1.25Z"/>
          <path class="cls-6" d="m180.42,73.63v1.5c-1.64-.62-2.27.78-3.24,1.44-.36-.58-.64-1.04-.98-1.58-.68.96-1.03,1.73-.13,2.52,1.33,1.17,1.38,2.88,1.77,4.44.06.25-.22.59-.35.89-.15-.48-.28-.96-.47-1.42-.25-.62-.4-1.36-.84-1.82-2.27-2.36-2.23-5.5-2.96-8.38.49.09.98.18,1.32.24.48-.91.89-1.68,1.3-2.44.15,0,.3,0,.45,0,.33.59.86,1.15.95,1.78.3,2.1,1.03,2.82,3.19,2.83Z"/>
          <path class="cls-13" d="m196.56,39.27c-.18-.06-.36-.13-.54-.19-.67-.9-1.33-1.81-2.01-2.71-.15-.2-.54-.45-.5-.53.4-.9-.33-1.29-.73-1.85-.56-.77-.99-1.65-1.62-2.35-.66-.74-1.76-1.11-1.82-2.33,0-.08-.28-.14-.4-.24-.36-.29-.8-.53-1.05-.89-1.41-2-3.72-2.78-5.55-4.22-.16-.08-.31-.16-.47-.23-.07-.01-.15-.01-.22,0-1.11-.78-2.22-1.57-3.35-2.34-.04-.02-.18.11-.28.17-.24-.08-.48-.16-.71-.23-1.78-1.02-3.75-1.02-5.69-.87-1,.08-1.97.57-2.95.87h-.47c-.25.08-.49.17-.74.25h0c-.56.15-1.12.3-1.68.45-.32.09-.64.17-.96.26-.16.16-.32.32-.48.48h0c-.15,0-.3,0-.45,0-.32.02-.64.04-.96.06,0-.08,0-.17,0-.25.67-.4,1.29-.94,2.01-1.19,5.49-1.97,10.9-2.67,16.07.99,1.32.93,2.93,1.49,4.18,2.5,1.75,1.41,3.34,3.03,4.88,4.67,1.27,1.36,2.48,2.8,3.5,4.34,1.13,1.71,2.01,3.59,3,5.39Z"/>
          <path class="cls-13" d="m247.34,91.84c.15.01.3.02.46.03.17.15.33.3.5.45,0,0,0,0,0,0,.63.49,1.27.97,1.9,1.46.08.16.16.32.24.48.25,1.16.76,2.09,2.05,2.35.55,1.02,1.1,2.04,1.65,3.06-.31.19-.62.37-1.05.63.41.25.75.45,1.13.68-.15.16-.27.3-.39.44h-3.53c.24-.36.55-.73.76-1.15.15-.31.22-.69.2-1.03-.01-.18-.28-.46-.47-.48-1.51-.21-2.5-.98-3-2.44-.09-.26-.45-.44-.69-.65-.07-.02-.14-.03-.21-.04-.01-.31-.02-.62-.03-.93,0,0,0,0,0,0,.29-.15.58-.3,1.17-.6-.62-.16-.91-.24-1.2-.31-.23-.02-.45-.04-.68-.05,0-.77,0-1.53,0-2.39.56.22.88.34,1.2.46Z"/>
          <path class="cls-6" d="m145.39,28.33c.49-1.38,1.68-.65,2.45-.64,1.56,0,3.14.32,4.68.65,1.3.28,2.56.77,3.84,1.16.88.27,1.66.51,2.44-.46.71-.89,2.96-.42,3.91.64-.68-.19-1.06.08-1.59.58-.54.5-1.53.51-2.3.79-.27.1-.47.37-.7.57-1.9-.62-3.77-1.35-5.71-1.84-2.1-.53-4.25-.84-6.38-1.25-.22-.04-.43-.13-.65-.2Z"/>
          <path class="cls-12" d="m245.92,111.74c.11.44.17.9.32,1.32.55,1.48,1.13,2.95,1.69,4.43.27.7-.08.98-.73.99-.68.01-1.36-.02-2.03-.04.34-.68-.12-2.11-.98-2.46-.97-.4-.94-1.28-.81-1.85.25-1.07.51-2-.42-2.84-.1-.09-.17-.37-.11-.42.8-.8.94-2.23,2.34-2.46,0,.4-.02.8-.03,1.2l.77,2.13h0Zm-1.16,2.58c.03-.07.09-.15.07-.2-.02-.05-.12-.06-.19-.09-.03.07-.09.15-.08.2.02.05.12.06.19.09Z"/>
          <path class="cls-8" d="m229.86,121.53c.54.04,1.09.08,1.63.12.59.16,1.17.32,1.98.55-2.53.39-2.63.54-2.28,2.81.03.22.02.47-.04.68-.2.74-.42,1.46-.64,2.19-1.8-.49-2.48-2.17-3.59-3.38.06-.09.19-.26.18-.27-.89-.89-.59-1.92-.39-2.95.23,0,.47,0,.7,0,.33.02.66.03.99.05.39.05.77.11,1.16.16.1,0,.2.02.31.03Z"/>
          <path class="cls-12" d="m238.69,76.63c-.05.46-.1.92-.19,1.72-.46-.36-1.1-.6-1.15-.93-.22-1.28-1.13-.91-1.85-.87-.46.02-.9.28-1.35.43-.08,0-.16,0-.24,0-.13-.68-.05-1.79-.43-1.97-1.36-.66-1.41-2-1.97-3.07-.24-1.06-1.27-2.08-2.16-2.16,0-.34.02-.68.03-1.03,1.88,1.57,3.76,3.13,5.63,4.7,1.24,1.04,2.46,2.11,3.69,3.17Z"/>
          <path class="cls-13" d="m230.51,127.88c.22-.73.44-1.46.64-2.19.06-.22.08-.46.04-.68-.36-2.27-.25-2.43,2.28-2.81-.81-.22-1.39-.39-1.98-.55.67-.05,1.41.08,1.7-.82.04-.12.48-.12.73-.17,0,.2-.11.48-.01.58,1.11,1.14.19,2.04-.26,3.05-.27.6-.38,1.28-.49,1.94-.18,1.09-.31,2.18-.45,3.27-.73-.54-1.47-1.07-2.2-1.61Z"/>
          <path class="cls-6" d="m210.16,110.8c.55.17,1.39.18,1.6.55.64,1.12.51,2.37-.23,3.43-.6.86-1.45,1.54-2.06,2.39-.26.36-.19.95-.27,1.44-.32.28-.64.55-.96.83-.28-.2-.56-.4-.85-.6-.04.07-.09.14-.13.22.08.17.17.33.25.5-.48-.15-.95-.3-1.43-.46.07-.68.13-1.07,1.13-1.02.61.03,1.31-.92,1.91-1.48.35-.32.64-.73.89-1.14.17-.29.31-.65.29-.96,0-.13-.53-.37-.75-.31-1.15.31-1.05-.98-1.72-1.26.37-.31.73-.62,1.1-.93.41-.4.81-.79,1.22-1.19Z"/>
          <path class="cls-6" d="m196.47,99.79c1.3.82,2.54,1.79,3.93,2.43,1.11.5,2.19,1.22,3.6,1.05.38-.05,1.19.97,1.29,1.58.17,1.04.74,1.56,1.5,2.12.49.37.81.98,1.2,1.48-1.84-1.31-3.63-2.71-5.54-3.91-1.02-.64-2.26-.92-3.36-1.45-.49-.23-.96-.62-1.27-1.06-.51-.7-.89-1.49-1.33-2.24Z"/>
          <path class="cls-12" d="m185.72,91.61c.13-.28.26-.55.5-1.09.62.51,1.21.96,1.75,1.46.66.61,1.45,1.17,1.89,1.92.9,1.54,2.43,2.33,3.71,3.41.71.6,1.6.99,2.35,1.55.27.2.38.61.56.93-1.27-1.11-2.68-1.97-4.37-2.25-1.21-.2-1.82-1.11-2.56-1.93-1.23-1.37-2.55-2.67-3.83-4Z"/>
          <path class="cls-6" d="m247.09,95.7c.24.21.6.39.69.65.5,1.46,1.49,2.23,3,2.44.18.03.46.31.47.48.02.34-.05.72-.2,1.03-.21.42-.52.8-.76,1.15,1.27,0,2.4,0,3.53,0,.16.08.31.16.47.23.16.5.37,1,.46,1.52.11.6.13,1.21,1,1.11h0c.09.54.18,1.09.28,1.63-.57-.27-1.14-.53-1.71-.8-.25-.67-.49-1.34-.74-2.01-.04,0-.09.01-.12,0-1.2-.63-2.42-1.12-3.8-.52-.1.04-.54-.35-.57-.58-.11-.67.96-1.95,1.74-2.13-.88-.58-1.8-1.05-2.52-1.73-.67-.63-1.5-1.31-1.2-2.46Z"/>
          <path class="cls-13" d="m226.7,121.28c-.19,1.02-.5,2.06.39,2.95.02.02-.12.18-.18.27-.66-.47-1.34-.91-1.98-1.41-1.2-.95-2.37-1.94-3.55-2.91.34-.03.68-.07,1.02-.1.72.03,1.43.06,2.15.1.48.16.95.32,1.43.49.24.21.48.42.72.62Z"/>
          <path class="cls-8" d="m254.3,101.67c-.16-.08-.31-.16-.47-.23.12-.14.24-.28.39-.44-.38-.23-.72-.43-1.13-.68.43-.26.74-.45,1.05-.63,2.02,2.23,3.56,4.77,4.85,7.46-.09.11-.18.23-.28.34-.56-.39-1.12-.78-1.67-1.17-.2-.56-.36-1.14-.62-1.67-.09-.18-.43-.23-.66-.34,0,0,0,0,0,0-.08-.45-.14-.91-.25-1.36-.15-.65-.32-1.31-1.21-1.27Z"/>
          <path class="cls-6" d="m252.49,96.63c-1.28-.26-1.8-1.19-2.05-2.35.17,0,.34-.01.51-.02l1.53,2.38Z"/>
          <path class="cls-12" d="m160.05,32.37c1.17.56,2.34,1.13,3.5,1.71.02.01-.05.21-.08.32-1.14-.68-2.27-1.35-3.41-2.03Z"/>
          <path class="cls-9" d="m253.58,103.12c.25.67.49,1.34.74,2.01,0,0-.08.02-.08.02-.3-.04-.6-.07-.9-.11.08-.64.16-1.28.24-1.93Z"/>
          <path class="cls-13" d="m255.75,104.3c.23.11.57.16.66.34.26.53.42,1.11.62,1.67-.34-.13-.68-.26-1.01-.39-.09-.54-.18-1.08-.28-1.63Z"/>
          <path class="cls-13" d="m245.93,111.74l-.77-2.13.77,2.13Z"/>
          <path class="cls-13" d="m210.16,110.8c-.41.4-.81.79-1.22,1.19.27-.4.53-.8.8-1.2.14,0,.28,0,.42.01Z"/>
          <path class="cls-13" d="m197.67,40.77c-.89-.11-1.17-.68-1.12-1.5.37.5.75,1,1.12,1.5Z"/>
          <path class="cls-12" d="m245.41,108.29c.32-.28.64-.56.96-.84-.12.51-.23,1.03-.96.84Z"/>
          <path class="cls-12" d="m207.53,119.56c-.08-.17-.17-.33-.25-.5.04-.07.09-.14.13-.22.28.2.56.4.85.6-.24.04-.48.08-.72.12Z"/>
          <path class="cls-6" d="m162.92,22.58c0,.08,0,.17,0,.25,0,.13,0,.26,0,.39-.16-.06-.32-.11-.48-.17,0-.15,0-.29,0-.44.16-.01.32-.02.48-.03Z"/>
          <path class="cls-6" d="m172.98,70.03c.06.29.12.58.18.86-.06-.29-.12-.58-.18-.86Z"/>
          <path class="cls-6" d="m253.33,105.04c.3.04.6.07.9.11-.38.04-.76.07-1.14.11.08-.07.16-.14.24-.21Z"/>
          <path class="cls-12" d="m159.76,32.15c.09.07.18.14.27.22-.09-.07-.18-.14-.27-.22Z"/>
          <path class="cls-6" d="m211.15,116.36c.08-.09.16-.18.24-.28-.08.09-.16.18-.24.28Z"/>
          <path class="cls-11" d="m209.93,54.44c.72.32,1.44.64,2.16.96-.87,1,.22,1.86.12,2.77.78.17,1.48.31,2.14.45.12.39.22.71.28.92.97.32,1.82.6,2.67.88-.17.57-.3,1.03-.47,1.6.53-.07.87-.11,1.2-.15.28,1.04,2.8,2.77,4.13,2.87,0,0,0,0,0,0-.09,1.73.47,3.26,1.7,4.43,1.24,1.18,2.25,2.39,2.18,4.23,0,.14.44.3.68.44.14,1.26.3,2.41,1.59,3.23.59.38.72,1.5,1.05,2.29-.76-.87-1.56-1.7-2.26-2.61-.67-.87-1.23-1.83-1.86-2.78-1.07.91-1.05,1.52-.28,2.37.99,1.1,1.91,2.3,2.59,3.61.75,1.45,2.02,2.49,3.73,2.51-.02.05-.04.12-.07.18.2.08.39.16.59.24.03-.09.06-.18.1-.28-.21-.05-.41-.1-.62-.14-.23-.33-.48-.66-.66-1.02-.09-.18-.04-.43-.06-.65.31-.16.63-.32.94-.47.16,0,.32,0,.49,0,.08,0,.16,0,.24,0,.24.32.48.64.72.96.16.4.32.8.48,1.2.02.12.04.24.06.35.15.65.69,1.44-.19,1.84-.25.11-.87-.58-1.27-.86-.51.12-.97.23-1.48.35v.96c-.16-.08-.32-.16-.48-.24-.02-.52.18-1.23-.09-1.52-.65-.7-1.53-1.19-2.3-1.78-.64-.5-1.34-.95-1.87-1.55-1.02-1.15-2.33-2.26-2.79-3.63-.57-1.72-1.85-2.46-3.02-3.53-.53.49-.84.8-.36,1.54.71,1.1,1.2,2.35,1.79,3.53-2.2,0-2.26-.06-2.91-2.13-.48-1.52-1.79-2.06-3.22-2.76-.09,1.23-.16,2.27-.24,3.38,1.26-.46,1.29.79,1.82,1.29.65.61.75,1.38.17,1.77.47.39.89.75,1.31,1.09.18.15.36.35.57.4.87.22,1.2.65.81,1.23.74.59,1.41,1.06,1.99,1.62.16.15.05.58.07.88-.32-.03-.72.06-.94-.1-.67-.52-1.37-1.06-1.87-1.73-.62-.84-.98-.69-1.45.08-.14.22-.56.51-.71.45-.6-.26-1.29-.53-1.68-1.01-.4-.49-.49-1.23-.77-1.99-.19,0-.57.03-.91.04.29-1.11.59-2.22.97-3.66-1.05.13-1.94.24-2.85.36.5,1.82.39,2.08-.9,2.33.3.21.65.3.96.46.23.12.46.3.6.51.05.08-.14.46-.23.46-.25.01-.54-.05-.75-.18-.53-.34-1.04-.71-1.51-1.13-.22-.2-.32-.53-.47-.8.27-.09.54-.23.81-.27.32-.05.65-.01,1.1-.01-.56-.69-.95-1.17-1.38-1.7-.21.19-.42.42-.67.59-.26.17-.55.28-.83.42-.16-.33-.4-.65-.45-.99-.08-.53-.02-1.09-.02-1.69.49.18,1.09.41,1.7.63.08-.14.16-.28.25-.42-.66-.48-1.33-.97-1.98-1.45.25-.42.44-.74.64-1.07-.41-.17-.73-.3-1.05-.43.13-.39.23-.72.4-1.25-.59.33-.96.52-1.4.77.5-1.17.93-2.17,1.36-3.17-.13-.08-.27-.16-.4-.24-.28.33-.56.65-.88,1.01-.31-.21-.62-.43-.98-.68.11,1.25.21,2.32.32,3.46-.29.12-.75.25-1.15.48-.43.25-.81.58-1.05.76.08.73.31,1.34.14,1.82-.1.27-.83.32-1.41.51-.04-.61-.06-.96-.15-1.3.14-.03.25-.02.27-.06.05-.09.06-.21.08-.32-.11.1-.22.21-.35.38-.15.13-.57.34-.54.41.21.74.37,1.55.81,2.15.41.57,1.13.92,1.72,1.36-.44.59-.86,1.14-1.38,1.82-1.05-1.41-2.16-2.84-3.19-4.32-.49-.71-.84-1.51-1.26-2.27-.12.05-.24.1-.36.15v-1c-.77.45-1.24,3.2-.56,3.46,1.28.5,1.35,2.26,2.83,2.44.13.02.33.4.3.58-.14.95.22,1.48,1.16,1.68.13.03.2.28.48.68-.82.07-1.73.38-1.96.12-.81-.93-2.21-1.5-2.18-3.09-1.3-.43-2.63-.87-3.88-1.13-.2-.66-.35-1.13-.59-1.88-.4.49-.64.8-.89,1.1.43.26.86.53,1.48.78,0,.86.08,1.9.16,2.94h-.48c-.72-.67-1.42-1.35-2.15-2-.62-.55-1.28-1.06-1.93-1.59.35-.45.71-.9,1.06-1.34-.12-1.18-1.81-2.27-.49-3.44.7.09,1.14.15,1.58.2-.07-.47-.18-.95-.2-1.42-.01-.4.01-.82.14-1.19.11-.31.39-.56.7-.97-.62-.28-1.17-.42-1.56-.74-.75-.62-1.42-1.34-2.09-2.05-.1-.11-.11-.43-.02-.56.77-1.12-.19-1.5-.86-1.87-.96-.53-1.04-1.05-.26-1.85.36-.37.49-.95.74-1.43.14-.27.29-.71.47-.73.29-.02.64.19.89.4.16.13.17.44.28.64.87,1.63,1.85,1.74,3.17.38.12-.13.32-.19.57-.32-.21-.28-.34-.62-.54-.67-.93-.23-1.4-.7-1.49-1.72-.05-.65-1.28-.72-1.76-.13-.19.23-.33.51-.48.74-1.03-1.14-2.01-2.22-3.13-3.46-.38.12-.96.31-1.55.49.07-.08.13-.16.2-.25-1-.71-2-1.41-2.94-2.08.5-.57.85-1.23,1.4-1.55,1.02-.59,2.19-.91,3.22-1.5.66-.37,1.19-.99,1.71-1.55.11-.12-.05-.49-.12-.91-.82.52-1.49.99-2.21,1.38-.28.15-.66.12-.99.17.13-.2.37-.39.37-.6.01-.32-.08-.67-.23-.95-.06-.11-.61-.1-.63-.03-.1.27-.1.58-.09.87,0,.24.07.47.11.7-.52-.04-1.03-.08-1.61-.13.75-1.89.61-2.22-.79-2.27-.23-.27-.45-.55-.71-.85,1.12-1.21,4.1-.58,5.18,1.56.29-.47.69-.82.66-1.13-.06-.76.36-.76.86-.77.05.21.09.42.22.99.68-1.52,1.5-.69,2.15-.65-.09.55-.17,1.01-.25,1.47.42.04.85.11,1.27.11,1.37.01,2.74,0,4.09,0,.13,1.54,1.61.84,2.1,1.71.1-.11.2-.21.3-.32-.22-.34-.44-.67-.75-1.15.4-.46.85-.97,1.31-1.5.5.33.91.52,1.21.82.25.24.6.74.51.91-.8,1.47.65,1.82.88,2.3.93-.04,1.5-.09,2.08-.09.23,0,.46.16.69.15,1.91-.08,2.11.04,2.73,1.71.04.1.13.2.22.26.94.57,1.89,1.12,2.84,1.68Zm-.85,15.57c-.23-.2-.43-.43-.47-.4-.21.12-.39.3-.54.49-.02.03.25.37.3.35.22-.08.41-.25.71-.45Zm-24.81-22.71c.09-.22.2-.36.17-.46-.04-.11-.2-.18-.31-.27-.08.1-.24.22-.22.31.03.12.18.22.37.42Zm4.77,14.11c-.13-.08-.22-.18-.28-.17-.09.02-.16.13-.23.2.07.06.15.16.21.16.09,0,.17-.1.3-.19Zm.32,2.3c.03-.07.09-.15.07-.2-.02-.05-.12-.06-.19-.09-.03.07-.09.15-.07.2.02.05.12.06.19.09Zm23.11,12.49c-.07-.03-.15-.1-.2-.08-.05.02-.06.12-.09.19.07.03.15.1.19.08.05-.02.06-.12.09-.19Zm.72-.35c-.03-.07-.04-.17-.08-.19-.05-.02-.13.04-.2.07.03.07.04.17.08.19.05.02.13-.04.2-.07Z"/>
          <path class="cls-10" d="m202.25,74.59c.02.35.04.7.08,1.31.58-.19,1.31-.24,1.41-.51.17-.48-.06-1.09-.14-1.82.24-.18.62-.51,1.05-.76.4-.23.86-.37,1.15-.48-.1-1.14-.2-2.22-.32-3.46.37.25.68.47.98.68.31-.36.59-.69.88-1.01.13.08.27.16.4.24-.43,1-.86,2-1.36,3.17.44-.24.81-.44,1.4-.77-.17.53-.28.85-.4,1.25.32.13.64.26,1.05.43-.2.33-.39.65-.64,1.07.66.48,1.32.96,1.98,1.45-.08.14-.16.28-.25.42-.6-.22-1.21-.45-1.7-.63,0,.61-.06,1.16.02,1.69.05.35.29.66.45.99.28-.14.58-.25.83-.42.25-.17.47-.41.67-.59.43.53.82,1.02,1.38,1.7-.45,0-.78-.04-1.1.01-.28.04-.54.17-.81.27.15.27.25.6.47.8.47.42.99.79,1.51,1.13.21.13.5.19.75.18.09,0,.29-.38.23-.46-.14-.21-.37-.39-.6-.51-.31-.16-.66-.25-.96-.46,1.29-.26,1.4-.52.9-2.33.91-.11,1.8-.23,2.85-.36-.38,1.44-.68,2.55-.97,3.66.34-.02.71-.03.91-.04.28.76.37,1.5.77,1.99.39.48,1.08.76,1.68,1.01.15.06.57-.23.71-.45.48-.77.83-.92,1.45-.08.5.67,1.2,1.21,1.87,1.73.21.16.62.08.94.1-.02-.3.09-.72-.07-.88-.58-.56-1.25-1.03-1.99-1.62.39-.58.05-1.02-.81-1.23-.21-.05-.39-.26-.57-.4-.43-.35-.85-.7-1.31-1.09.57-.38.47-1.16-.17-1.77-.53-.5-.56-1.75-1.82-1.29.08-1.11.15-2.15.24-3.38,1.43.71,2.75,1.25,3.22,2.76.65,2.06.71,2.13,2.92,2.11-.02.05-.05.11-.07.18.2.08.4.16.6.24.03-.09.06-.19.09-.28-.2-.05-.41-.1-.62-.14-.59-1.17-1.08-2.41-1.79-3.52-.48-.74-.17-1.04.36-1.54,1.17,1.08,2.44,1.82,3.02,3.53.46,1.37,1.77,2.48,2.79,3.63.53.6,1.23,1.06,1.87,1.55.77.6,1.64,1.08,2.3,1.78.27.28.07,1,.09,1.52-.92.94.04,1.75.37,2.39.45.89,1.38,1.55,2.22,2.43-.22.27-.49.61-.92,1.13.91.23,1.81.29,2.52.69.47.26.66,1.01.98,1.54-1.14.74-1.11.84-.02,1.77.29.25.31.8.57,1.12.58.68,1.13,1.46,1.88,1.91.99.59.91,1.17.38,1.94-.11.16-.21.33-.35.57.31.27.6.52.88.76-.03.11-.06.22-.1.34-.45-.16-.9-.32-1.34-.49-.47-.18-.93-.36-1.4-.55-.06.14-.12.28-.18.42.3.27.6.54,1.07.95-.75.36-1.39.67-2.19,1.06.21.45.52,1.13.85,1.84-.5.03-1.15.48-1.47-.65-.21-.74-1.35-.62-2.42.44v-2.47c.07.01-.19-.12-.34-.05-.81.42-1.4.88-1.36-.7.01-.65-.98-1.31-1.48-1.98-.67-.89-1.51-.83-2.46-.56-.22.06-.6-.14-.79-.33-2.21-2.15-4.38-4.34-6.58-6.49-1.22-1.19-2.54-2.29-3.72-3.51-1.02-1.06-1.9-2.26-2.89-3.35-.19-.21-.6-.23-.92-.33-.07.3-.23.61-.19.89.09.55.27,1.08.44,1.61.24.73.39,1.5,1.44,1.62.35.04.85.62.91,1,.2,1.44,1.58,1.95,2.18,2.98.88,1.5,3.24,1.91,2.98,4.35-.38-.34-.68-.6-1.05-.93-.22.24-.44.47-.49.53.49.74.81,1.4,1.29,1.9.5.52,1.17.88,1.76,1.3.86.62,1.75,1.22,2.58,1.88.18.14.18.5.26.76-.27-.03-.54-.04-.8-.09-.1-.02-.2-.23-.27-.21-1.43.33-1.98-.96-2.89-1.57-.3-.2-.48-.56-.75-.81-.53-.51-1.01-1.24-1.65-1.43-1.31-.4-.78.71-1.05,1.53.95-.56,1.2-.18,1.73.38,1.12,1.2,1.47,3.16,3.4,3.6.17.04.24.49.35.75-.27-.02-.6.05-.8-.08-1.61-.98-3.19-1.95-4.08-3.77-.4-.81-1.24-1.41-1.89-2.1-.08-.08-.27-.12-.29-.2-.41-1.93-2.49-2.15-3.53-3.44-.18-.22-.6-.24-.91-.36-.03.33-.07.65-.1.98-.08.04-.16.09-.24.13-.23-.56-.46-1.11-.72-1.76-.16.07-.41.17-.67.28.06-.09.11-.18.17-.27-1.42-1.09-2.84-2.17-4.44-3.39.39-1.03,1.41-2.3.38-3.74.31-.19.92-.44.89-.55-.12-.53-.45-1.47-.64-1.45-.96.08-.87-.54-.98-1.11-.08-.46-.24-.9-.37-1.35-.13.03-.26.06-.39.09.08.64.08,1.3.27,1.9.24.77.64,1.49.97,2.24-.18-.03-.43,0-.52-.11-.68-.82-1.37-1.19-1.92-.4-.83-.18-1.53-.17-2.03-.48-.96-.61-2.27-.77-2.77-2.06-.13-.34-.64-.51-.9-.83-.29-.35-.49-.77-.73-1.16.12-.1.24-.19.36-.29-.03-.03-.05-.05-.08-.08-.1.12-.19.24-.29.36-.24,0-.48,0-.72,0-.08-.4-.16-.8-.24-1.2.16,0,.32,0,.47-.07.03.14.02.25.06.27.09.05.21.06.32.08-.1-.11-.21-.22-.38-.35-.07-.97-.15-2.01-.23-3.05,1.33.44,2.65.88,3.96,1.31-.03,1.59,1.37,2.16,2.18,3.09.23.27,1.13-.05,1.96-.12-.28-.41-.36-.66-.48-.68-.94-.19-1.3-.73-1.16-1.68.03-.18-.17-.57-.3-.58-1.48-.18-1.55-1.94-2.83-2.44-.67-.27-.21-3.02.56-3.46v1c.12-.05.24-.1.36-.15.41.76.76,1.57,1.26,2.27,1.03,1.48,2.14,2.91,3.19,4.32.52-.68.93-1.24,1.38-1.82-.58-.44-1.31-.79-1.72-1.36-.43-.6-.59-1.41-.81-2.15-.02-.08.4-.28.61-.42Zm4.56,13.22c.1-.18.19-.35.29-.53-.5-.24-.99-.49-1.49-.73l-.16.33c.45.31.91.62,1.36.93Zm5.56-6.43c.04.13.07.25.11.38.24-.06.49-.13.73-.19-.04-.14-.08-.28-.11-.42l-.72.23Zm-4.47,11.51c0,.09-.01.19-.02.28.23.01.46.02.7.03,0-.09,0-.19.01-.28-.23-.01-.46-.03-.69-.04Z"/>
          <path class="cls-9" d="m180.66,77.22c1.12-1.73,2.97-2.59,4.81-4.07-.95-.42-1.75-1.04-2.52-1.01-.46.02-.88,1.06-1.31,1.64.08.09.16.17.25.26-.49-.14-.97-.28-1.46-.41.11-1.02.21-2.04.33-3.12-.23-.11-.53-.21-.79-.38-.62-.42-.54-1.03.07-1.15,1.79-.33,1.1-1.68,1.26-2.68.06-.36.05-.72.08-1.27.08.13.04.07,0,0-.23-.39-.49-.76-.64-1.17-.03-.09.44-.52.53-.48.44.21,1.11.46,1.2.82.52,2.02,2.21,3.24,3.16,4.95.43.77.74,1.62,1.08,2.44.32.76.61,1.53.92,2.29-.34-.09-.71-.31-1.02-.23-.4.1-.98.36-1.06.66-.26,1.07-.91,1.66-2.02,1.6-.18-.01-.36-.03-.54-.04-.04.13-.08.25-.12.38.66.25,1.33.5,2.13.81-.19.22-.39.44-.67.76,1.65.27.45,1.53.81,2.31.1.21-.32.84-.65,1.02-.24.13-.84-.07-1.04-.32-.34-.41-1.13-.77-.49-1.56.07-.08-.16-.52-.34-.66-.62-.49-1.29-.91-1.94-1.36Z"/>
          <path class="cls-10" d="m230.55,85.14v-.96c.51-.12.97-.23,1.48-.35.4.28,1.01.97,1.27.86.88-.4.34-1.19.19-1.84-.03-.12-.04-.23-.06-.35q1.36.9,1.35,2.07c.75.81,1.4,1.32,1.79,1.97.62,1.03,1.07,2.17,1.6,3.26.14.29.23.65.46.83,1.18.95,2.04,2.01,1.41,3.8.57-.19.92-.31,1.38-.46.02.34.04.59.06.91,1-.3,1.34.42,1.56,1.14.1.34-.07.76-.12,1.14-.12-.01-.25-.03-.37-.04-.17-.37-.34-.74-.52-1.1-.99.37-2.42-.13-3.05-1.01-.81-1.13-1.56-2.3-2.45-3.36-1.53-1.82-3.14-3.57-4.73-5.33-.38-.42-.82-.78-1.24-1.17Z"/>
          <path class="cls-9" d="m225.98,120.66c-.48-.16-.95-.32-1.43-.49-.79-1.69-2.27-2.74-3.56-3.98-.4-.39-.56-1.04-.83-1.57.09-.05.17-.1.26-.15-.53-.5-1.08-.99-1.57-1.53-.14-.15-.1-.46-.14-.7.24,0,.54-.09.71.02,1.14.74,2.32,1.31,3.35,2.34,1.76,1.75,2.62,3.77,3.21,6.04Z"/>
          <path class="cls-9" d="m193.85,80.58c.08.4.16.8.24,1.2-.04.23-.01.54-.15.68-.27.29-.64.48-.97.72-.1-.33-.2-.67-.33-1.09-.2-.04-.5-.09-.81-.15.1-.08.2-.16.3-.24-.76-1.05-1.33-2.35-2.31-3.1-1.64-1.26-2.29-2.77-2.21-4.73.48.75.95,1.51,1.44,2.25.21.31.48.58.72.87.64.53,1.3,1.04,1.93,1.59.73.65,1.44,1.33,2.15,2Z"/>
          <path class="cls-11" d="m229.35,69.79c.89.08,1.92,1.1,2.16,2.16-.11.19-.34.4-.3.55.12.52.32,1.02.47,1.46-.44.33-.79.6-1.13.86,0,.16,0,.32,0,.48-.22.51-.44,1.01-.67,1.54.27.15.47.26.67.38.16.64.32,1.28.48,1.92,0,.08,0,.17,0,.25-.39-.49-.81-.95-1.15-1.47-.61-.92-1.2-1.85-1.77-2.8-.31-.52-.27-.9.48-.91.96-.02,1.17-.51.89-1.47-.18-.6-.98-1.54.37-1.74-.16-.39-.33-.8-.5-1.2Z"/>
          <path class="cls-6" d="m247.34,91.84c-.32-.12-.64-.25-1.2-.46,0,.85,0,1.62,0,2.39-.31-.83-.58-1.67-.95-2.47-.26-.57-.64-1.09-.96-1.63-.16-.23-.32-.47-.49-.7,0-.08,0-.15,0-.23.66-.59,1.19-.6,1.69.24.59.98,1.27,1.91,1.91,2.87Z"/>
          <path class="cls-12" d="m242.78,118.47c-.45,1.51-1.07,2.85-3.16,3.01.3-.49.54-.88.78-1.28,0,0,.01-.01.01-.01.19-.07.39-.13.58-.2-.11-.11-.23-.21-.34-.32-.57-.12-1.13-.23-1.7-.35,0-.06,0-.11,0-.17.16-.45.32-.91.48-1.36.12.03.24.06.35.09.07.37.14.74.24,1.3.47-.2.9-.44,1.36-.55.45-.11.93-.1,1.4-.15Z"/>
          <path class="cls-10" d="m230.55,74.82c.35-.26.69-.53,1.13-.86-.15-.44-.36-.94-.47-1.46-.03-.16.19-.37.3-.55.57,1.07.61,2.41,1.97,3.07.37.18.3,1.29.43,1.97-.65-.38-1.3-.75-1.95-1.13-.31-.18-.62-.37-.93-.55l-.48-.48Z"/>
          <path class="cls-9" d="m203.51,95.25c-1.73.6-2.65-.4-3.59-1.39.84-1.04,1.97-.62,3.59,1.39Z"/>
          <path class="cls-11" d="m203.69,86.82c-.33-.74-.73-1.47-.97-2.24-.19-.6-.19-1.26-.27-1.9.13-.03.26-.06.39-.09.12.45.28.89.37,1.35.1.57.01,1.19.98,1.11.19-.02.52.92.64,1.45.03.11-.58.37-.89.55-.08-.08-.16-.16-.24-.24Z"/>
          <path class="cls-10" d="m222.08,105.54c.58.26,1.23.43,1.72.8.27.21.27.77.39,1.17-.09.04-.18.09-.27.13-.64-.57-1.28-1.14-1.92-1.71.03-.13.05-.27.08-.4Z"/>
          <path class="cls-10" d="m230.55,77.22c-.2-.11-.4-.22-.67-.38.23-.53.45-1.04.67-1.54h.48c-.16.64-.32,1.28-.48,1.92Z"/>
          <path class="cls-9" d="m178.98,78.91c-.23-.22-.45-.44-.68-.67.23-.18.46-.36.69-.54,1.01.41.08.8,0,1.2Z"/>
          <path class="cls-10" d="m231.02,79.39c0-.08,0-.17,0-.25.32.4.64.8.96,1.2-.16,0-.32,0-.49,0-.16-.32-.32-.63-.48-.95Z"/>
          <path class="cls-6" d="m242.78,87.3c.39.06.78.13,1.17.19l-.1.43c-.2-.05-.39-.1-.59-.15-.16-.16-.32-.32-.48-.47Z"/>
          <path class="cls-13" d="m238.95,119.14c.01.06.02.11,0,.17-.03.48-.07.96-.77.77,0-.22-.01-.44-.02-.67.26-.09.52-.18.78-.28Z"/>
          <path class="cls-6" d="m246.86,94.73c.01.31.02.62.03.93-.23-.2-.47-.4-.7-.6.22-.11.45-.22.67-.33Z"/>
          <path class="cls-6" d="m246.83,93.82c.29.08.58.15,1.2.31-.59.3-.88.45-1.17.6-.01-.3-.02-.61-.03-.91Z"/>
          <path class="cls-10" d="m232.95,81.3c-.24-.32-.48-.64-.72-.96.24.32.48.64.72.96Z"/>
          <path class="cls-12" d="m238.17,119.42c0,.22.01.44.02.67-.08.01-.16.03-.24.04-.15,0-.3.02-.44.03,0,0-.03-.03-.03-.03.23-.23.46-.47.69-.7Z"/>
          <path class="cls-10" d="m236.31,105.08l.41.45-.15.16c-.16-.13-.32-.26-.48-.39.07-.08.15-.15.22-.23Z"/>
          <path class="cls-9" d="m243.75,88.97c.16.23.32.47.49.7-.85.24-.36-.45-.49-.7Z"/>
          <path class="cls-12" d="m237.24,120.58c-.15.02-.3.03-.46.05.23-.17.46-.34.69-.51,0,0,.03.03.03.03-.09.14-.17.28-.26.43Z"/>
          <path class="cls-13" d="m228.4,121.34c-.33-.02-.66-.03-.99-.05.33.02.66.03.99.05Z"/>
          <path class="cls-13" d="m234.87,120.64c-.16,0-.32,0-.48,0,.16,0,.32,0,.48,0Z"/>
          <path class="cls-13" d="m235.62,120.71c-.1-.01-.19-.03-.29-.04.1.01.19.03.29.04Z"/>
          <path class="cls-13" d="m229.86,121.53c-.1,0-.2-.02-.31-.03.1,0,.2.02.31.03Z"/>
          <path class="cls-12" d="m209.93,54.44c-.95-.56-1.89-1.11-2.84-1.68-.09-.06-.19-.16-.22-.26-.62-1.67-.82-1.79-2.73-1.71-.23,0-.46-.15-.69-.15-.58,0-1.15.05-2.08.09-.23-.48-1.68-.82-.88-2.3.09-.17-.26-.67-.51-.91-.3-.3-.71-.49-1.21-.82-.46.53-.91,1.04-1.31,1.5.31.48.53.82.75,1.15-.1.11-.2.21-.3.32-.49-.87-1.97-.17-2.1-1.71-1.36,0-2.73,0-4.09,0-.42,0-.85-.07-1.27-.11.08-.46.16-.92.25-1.47-.65-.04-1.47-.88-2.15.65-.13-.57-.17-.78-.22-.99.45-.79.91-1.58,1.39-2.42.54.31.86.5,1.32.77.19-1.6,1.32-1.38,2.42-1.2.18-1.16.23-2.43,1.9-1.77.07-1.45-1.54-2.99-4.47-4.22.36-.4.65-.73,1.09-1.23-.3-.73-.7-1.73-2.17-1.57.07-.47.13-.89.19-1.31q-1.58-.09-1.77-1.53c-.31-.39-.62-.78-.92-1.18-.24-.31-.5-.62-.72-.95-.27-.41-.51-.83-.77-1.25.08-.06.16-.12.24-.18-.86-.56-1.71-1.12-2.63-1.72-.28.38-.5.68-.8,1.1-.2-.42-.36-.75-.52-1.07-.03.09-.07.17-.1.26-.9-.27-1.8-.56-2.7-.81-.39-.11-.8-.12-1.2-.18-.02.39-.15.82-.05,1.18.32,1.15-.64,1.68-1.14,2.39-.24.34-.6.95-1.45.53-.65-.32-1.59-.22-2.34-.05-.31.07-.46.83-.71,1.33-.25-.22-.76-.5-1-.94-.21-.38-.1-.92-.13-1.4.35.19.69.38,1.27.69.37-.82.81-1.78,1.26-2.77-.54-.29-1.09-.58-1.55-.83-.58.37-1.09.7-1.6,1.03v-1.14c-.49-.29-1.06-.63-1.61-.96-.97,1.37-1.35,1.43-2.82.92-.57-.2-1.24-.1-2.11-.15-.05-.37-.13-.9-.24-1.61-.62-.4-1.46-.3-2.08.25-.2.18.16,1,.47,1.47-.1.6-.21,1.21-.31,1.81-.44-.24-.86-.51-1.32-.69-.15-.06-.4.14-.6.23-.16,0-.32-.01-.48-.02-.24-.08-.48-.16-.72-.23-.56,0-1.12,0-1.68,0-.24-1.94,1.37-1.24,2.29-1.55-.08-.86.28-1.29,1.14-1.39.32-.04.61-.39.91-.6.32-.01.63-.02.95-.03.16.06.32.11.48.17,0-.13,0-.26,0-.39.32-.02.64-.04.96-.06.1.13.19.26.29.38.06-.13.11-.26.17-.38,0,0,0,0,0,0,.16-.16.32-.32.48-.48.32-.09.64-.17.96-.26.74.52,1.33.47,1.68-.45,0,0,0,0,0,0,.25-.09.49-.17.74-.26.16,0,.31,0,.47,0,.41.17.9.56,1.23.46,1.25-.38,2.67.46,3.83-.6.15-.13.65.18.99.18.86.02,1.73-.02,2.59-.04.24.08.48.16.71.24.64,1.68,2.1,1.98,3.63,2.16.08,0,.15,0,.22.01.16.08.31.16.47.23,1.82,1.44,4.14,2.22,5.55,4.22.26.36.69.61,1.05.89.12.1.39.15.4.24.07,1.22,1.17,1.59,1.82,2.33.63.71,1.06,1.58,1.62,2.35.4.56,1.13.96.73,1.85-.04.08.35.33.5.53.68.9,1.34,1.8,2.01,2.71.13,1.03.45,1.83,1.21,2.74,1.12,1.33,2.54,2,3.86,2.93.1.07.23.11.29.2.46.63.82,1.36,1.38,1.87.7.63,1.59,1.06,2.36,1.62.51.37.98.81,1.41,1.27.5.54.98,1.12,1.4,1.73.69.98,1.33,2,1.99,3Zm-15.82-9.89c-.36,1.4.92,1.86,1.34,2.68.2.39,1.18.38,1.8.55.03-.1.06-.2.09-.3-.4-.47-.8-.94-1.13-1.32.14-.43.26-.78.38-1.13-.09-.04-.19-.09-.28-.13-.25.22-.51.43-.78.67-.46-.33-.87-.62-1.41-1.02Z"/>
          <path class="cls-6" d="m160.04,26.87c.2-.08.45-.28.6-.23.46.18.88.45,1.32.69.08.16.16.33.23.49-.86,0-1.77.12-2.15-.96Z"/>
          <path class="cls-6" d="m163.63,29.71c.73-.55.15-1.09-.02-1.63.4.39.81.78,1.21,1.17-.27.23-.53.48-.82.68-.05.03-.24-.14-.37-.22Z"/>
          <path class="cls-6" d="m163.16,28.08c-.17-.08-.34-.15-.51-.23.17.08.34.15.51.23Z"/>
          <path class="cls-6" d="m184.08,59.96v2.57c.1,0,.19,0,.29,0-.2.26-.42.51-.58.79-.15.26-.22.57-.43,1.11-.99-1.57-2.37-2.6-2.52-4.43-.04-.53-.39-1.1-.74-1.54-.64-.8.05-1.31.31-1.9.62-1.37,1.34-1.42,2.67-.9,1.02.4,1.31.97,1.34,1.84-.41.31-.79.6-1.17.89.15.17.3.34.44.51.71-.68,1.41-1.36,2.14-2.05.04.16.11.44.18.72.06-.06.12-.12.19-.19.49.48.97.96,1.43,1.41q-1.33,1.93-3.55,1.17Z"/>
          <path class="cls-9" d="m184.74,49.64c-.04-.23-.1-.47-.11-.7,0-.29,0-.6.09-.87.02-.06.57-.07.63.03.16.27.25.63.23.95,0,.2-.24.4-.37.6-.16,0-.32,0-.48,0Z"/>
          <path class="cls-13" d="m240.66,119.66c.11.11.23.21.34.32-.19.07-.39.13-.58.2.08-.17.16-.34.24-.52Z"/>
          <path class="cls-13" d="m237.24,120.58c.09-.14.17-.28.26-.43.15,0,.3-.02.44-.03-.23.15-.47.3-.7.45Z"/>
          <path class="cls-12" d="m222.16,64.75c-1.33-.1-3.85-1.83-4.13-2.87-.33.04-.67.08-1.2.15.17-.57.3-1.03.47-1.6-.85-.28-1.7-.56-2.67-.88-.06-.2-.16-.53-.28-.92-.66-.14-1.35-.29-2.14-.45.11-.92-.99-1.77-.12-2.77.04,0,.09,0,.12.02,1.32.95,2.7,1.83,3.94,2.88,1.81,1.52,3.54,3.14,5.23,4.79.41.4.53,1.1.78,1.67Z"/>
          <path class="cls-10" d="m231.27,82.5c-1.7-.03-2.97-1.07-3.72-2.52-.68-1.3-1.6-2.51-2.59-3.61-.77-.86-.79-1.47.28-2.37.63.95,1.19,1.9,1.86,2.78.7.91,1.5,1.74,2.26,2.61.4.48.8.96,1.2,1.44.01.22-.03.47.06.65.18.36.43.69.65,1.04Z"/>
          <path class="cls-12" d="m226.72,73.86c-.24-.15-.68-.31-.68-.44.07-1.84-.93-3.05-2.18-4.23-1.23-1.17-1.79-2.7-1.7-4.43.16.1.44.17.47.3.38,1.75,1.54,3.03,2.55,4.4.14.19.22.49.4.57,1.97.82.96,2.5,1.13,3.84Z"/>
          <path class="cls-12" d="m236.77,79.85c-.38-.43-.79-.84-1.14-1.29-.11-.15-.16-.56-.1-.59.21-.11.55-.23.72-.14.75.42.9,1.11.88,1.84-.12.06-.24.12-.36.17Z"/>
          <path class="cls-6" d="m250.2,93.79c-.63-.49-1.27-.97-1.9-1.46.63.49,1.27.97,1.9,1.46Z"/>
          <path class="cls-6" d="m248.3,92.33c-.17-.15-.33-.3-.5-.45.17.15.33.3.5.45Z"/>
          <path class="cls-6" d="m161.49,23.08c-.3.21-.59.56-.91.6-.86.11-1.22.53-1.14,1.39-.92.3-2.53-.4-2.29,1.55-1.3.12-2.61.25-3.73.36-.82-.64-1.52-1.18-2.28-1.77.99-1.24,2.35-1.3,3.61-1.46,2.24-.28,4.49-.45,6.74-.67Z"/>
          <path class="cls-6" d="m158.84,26.62c.24.08.48.16.72.23-.24-.08-.48-.16-.72-.23Z"/>
          <path class="cls-4" d="m213.88,110.09c.41.6.6.88.85,1.25-.4.14-.71.25-1.25.45.14-.58.23-.98.4-1.7Z"/>
          <path class="cls-6" d="m177.31,21.31c-.86.02-1.73.05-2.59.04-.34,0-.84-.32-.99-.18-1.15,1.06-2.58.22-3.83.6-.33.1-.82-.29-1.23-.46.98-.3,1.95-.79,2.95-.87,1.94-.15,3.91-.15,5.69.87Z"/>
          <path class="cls-6" d="m181.65,23.71c-1.53-.18-2.99-.48-3.63-2.16.1-.06.24-.2.28-.18,1.12.77,2.23,1.55,3.35,2.34Z"/>
          <path class="cls-6" d="m167.46,21.57c-.35.92-.94.98-1.68.45.56-.15,1.12-.3,1.68-.45Z"/>
          <path class="cls-6" d="m168.2,21.31c-.25.09-.49.17-.74.26.25-.09.49-.17.74-.26Z"/>
          <path class="cls-6" d="m182.35,23.95c-.16-.08-.31-.16-.47-.23.16.08.31.16.47.23Z"/>
          <path class="cls-6" d="m164.34,22.77c-.06.13-.11.26-.17.38-.1-.13-.19-.26-.29-.38.15,0,.3,0,.45,0Z"/>
          <path class="cls-6" d="m164.82,22.28c-.16.16-.32.32-.48.48.16-.16.32-.32.48-.48Z"/>
          <path class="cls-4" d="m244.76,114.31c-.07-.03-.17-.04-.19-.09-.02-.05.05-.13.08-.2.07.03.17.04.19.09.02.05-.05.13-.08.2Z"/>
          <path class="cls-13" d="m254.3,101.67c.89-.04,1.06.62,1.21,1.27.11.45.17.9.25,1.36-.86.1-.89-.51-1-1.11-.1-.52-.3-1.01-.46-1.52Z"/>
          <path class="cls-10" d="m194.25,77.82c-.7-.43-1.13-.69-1.56-.95.25-.31.49-.61.89-1.1.25.76.4,1.22.67,2.06Z"/>
          <path class="cls-10" d="m209.08,70c-.3.2-.49.37-.71.45-.05.02-.32-.32-.3-.35.15-.19.33-.37.54-.49.05-.03.24.2.47.4Z"/>
          <path class="cls-9" d="m184.27,47.29c-.19-.2-.34-.3-.37-.42-.02-.08.14-.2.22-.31.11.09.27.15.31.27.03.09-.08.24-.17.46Z"/>
          <path class="cls-10" d="m231.28,82.47l.62.16c-.03.09-.06.18-.1.28-.2-.08-.39-.16-.59-.24.02-.06.05-.13.07-.19Z"/>
          <path class="cls-12" d="m189.04,61.4c-.14.09-.22.19-.3.19-.07,0-.14-.1-.21-.16.08-.07.15-.18.23-.2.06-.02.15.09.28.17Z"/>
          <path class="cls-12" d="m189.36,63.71c-.07-.03-.17-.04-.19-.09-.02-.05.05-.13.07-.2.07.03.17.04.19.09.02.05-.05.13-.07.2Z"/>
          <path class="cls-10" d="m212.47,76.2c-.03.07-.04.17-.09.19-.05.02-.13-.05-.19-.08.03-.07.04-.17.09-.19.05-.02.13.05.2.08Z"/>
          <path class="cls-10" d="m202.12,74.61c.2-.18.31-.29.42-.39-.02.11-.03.23-.08.32-.02.04-.13.03-.34.07Z"/>
          <path class="cls-10" d="m213.19,75.85c-.07.03-.15.09-.2.07-.05-.02-.06-.12-.08-.19.07-.03.15-.09.2-.07.05.02.06.12.08.19Z"/>
          <path class="cls-11" d="m206.81,87.81c-.45-.31-.91-.62-1.36-.93l.16-.33c.5.24.99.49,1.49.73-.1.18-.19.35-.29.53Z"/>
          <path class="cls-11" d="m212.37,81.37l.72-.23c.04.14.08.28.11.42-.24.06-.49.13-.73.19-.04-.13-.07-.25-.11-.38Z"/>
          <path class="cls-4" d="m207.9,92.88c.23.01.46.03.69.04,0,.09,0,.19-.01.28-.23-.01-.46-.02-.7-.03,0-.09.01-.19.02-.28Z"/>
          <path class="cls-11" d="m221.44,77.91c.2.05.41.1.61.16-.03.09-.06.19-.09.28-.2-.08-.4-.16-.6-.24.02-.06.05-.13.07-.19Z"/>
          <path class="cls-11" d="m194.31,80.45c.18.2.29.31.39.42-.11-.02-.23-.03-.32-.08-.04-.02-.03-.13-.07-.34Z"/>
          <path class="cls-11" d="m194.81,81.78c.1-.12.19-.24.29-.36.03.03.05.05.08.08-.12.1-.24.19-.36.29,0,0,0,0,0,0Z"/>
          <path class="cls-4" d="m231.03,75.3h-.48c0-.16,0-.32,0-.48l.48.48Z"/>
          <path class="cls-11" d="m194.11,44.54c.55.4.95.69,1.41,1.02.27-.23.53-.45.78-.67.09.04.19.09.28.13-.12.35-.24.7-.38,1.13.32.38.73.85,1.13,1.32-.03.1-.06.2-.09.3-.63-.17-1.61-.16-1.8-.55-.42-.82-1.7-1.28-1.34-2.68Z"/>
        </g>
      </g>
    </g>
  </g>
</svg>