<?xml version="1.0" encoding="UTF-8"?>
<svg xmlns="http://www.w3.org/2000/svg" xmlns:xlink="http://www.w3.org/1999/xlink" viewBox="0 0 360 258.1">
  <defs>
    <style>
      .cls-1 {
        fill: #2a2b2d;
      }

      .cls-1, .cls-2, .cls-3, .cls-4, .cls-5, .cls-6, .cls-7, .cls-8, .cls-9, .cls-10, .cls-11 {
        stroke-width: 0px;
      }

      .cls-12 {
        stroke: #292929;
        stroke-miterlimit: 10;
        stroke-width: .25px;
      }

      .cls-12, .cls-7 {
        fill: #3d3d3d;
      }

      .cls-13 {
        isolation: isolate;
      }

      .cls-3 {
        fill: #171b25;
      }

      .cls-4 {
        fill: none;
      }

      .cls-5 {
        fill: #0c0a0b;
      }

      .cls-6 {
        fill: #848187;
      }

      .cls-14 {
        clip-path: url(#clippath);
      }

      .cls-8 {
        fill: #12161e;
      }

      .cls-9 {
        fill: #0f0f13;
      }

      .cls-10, .cls-15 {
        fill: #121215;
      }

      .cls-11 {
        fill: #483e4d;
      }

      .cls-16 {
        mix-blend-mode: darken;
        opacity: .5;
      }

      .cls-15 {
        stroke: #525252;
        stroke-linejoin: round;
      }
    </style>
    <clipPath id="clippath">
      <path class="cls-4" d="m268.31,124.33s.01-.02.01-.02c.04-.11.08-.21.12-.32,1.83-2.4,3.66-4.81,5.49-7.21.14-.14.29-.27.43-.41,1.4-1.46,2.62-3.19,4.25-4.32,1.66-1.14,2.71-2.36,2.77-4.37.06-.16.12-.33.19-.49h0c.42-.67.25-1.82,1.54-1.7-.24-.47-.42-.83-.6-1.19.59.15,1.32.14,1.76.49,1.24.97,2.36,2.09,3.52,3.15.2.82.71,1.01,1.34.85.16-.54.28-.95.4-1.36.64.94,1.45.13,2.17.21,1.73.94,3.14,2.5,5.25,2.71.33.31.66.61.99.92.48.39.95.78,1.43,1.17.15.1.29.2.44.3.33.31.66.62,1,.93,0,0,.01.01.01.01.08.07.16.15.23.22h.01c1.07,1.05,2.16,2.06,3.21,3.12,1.19,1.21,2.6,2.31,3.44,3.74,2.05,3.52,3.82,7.21,5.71,10.83.53,1.01,1.07,2.01,1.61,3.02.19.31.38.62.58.93.18.24.36.47.54.71.71,1.28,1.42,2.56,2.13,3.84,1.14,1.83,2.28,3.65,3.42,5.48.46.32.9.84,1.37.87.29.02.63-.72.95-1.11-.4-1.07-.8-2.14-1.21-3.21-.46-.83-.92-1.66-1.45-2.61,1.17-.06,1.88.21,2.31,1.14.19.42.53.76.8,1.14.09.16.17.31.26.47.35.62.71,1.24,1.06,1.85.83,1.83,2.32,3.07,3.82,4.3.39.25.78.5,1.17.75.27.03.69.18.79.07.95-1.16,2.32-.97,3.57-1.19.32-.06.67-.09.95-.24.86-.46,1.69-.97,2.62-1.52-.18-1.27-.48-2.56-1.48-3.57-.32-.47-.63-.93-.95-1.4-.87-1.28-1.71-2.58-2.61-3.83-1.25-1.73-2.54-3.43-3.82-5.15-.17-.24-.35-.49-.52-.73-.15-.22-.3-.44-.45-.65-.09-.25-.18-.5-.26-.75.63.18,1.26.36,1.89.53.09.07.19.14.28.2h.02c.15.11.29.2.44.3.15.15.31.3.46.46,1.39.86,2.77,1.71,4.16,2.57.13-.12.25-.23.38-.35-.16-1.98-.57-3.88-1.87-5.52-.15-.11-.31-.22-.46-.32l1.19-.28c.94.85,1.87,1.72,2.84,2.53.31.25.77.32,1.24.51-.01-3.2-1.31-5.53-3.18-7.66-.87-.99-1.59-2.12-2.37-3.19-1.04-1.43-2-2.94-3.13-4.3-1.16-1.4-2.55-2.61-3.72-4.01-1.88-2.26-3.65-4.6-5.46-6.91-.15-.2-.23-.46-.35-.69-.05-.4-.09-.8-.16-1.2-.06-.31-.17-.61-.26-.92.28.05.55.1.83.14.28.14.57.29,1.17.6-.32-.85-.78-1.43-.65-1.81.39-1.15-.22-1.89-.78-2.69-.06-.27-.12-.55-.18-.82,1.22-.44.48-1.38.22-1.8-1.52-2.56-3.13-5.08-4.8-7.54-.62-.91-1.72-1.54-2.18-2.5-1.38-2.89-3.6-5.08-5.7-7.38-.09-.15-.19-.29-.28-.44-.06-.09-.12-.19-.18-.28l-.26-.23h0c-.25-.21-.51-.43-.76-.65-.26-.33-.52-.66-.78-.98-.29-.4-.59-.81-.88-1.21-.32-.28-.69-.53-.96-.85-1.11-1.3-2.15-2.65-3.28-3.94-1.64-1.87-3.3-3.72-4.99-5.54-1.87-2.01-3.78-3.98-5.67-5.97l-.2-.2c-.09-.1-.19-.19-.28-.29-.07-.07-.13-.14-.2-.21-.08-.09-.17-.18-.25-.26-.08-.08-.15-.15-.23-.23,0,0-.01-.01-.01-.01-.08-.08-.15-.15-.23-.23-.38-.34-.76-.67-1.13-1.01-.18-.16-.35-.31-.53-.47h0c-.09-.07-.17-.14-.26-.21h-.01c-.08-.07-.15-.13-.23-.19-.04-.06-.1-.09-.18-.09-.09-.09-.18-.17-.27-.26h.01c-.25-.22-.5-.45-.76-.68-.09-.08-.17-.15-.26-.23-.07-.06-.15-.12-.22-.18-.48-.34-.96-.68-1.44-1.02-.08-.06-.16-.11-.24-.17-.05-.07-.12-.1-.2-.09-2.01-1.36-4.01-2.72-6.02-4.07,0,0,0,0,0,0-.08-.06-.17-.13-.25-.19-.41-.33-.82-.65-1.23-.98-.07-.06-.14-.11-.21-.17-.15-.11-.31-.22-.46-.33-.09-.07-.17-.14-.26-.21-.06-.09-.13-.1-.21-.04,0,0,0,0,0,0-.21-.21-.41-.46-.64-.64-3.1-2.34-6.21-4.67-9.31-7.02-.71-.54-1.39-1.13-2.08-1.7-1.85-1.54-3.71-3.09-5.56-4.64-.02-.04-.04-.07-.08-.09-.13-.13-.27-.26-.4-.4l-.08-.07-.83-.69c-.05-.07-.12-.1-.2-.1-.09-.06-.18-.13-.26-.19-.78-.73-1.69-1.35-2.3-2.2-1.11-1.53-1.97-3.24-3.06-4.79-1.23-1.75-2.48-3.51-3.93-5.08-2.58-2.78-5.31-5.42-7.98-8.12-.07-.09-.14-.18-.21-.27,0,0,0,.01,0,.01-.09-.08-.18-.16-.27-.24l-.61-.43h0c-.75-.58-1.49-1.15-2.24-1.73-.09-.07-.19-.15-.28-.22h0c-.08-.07-.17-.14-.25-.21,0,0-.03-.02-.03-.02-.07-.06-.14-.11-.2-.17-.05-.07-.12-.11-.21-.1-4.5-4.06-9.73-5.35-15.48-3.56-3.27,1.02-6.52,1.32-9.86,1.14-3.57-.19-7.06,0-10.46,1.27-2.72,1.01-5.38,2.02-6.76,5.01.38.08.71.16,1.05.23.66.24,1.32.48,1.99.72,2.51.89,5.29.97,7.58,2.53.41.11.82.23,1.23.34l.48.2c.96.31,1.93.62,2.89.93.2.04.39.09.59.13.52.31,1.02.65,1.56.92,1.33.67,2.74,1.21,3.99,2,1.45.92,2.75,2.07,4.12,3.11.08.06.16.11.23.17.09.09.19.18.28.28.06.06.12.12.18.18.19.26.38.52.57.78.12.15.24.3.36.45.29.51.61,1.01.86,1.54.72,1.47,1.41,2.95,2.12,4.42.38.65.75,1.3,1.13,1.95.18.44.45.86.54,1.32.71,3.65,1.54,7.29,2.02,10.97.65,4.98,1.12,9.98,2.11,14.91.3,1.46.89,2.87,1.43,4.27.56,1.47,1.27,2.89,1.83,4.37.47,1.23.82,2.51,1.22,3.77,1.66,2.95,3.32,5.9,4.98,8.85.26.33.52.65.78.98.1.16.21.31.31.47.61.77,1.2,1.55,1.83,2.3,1.03,1.23,2.09,2.45,3.13,3.67,1.11,1.37,2.22,2.73,3.33,4.1.3.42.57.86.91,1.24,2.69,2.96,5.43,5.91,8.8,8.1,2.49,1.62,5.22,2.86,7.85,4.27,1.2.24,2.4.48,3.6.72.24,0,.48,0,.71,0,.1-.07.19-.13.29-.2m0,0c.14.01.28.02.42.04.24.06.49.12.73.18,1.54,0,1.57.04,1.43,1.66-.79,1.11-1.57,2.23-2.38,3.32-.28.38-.64.71-.96,1.07-2.3,2.58-4.56,5.17-7.51,7.08-2.02,1.3-4.17,1.24-6.32.89-1.98-.33-3.9-.99-5.85-1.51-.32-.01-.63-.02-.95-.03-1.36,0-2.72.01-4.08.02-.45.19-.94.31-1.32.59-.63.47-1.18,1.04-1.77,1.56-1.11.81-1.08,1.94-.77,3.16.18-.5.36-1,.54-1.5l3.31-1.99c.75.07.57.57.51,1.05-.09.89,0,1.72,1.1,2.24.03-1.27.64-1.99,1.76-2.27.24,0,.48,0,.72-.01.39.08.79.16.87.17-.05.96-.18,1.73-.08,2.48.03.25.62.43,1.2.79-.24-1.52.17-1.97,1.33-1.62.26.08.73,0,.86-.18.83-1.17,2.11-1.11,3.24-1.04,2.72.17,5.43.53,7.91.79.39.51.63,1.12,1.08,1.37.75.42,1.62.63,2.44.9,1.43.47,2.34.25,2.83-.68m4.17-9.72c-1.11,1.38-2.19,2.8-3.34,4.14-.95,1.11-1.97,2.17-3.02,3.2-.98.97-2.06.8-3.39-.03,1.85-2.15,3.66-4.24,5.46-6.32.41-.47.81-.95,1.22-1.43,1.12-1.07,2.24-2.14,3.36-3.21.43.03.85.06,1.49.1-.12.59-.23,1.12-.34,1.65-.08.13-.16.27-.24.4-.07.1-.13.21-.2.31h0c-.33.4-.65.78-.98,1.17,0,0,0,0,0,0m57.85,24.78c-.16-.03-.32-.05-.48-.08-.39-.28-.88-.5-1.16-.87-.54-.7-.96-1.49-1.49-2.35.42-.03.82-.07,1.21-.1.45.47.91.95,1.36,1.42.27.65.54,1.29.81,1.94-.09.01-.17.02-.26.03Z"/>
    </clipPath>
  </defs>
  <g class="cls-13">
    <g id="Birds">
      <g id="Bird_1_-_Fastest" data-name="Bird 1 - Fastest">
        <g>
          <path class="cls-15" d="m268.31,124.33s.01-.02.01-.02c.04-.11.08-.21.12-.32,1.83-2.4,3.66-4.81,5.49-7.21.14-.14.29-.27.43-.41,1.4-1.46,2.62-3.19,4.25-4.32,1.66-1.14,2.71-2.36,2.77-4.37.06-.16.12-.33.19-.49h0c.42-.67.25-1.82,1.54-1.7-.24-.47-.42-.83-.6-1.19.59.15,1.32.14,1.76.49,1.24.97,2.36,2.09,3.52,3.15.2.82.71,1.01,1.34.85.16-.54.28-.95.4-1.36.64.94,1.45.13,2.17.21,1.73.94,3.14,2.5,5.25,2.71.33.31.66.61.99.92.48.39.95.78,1.43,1.17.15.1.29.2.44.3.33.31.66.62,1,.93,0,0,.01.01.01.01.08.07.16.15.23.22h.01c1.07,1.05,2.16,2.06,3.21,3.12,1.19,1.21,2.6,2.31,3.44,3.74,2.05,3.52,3.82,7.21,5.71,10.83.53,1.01,1.07,2.01,1.61,3.02.19.31.38.62.58.93.18.24.36.47.54.71.71,1.28,1.42,2.56,2.13,3.84,1.14,1.83,2.28,3.65,3.42,5.48.46.32.9.84,1.37.87.29.02.63-.72.95-1.11-.4-1.07-.8-2.14-1.21-3.21-.46-.83-.92-1.66-1.45-2.61,1.17-.06,1.88.21,2.31,1.14.19.42.53.76.8,1.14.09.16.17.31.26.47.35.62.71,1.24,1.06,1.85.83,1.83,2.32,3.07,3.82,4.3.39.25.78.5,1.17.75.27.03.69.18.79.07.95-1.16,2.32-.97,3.57-1.19.32-.06.67-.09.95-.24.86-.46,1.69-.97,2.62-1.52-.18-1.27-.48-2.56-1.48-3.57-.32-.47-.63-.93-.95-1.4-.87-1.28-1.71-2.58-2.61-3.83-1.25-1.73-2.54-3.43-3.82-5.15-.17-.24-.35-.49-.52-.73-.15-.22-.3-.44-.45-.65-.09-.25-.18-.5-.26-.75.63.18,1.26.36,1.89.53.09.07.19.14.28.2h.02c.15.11.29.2.44.3.15.15.31.3.46.46,1.39.86,2.77,1.71,4.16,2.57.13-.12.25-.23.38-.35-.16-1.98-.57-3.88-1.87-5.52-.15-.11-.31-.22-.46-.32l1.19-.28c.94.85,1.87,1.72,2.84,2.53.31.25.77.32,1.24.51-.01-3.2-1.31-5.53-3.18-7.66-.87-.99-1.59-2.12-2.37-3.19-1.04-1.43-2-2.94-3.13-4.3-1.16-1.4-2.55-2.61-3.72-4.01-1.88-2.26-3.65-4.6-5.46-6.91-.15-.2-.23-.46-.35-.69-.05-.4-.09-.8-.16-1.2-.06-.31-.17-.61-.26-.92.28.05.55.1.83.14.28.14.57.29,1.17.6-.32-.85-.78-1.43-.65-1.81.39-1.15-.22-1.89-.78-2.69-.06-.27-.12-.55-.18-.82,1.22-.44.48-1.38.22-1.8-1.52-2.56-3.13-5.08-4.8-7.54-.62-.91-1.72-1.54-2.18-2.5-1.38-2.89-3.6-5.08-5.7-7.38-.09-.15-.19-.29-.28-.44-.06-.09-.12-.19-.18-.28l-.26-.23h0c-.25-.21-.51-.43-.76-.65-.26-.33-.52-.66-.78-.98-.29-.4-.59-.81-.88-1.21-.32-.28-.69-.53-.96-.85-1.11-1.3-2.15-2.65-3.28-3.94-1.64-1.87-3.3-3.72-4.99-5.54-1.87-2.01-3.78-3.98-5.67-5.97l-.2-.2c-.09-.1-.19-.19-.28-.29-.07-.07-.13-.14-.2-.21-.08-.09-.17-.18-.25-.26-.08-.08-.15-.15-.23-.23,0,0-.01-.01-.01-.01-.08-.08-.15-.15-.23-.23-.38-.34-.76-.67-1.13-1.01-.18-.16-.35-.31-.53-.47h0c-.09-.07-.17-.14-.26-.21h-.01c-.08-.07-.15-.13-.23-.19-.04-.06-.1-.09-.18-.09-.09-.09-.18-.17-.27-.26h.01c-.25-.22-.5-.45-.76-.68-.09-.08-.17-.15-.26-.23-.07-.06-.15-.12-.22-.18-.48-.34-.96-.68-1.44-1.02-.08-.06-.16-.11-.24-.17-.05-.07-.12-.1-.2-.09-2.01-1.36-4.01-2.72-6.02-4.07,0,0,0,0,0,0-.08-.06-.17-.13-.25-.19-.41-.33-.82-.65-1.23-.98-.07-.06-.14-.11-.21-.17-.15-.11-.31-.22-.46-.33-.09-.07-.17-.14-.26-.21-.06-.09-.13-.1-.21-.04,0,0,0,0,0,0-.21-.21-.41-.46-.64-.64-3.1-2.34-6.21-4.67-9.31-7.02-.71-.54-1.39-1.13-2.08-1.7-1.85-1.54-3.71-3.09-5.56-4.64-.02-.04-.04-.07-.08-.09-.13-.13-.27-.26-.4-.4l-.08-.07-.83-.69c-.05-.07-.12-.1-.2-.1-.09-.06-.18-.13-.26-.19-.78-.73-1.69-1.35-2.3-2.2-1.11-1.53-1.97-3.24-3.06-4.79-1.23-1.75-2.48-3.51-3.93-5.08-2.58-2.78-5.31-5.42-7.98-8.12-.07-.09-.14-.18-.21-.27,0,0,0,.01,0,.01-.09-.08-.18-.16-.27-.24l-.61-.43h0c-.75-.58-1.49-1.15-2.24-1.73-.09-.07-.19-.15-.28-.22h0c-.08-.07-.17-.14-.25-.21,0,0-.03-.02-.03-.02-.07-.06-.14-.11-.2-.17-.05-.07-.12-.11-.21-.1-4.5-4.06-9.73-5.35-15.48-3.56-3.27,1.02-6.52,1.32-9.86,1.14-3.57-.19-7.06,0-10.46,1.27-2.72,1.01-5.38,2.02-6.76,5.01.38.08.71.16,1.05.23.66.24,1.32.48,1.99.72,2.51.89,5.29.97,7.58,2.53.41.11.82.23,1.23.34l.48.2c.96.31,1.93.62,2.89.93.2.04.39.09.59.13.52.31,1.02.65,1.56.92,1.33.67,2.74,1.21,3.99,2,1.45.92,2.75,2.07,4.12,3.11.08.06.16.11.23.17.09.09.19.18.28.28.06.06.12.12.18.18.19.26.38.52.57.78.12.15.24.3.36.45.29.51.61,1.01.86,1.54.72,1.47,1.41,2.95,2.12,4.42.38.65.75,1.3,1.13,1.95.18.44.45.86.54,1.32.71,3.65,1.54,7.29,2.02,10.97.65,4.98,1.12,9.98,2.11,14.91.3,1.46.89,2.87,1.43,4.27.56,1.47,1.27,2.89,1.83,4.37.47,1.23.82,2.51,1.22,3.77,1.66,2.95,3.32,5.9,4.98,8.85.26.33.52.65.78.98.1.16.21.31.31.47.61.77,1.2,1.55,1.83,2.3,1.03,1.23,2.09,2.45,3.13,3.67,1.11,1.37,2.22,2.73,3.33,4.1.3.42.57.86.91,1.24,2.69,2.96,5.43,5.91,8.8,8.1,2.49,1.62,5.22,2.86,7.85,4.27,1.2.24,2.4.48,3.6.72.24,0,.48,0,.71,0,.1-.07.19-.13.29-.2m0,0c.14.01.28.02.42.04.24.06.49.12.73.18,1.54,0,1.57.04,1.43,1.66-.79,1.11-1.57,2.23-2.38,3.32-.28.38-.64.71-.96,1.07-2.3,2.58-4.56,5.17-7.51,7.08-2.02,1.3-4.17,1.24-6.32.89-1.98-.33-3.9-.99-5.85-1.51-.32-.01-.63-.02-.95-.03-1.36,0-2.72.01-4.08.02-.45.19-.94.31-1.32.59-.63.47-1.18,1.04-1.77,1.56-1.11.81-1.08,1.94-.77,3.16.18-.5.36-1,.54-1.5l3.31-1.99c.75.07.57.57.51,1.05-.09.89,0,1.72,1.1,2.24.03-1.27.64-1.99,1.76-2.27.24,0,.48,0,.72-.01.39.08.79.16.87.17-.05.96-.18,1.73-.08,2.48.03.25.62.43,1.2.79-.24-1.52.17-1.97,1.33-1.62.26.08.73,0,.86-.18.83-1.17,2.11-1.11,3.24-1.04,2.72.17,5.43.53,7.91.79.39.51.63,1.12,1.08,1.37.75.42,1.62.63,2.44.9,1.43.47,2.34.25,2.83-.68m4.17-9.72c-1.11,1.38-2.19,2.8-3.34,4.14-.95,1.11-1.97,2.17-3.02,3.2-.98.97-2.06.8-3.39-.03,1.85-2.15,3.66-4.24,5.46-6.32.41-.47.81-.95,1.22-1.43,1.12-1.07,2.24-2.14,3.36-3.21.43.03.85.06,1.49.1-.12.59-.23,1.12-.34,1.65-.08.13-.16.27-.24.4-.07.1-.13.21-.2.31h0c-.33.4-.65.78-.98,1.17,0,0,0,0,0,0m57.85,24.78c-.16-.03-.32-.05-.48-.08-.39-.28-.88-.5-1.16-.87-.54-.7-.96-1.49-1.49-2.35.42-.03.82-.07,1.21-.1.45.47.91.95,1.36,1.42.27.65.54,1.29.81,1.94-.09.01-.17.02-.26.03Z"/>
          <g class="cls-14">
            <g>
              <path class="cls-7" d="m218.14,13.37c.17-.52.08-1.17.05-1.74-.07-1.48-.22-2.91-.71-4.33-.68-1.97-2.28-3.81-3.99-4.94s-3.43-1.47-5.46-1.53c-2.84-.09-5.67.61-8.46,1-2.24.31-4.55.89-6.66,1.67-1.06.39-2.12.79-3.15,1.26-.95.44-1.96.73-2.76,1.43-1.16,1.01-1.09,2.57-.81,3.97.33,1.66,1.17,3.76,2.37,4.98.5.51,1.07,1.01,1.63,1.45s1.23.5,1.78.9c.31.23.55.57.84.77.69.49,1.51.37,2.3.31,1.41-.11,2.77-.09,4.13-.52,1.54-.48,2.99-.9,4.53-1.31,1.38-.37,1.98.42,3.21.93,1.05.44,1.92.4,3.05.29,1.54-.15,2.95,0,4.38-.75.92-.48,1.65-1.2,2.36-1.93.37-.38.6-.86.98-1.22.19-.19.37-.19.45-.45-.06-.05-.11-.11-.05-.28Z"/>
              <path class="cls-2" d="m218.14,13.37c-4.44-1.25-8.9-2.33-13.49-2.9-3.42-.38-6.81-1.29-10.23-.71-1.11.25-2.19.69-3.3,1.03,3.09-1.76,6.71-2.24,10.2-1.7,5.78.49,11.57,1.7,16.81,4.28h0Z"/>
            </g>
            <g>
              <path class="cls-12" d="m272.61,112.61c1.48-1.69.91-1.07,2.31-2.67,2.49-2.83,2.63-2.88,2.92-3.54.5-1.11.55-2.01,1.41-2.51.52-.3,1.07-.29,1.35-.29,0,0,1.29.01,2.35.93,1.36,1.19,1.32,3.27,1.29,4.24-.08,2.48-1.06,5.14-5.95,11.67-3.34,4.46-5.06,6.71-7.17,7.65-2.52,1.12-2.92-.21-9.13.35-4.57.41-6.26,1.23-7.78,0-1.31-1.06-1.96-3.23-1.22-4.76.83-1.71,3.12-2.04,3.7-2.12.92-.13,1,.08,4.56.35,1.59.12,2.11.12,2.73-.13,1.13-.46,1.69-1.41,2.15-2.12.84-1.28.09.18,6.46-7.07Z"/>
              <path class="cls-12" d="m270.26,106.24c1.55-.02,2.38-.21,4.05-.58,1.23-.27,1.87-.52,2.44-1,.63-.53,1.25-1.19,1.25-1.19.57-.6.71-.85,1.06-.9.5-.07,1.09.31,1.25.8.11.32,0,.6-.19,1.12-.93,2.46-.95,2.59-1.25,3.05-.22.33-.49.74-.96,1.19-.69.65-1.26.87-2.51,1.48-.58.28-1.42.7-2.44,1.25-.19.39-.49.94-.9,1.57-.66,1.02-1.26,1.68-2.15,2.64-3.1,3.33-2.75,2.79-3.25,3.44-.35.47-1.43,1.94-2.41,2.57-.62.4-1.29.58-1.29.58-.19.05-.42.1-.71.13-1.27.13-3.55-.14-4.34-.22-1.77-.2-2.63-.24-3.63-.16-.52.04-.79.06-1.12.16-1.44.42-2.13,1.6-2.73,2.31-1.59,1.9-4.07,2.38-4.72,2.51-2.43.47-6.1-.23-7.62-2.96-.9-1.61-.92-3.68-.19-5.33.44-1,1.72-3.16,10.16-5.56,6.31-1.79,5.75-.63,9.99-2.12,5.68-2,8.55-4.74,12.21-4.79Z"/>
            </g>
            <path class="cls-2" d="m349.43,139.49c-3.51-1.12-8.71-3.03-14.55-6.26-5.56-3.07-9.41-6.13-17.11-12.26-12.19-9.7-18.28-14.54-18.51-14.81-1.17-1.32-3.65-4.33-7.53-5.11-1.17-.24-1.88-.15-4.09-.51,0,0-2.97-.49-6.13-1.53-5.7-1.89-10.91-7.63-18.64-13.66-5.17-4.03-4.35-2.64-8.3-5.87-8.9-7.28-12.84-14.16-17.23-21.83-1.45-2.54-2.8-5.17-2.81-8.68,0-.35.04-4.51,2.17-7.66,5.25-7.76,21.22-6.49,31.28-3.45,4.14,1.25,7.03,2.81,12.64,5.87,8.05,4.4,17.43,9.52,28.09,18.64,10.26,8.78,16.09,16.46,24.13,27.06,14.81,19.52,23.99,31.96,20.17,43.66-.96,2.95-2.5,5.09-3.57,6.38Z"/>
            <ellipse class="cls-2" cx="223.97" cy="8.99" rx="2.04" ry="2.68" transform="translate(167.31 225.86) rotate(-77.65)"/>
          </g>
        </g>
        <g class="cls-16">
          <path class="cls-8" d="m222.34,31.68c-.38-.65-.75-1.3-1.13-1.95-.16-.88-.33-1.76-.49-2.63,1.21.24,1.28,1.28,1.54,2.19.18.62.31,1.27.63,1.82.14.24.7.42,1,.35.27-.06.45-.5.66-.78.17-.22.28-.56.49-.64.15-.06.45.21.65.37.4.33.76.69,1.15,1.03.48.42.96.82.53,1.57-.11.19-.07.46-.09.69.38-.13.49-.36.67-.54.11-.1.34-.18.47-.14.14.05.33.37.31.39-.55.58.13.79.3,1.17.48,1.07.88,2.18,1.36,3.39,1.27.25,2.68.55,4.17-.42.73-.48,1.92-.42,2.49.41-.46.51-1.01.87-1.17,1.35-.25.77-.25,1.63-.37,2.56,1.68.77,2.29-1.59,3.81-1.32.31,1.21.96.33,1.52.25.49.14.98.18,1.47.13.25-.03.48-.35.71-.34,1.55.08,3.1.21,4.51.31.03.48-.1,1.08.12,1.28.44.39,1.08.57,1.84.93q-.43-1.95.57-2.28c.15.5.3,1.01.45,1.5.59-.17,1.06-.31,1.39-.41.4.45.75.84,1.03,1.14.43-.36.75-.62,1.06-.87l.21.25c-.11.43-.23.85-.43,1.61,1.13-1.12,2.13-1.08,3.19-.68-.51,1.4-.34,1.76.97,1.81-.33-.64-.63-1.22-.97-1.81.61-.4,1.24-.82,1.88-1.26,1.11.89,1.96.36,2.25-1.47-1.82-.29-3.82-1.74-3.58-2.59-1.22.07-2.03-.49-2.48-1.6.65.18,1.31.57,1.93.51.96-.1,1.81.01,2.31.8.5.78.94,1.34,1.96.96.13-.05.43.18.56.35,1.09,1.41,2.46,2.3,4.27,2.42.08,0,.16,0,.24,0,.25.86.48,1.74.77,2.58.07.21.36.46.58.48,1.73.19,2.14.56,2.55,2.45.11-.39.21-.77.32-1.16.2.11.39.22.59.33-.11.44-.22.89-.29,1.19.7,1.14,1.38,2.26,2.08,3.42.28-.14.54-.28.79-.41.29.36.49.71.78.94,1.25.95,2.51,1.82,4.11,2.19.87.2,1.64.86,2.41,1.39.21.14.44.64.35.79-.86,1.42.36,1.45,1.14,1.78-.12,1.46.7,1.9,2.65,1.42.08.17.12.41.25.52.89.74.78,1.46.02,2.22-.16.16-.35.39-.37.59-.1,1.21-.16,2.42-.24,3.63.12.06.24.12.36.17.18-.23.45-.43.53-.69.17-.54.23-1.11.32-1.6.63.84,1.2,1.6,1.9,2.52.02-.05-.09.22-.16.38.43.94,2.63.17,1.86,1.86,1.36,1.49,2.65,2.89,3.91,4.33.18.21.14.6.21.91l-.42.11c-.71-.8-1.39-1.64-2.16-2.39-.27-.26-.76-.28-1.16-.41-.14.65-.37,1.3-.39,1.95,0,.27.45.57.72.83.04.04.21-.08.32-.08.41.02.83.06,1.18.09-.48.51-.79.84-1.21,1.29,1.07-.11,1.84-.19,2.7-.29-.18.45-.29.72-.32.81.93.53,1.78.95,2.57,1.48.79.52,2.14.47,2.01,1.85.93-.46,1.83-.91,2.72-1.36l.15.32c-1.21,1.16-.5,1.62.74,2.11-.04.34-.09.69-.13,1.04-.33.77-.67,1.53-1.13,2.61.76-.44,1.34-.68,1.8-1.06,1.23-1.02,1.26-1.03,1.79.35-.42.18-.85.36-1.27.54.05.13.09.25.14.38.85-.11,1.77-.81,2.47.26.46.7,1.95.22,1.89,1.93-.8-.44-1.44-.78-2.07-1.14-.24-.14-.51-.5-.66-.45-.28.09-.59.37-.71.65-.18.43-.22.93-.31,1.36-.55-.3-1.02-.56-1.5-.82-.05.07-.09.14-.14.2.67.71,1.33,1.43,2.06,2.2.13-.16.38-.47.68-.84.39.29.73.54,1.12.83-1.53,1.75,1.4,1.48,1.02,2.62.51-.08.96-.16,1.41-.23.03.09.06.18.09.27-.27.23-.54.45-1.02.85.84.16,1.47.29,1.81.35.88,1.15,1.62,2.11,2.36,3.08-.08.07-.17.15-.25.22-1.07-.99-2.14-1.98-3.21-2.98-.15.14-.3.27-.45.41.35.54.7,1.07,1.06,1.61-.96-.56-1.92-1.12-2.87-1.68-.32-.4-.64-.8-.96-1.2-.32-.16-.64-.32-.96-.48-.77-.63-1.51-1.29-2.31-1.88-.13-.09-.53.07-.71.23-.09.08-.01.54.11.61,1.29.74,1.32,2.07,1.63,3.37-.98.07-1.61-.4-1.99-1.16-.06-.11.45-.5.68-.74-1.22-.65-2.28-.54-2.7.37-.52,1.12.71.93,1.13,1.37-.96.3-3.73-1.31-4.8-2.91.69.03,1.19.06,1.68.08-.17-.35-.44-.66-.72-.68-1.16-.08-2.34-.02-3.5-.1-.64-.05-.96.06-.98.77-.02.91-.37,1.11-1.21.61-.63-.38-1.24-1.08-2.14-.64.32-.83.38-1.52-.76-1.77-.19-.04-.45-.63-.36-.83.11-.28.58-.67.8-.62.69.17,1.34.53,2,.82.36.64.72,1.28,1.08,1.92.16-.06.32-.12.48-.18-.12-.7-.25-1.4-.39-2.2.43.22.84.52,1.31.63.25.06.72-.12.86-.34.6-.91.23-2.19-.54-1.89-.03.25-.06.53-.11.93-.63-.34-1.62.52-1.73-.8v-.24c.46-.24,1.26-.32.87-1.07-.13-.26-.88-.19-1.35-.27-.21-.04-.51-.02-.61-.15-.13-.17-.14-.47-.15-.71,0-.33.04-.66.07-.99-.21,0-.41,0-.62-.01.04.91.08,1.82.12,2.73-1.29.66-2.57,1.26-3.33-.65-.41.1-.75.19-1.09.28.08.1.16.19.24.29-.42.37-.83.74-1.25,1.1-.12-.09-.23-.19-.35-.28.15-.4.3-.8.47-1.27-1.2-.29-.36-.87-.21-1.38.08-.48.16-.96.24-1.44.24,0,.48,0,.72,0,.24.16.48.32.72.48.22.23.43.45.65.68.1-.23.21-.45.31-.68.06-.41.12-.81.18-1.22-.54-.07-1.08-.15-1.62-.22-.24-.24-.48-.48-.72-.72.06-.2.17-.4.17-.6,0-.2-.11-.4-.17-.6-.16-.24-.32-.48-.48-.72.17-.24.34-.48.58-.82.72.61,1.38,1.17,2.07,1.76.51-.85.09-1.5-.57-1.75-1.33-.49-2.34-1.43-3.44-2.22-.6-.43-.92-.35-.99.25-.09.83-.56,1.15-1.25,1.34-.33-.06-.83-.3-.96-.17-.94.94-1.31.18-1.6-.42-1.26-.12-2.38-.23-3.52-.33-.06-.65-1.45-1.52-2.64-1.59-.26,1.37,2.33.97,1.52,2.95-1.28-.87-2.47-1.68-3.65-2.49-.34-.02-.9.12-1.18-.1-.78-.63-1.42-1.44-2.17-2.13-.57-.52-1.22-.94-1.82-1.44-.38-.32-.73-.68-1.09-1.03.07-.09.15-.19.22-.28-.34-.18-.68-.36-1.02-.54.52-1.32.36-1.67-.94-2.26.13-.32.25-.65.38-.97.31-.12.62-.24.93-.35-.1-.14-.2-.28-.29-.42l-.64.77c-.46-.17-.93-.35-1.39-.52.09-.08.19-.16.28-.24-.19-.44-.37-.88-.56-1.32-.44.5-.88.99-1.32,1.49-.26.15-.71-.06-1.16-.07-.29,0-.59.3-.88.46.28.22.54.55.86.64.26.08.61-.18.92-.17.35.02.7.18.93.25-.47.68-.84,1.2-1.2,1.72.49.04.98.08,1.46.12q-.05.34-1.93,1.15v.72l-.27.19c-.32-.38-.64-.75-.95-1.13.33-.09.68-.16,1-.29.13-.06.21-.26.22-.28-.72-.29-1.44-.47-2.04-.85-.88-.57-1.66-.98-2.28.1-.43-.44-.82-.85-1.3-1.34.3,1.11.52,1.96.83,3.12-.64-.26-.94-.38-1.28-.52.16-.36.27-.63.34-.8-2.19-.03-3.44-1.94-5.36-2.47.82,1.11,1.8,2,2.72,2.95.31.32.44.81.71,1.18.29.39.61,1,.98,1.05,1.23.18,2.01.94,2.15,2.58-.41-.24-.77-.39-1.05-.62-1.84-1.53-3.76-2.97-5.45-4.64-1.73-1.7-3.87-3.18-4.29-5.86,0-.06-.14-.1-.16-.16-.18-.54-.49-1.08-.5-1.63-.04-1.91-1.26-3.14-2.83-2.72-1.34-.37-1.88-1.33-1.92-2.64.51-.13,1.01-.27,1.59-.42.39.26.94.63,1.5.99-.15-.59-.3-1.18-.45-1.77.13-.08.26-.16.38-.23-.05-.05-.1-.1-.15-.15-.08.13-.16.26-.23.38-.47-.34-.93-.69-1.4-1.03.25-.29.55-.54.73-.86.26-.46.44-.97.66-1.46.19-.47.37-.94.56-1.42.11-.05.22-.09.33-.14,1.09,2.32,3.18,3.57,4.97,5.01.63-.12,1.2-.2,1.75-.36.21-.06.38-.3.56-.46,1.85.08,3.76.42,5.24-1.18-.23-.7-.44-1.31-.64-1.93-.1-.01-.19-.03-.29-.04-.22.47-.43.93-.67,1.44-.44-.14-.84-.27-1.5-.48.5-.41.81-.66,1.11-.91-.11-.66-.23-1.31-.35-2.01.4-.12.76-.23,1.12-.34.05-.11.1-.22.15-.34-.87-.6-1.75-1.2-2.62-1.8-.09.1-.17.19-.26.29l.3,2.36c-.08.07-.17.13-.25.2-1.12-1.74-3.34-1.78-4.63-3.27-.11-.12-.45-.1-.67-.07-.99.15-2.05,1.41-2.94-.18-.01-.02-.08-.02-.13-.02-.13.17-.26.35-.3.41-.34-.2-.61-.45-.9-.5-.81-.14-1.21-.6-1.13-1.39.09-.92-.38-1.12-1.14-1.02-.43.06-.85.16-1.27.24-.23-.15-.59-.26-.65-.45-.17-.6-.23-1.23-.36-2.07-1.17.5-2.28.74-3.07,1.39-.72.59-1.08,1.62-1.5,2.3.38,1.1.73,2.12.96,2.81-.92,1.66-2.18,2.01-3.96,1.84.3-.44.55-.74.72-1.07.25-.51.66-1.07.59-1.56-.05-.38-.71-.7-1.13-1-.19-.14-.47-.16-.66-.22.41-.69.77-1.29,1.16-1.95-.67-.23-1.08-.3-1.41-.5-.63-.38-.61-1.12,0-1.52.8-.53.9-1.35.23-2.02-.32-.32-.66-.62-1.01-.96.79-.66,2.16-.15,2.32-1.5-.98-.48-.97-.48-.89-1.55.05-.7-.05-1.22-1-.95-.79.23-1.3-.04-1.68-.87-.26-.57-.94-.94-1.44-1.39Zm65,49.85c.12.04.24.08.36.13.11-.3.22-.6.33-.9-.15-.05-.3-.1-.44-.15-.08.31-.16.62-.18,1.32,0-.14-.01-.28-.02-.43-.28.06-.56.12-.84.18.01.08.02.16.04.24.27,0,.55,0,.76-.39Zm-29.57-18.58c-.19-.03-.38-.07-.57-.1-.73.36-.53,1.05-.4,1.67.02.1.46.1.71.15l.26-1.72Zm34.73,20.18c-.18-.15-.28-.31-.38-.32-.11,0-.23.13-.35.21.1.13.19.3.32.37.05.03.22-.14.41-.27Zm-23.62-9.8c.08-.04.15-.09.23-.13-.12-.23-.25-.47-.37-.7-.08.05-.17.09-.25.14.13.23.26.46.39.69Zm25.16,13.35c-.03.07-.1.15-.08.2.02.05.12.06.19.09.03-.07.1-.15.08-.19-.02-.05-.12-.06-.19-.09Z"/>
          <path class="cls-9" d="m282.84,83.22c-.15.51-.99,1.09.21,1.38-.17.47-.32.87-.47,1.27.12.09.23.19.35.28.42-.37.83-.74,1.25-1.1-.08-.1-.16-.19-.24-.29.34-.09.68-.17,1.09-.28.76,1.92,2.04,1.31,3.33.65.56.16,1.12.32,1.68.48v.24c-.83.16-1.28.49-.7,1.38.06.09-.17.35-.26.54-.66-.29-1.31-.65-2-.82-.22-.05-.69.33-.8.62-.08.21.17.79.36.83,1.14.25,1.08.94.76,1.77.6,1.78,3.68,3.59,5.18,2.84.22.44.65.89.62,1.31-.1,1.5.04,1.75,1.42,2.31.64.26,1.41.59,1.76,1.12.8,1.19,1.16,2.89,3.22,1.91.01,0,.05.06.14.15-.93,2.04,1.26.99,1.84,1.7-.24.25-.44.47-.55.59,1.26.89,2.5,1.69,3.64,2.6.83.66,1.47,1.64,2.83.77-.61,1.3.43,2.53,2.08,2.75.01-.24.03-.47.05-.78,1.53,1.16,2.96,2.25,4.39,3.34,1.04.88,2.08,1.76,3.12,2.64.24.24.48.48.72.72.72.64,1.44,1.28,2.16,1.92,0,.08,0,.16,0,.24,1.38,1.53,2.64,3.14,3.83,4.85.81,1.16,2.19,1.92,3.53,3.04.02-1.94-2.34-2-2.27-3.68.18,0,.37.06.45,0,.63-.53,2.05.49,2.14-1.08.29-.04.58-.08.54-.07.75,1.32,1.28,2.54,2.07,3.55,1.01,1.29,1.19,2.22.31,3.61-.87,1.38-.19,2.65,1.58,2.81-.14-1.04.68-2.1-.13-3.1-.54-.66-.18-.81.4-1.09.3-.14.58-.69.55-1.03-.04-.5-.27-1.04-.58-1.44-.62-.79-.76-1.97-1.94-2.34-.21-.07-.44-.77-.32-1.02.44-.91.31-1.96-.38-2.27-.97-.44-1.08-1.27-1.52-1.95-.14-.22-.25-.55-.45-.64-1-.42-1.67-1.08-1.94-2.16-.05-.19-.37-.5-.44-.47-.74.29-.87-.44-1.28-.66-.87-.44-.34-1.39-.76-1.78-1.25-1.17-2.2-2.49-2.74-4.1-.14-.42-.95-1.15.34-1.21.11.23.19.49.35.69,1.81,2.31,3.58,4.65,5.46,6.91,1.16,1.4,2.56,2.61,3.72,4.01,1.13,1.36,2.09,2.86,3.13,4.3.78,1.07,1.5,2.2,2.37,3.19,1.86,2.12,3.17,4.46,3.18,7.66-.48-.19-.93-.26-1.24-.51-.98-.81-1.9-1.68-2.84-2.53-.44-.1-.88-.19-1.32-.29.04.19.09.38.13.57.15.11.31.22.46.32-.1,1.21-.21,2.43-.33,3.9-.85-.22-1.6-.41-2.34-.6-.15-.15-.31-.3-.46-.46-.15-.1-.29-.19-.44-.29,0,0-.02,0-.02,0-.09-.07-.19-.14-.28-.2-.63-.18-1.26-.36-1.89-.53-.15-.2-.28-.41-.45-.59-.03-.03-.36.16-.35.21.05.24.11.53.28.69.21.2.52.3.79.44.15.22.3.44.45.65-.7.6-1.2.62-1.76-.28-.54-.86-1.28-1.59-1.99-2.32-.59-.61-1.27-1.14-1.88-1.73-.91-.88-1.78-1.8-2.71-2.65-.24-.22-.66-.4-.96-.36-1.08.13-1.5-.69-1.89-1.35-.8-1.32-1.79-2.3-3.33-2.71-.06-.37-.12-.75-.18-1.11-.43.06-.93.28-1.12.12-.54-.43-1.05-.97-1.39-1.57-.34-.6-.65-.87-1.39-.81-.49.04-1.16-.17-1.48-.52-1.52-1.64-2.4-3.97-4.95-4.45-.34-.07-.88-.25-1-.11-.26.31-.35.79-.42,1.21-.07.42-.01.87-.01,1.27-.74-.14-1.26-.23-1.78-.33,0,0-.01-.01-.01-.01-.08-.07-.16-.15-.23-.22,0,0-.01-.01-.01-.01-.33-.31-.66-.62-1-.93-.15-.1-.29-.2-.44-.3-.48-.39-.95-.78-1.43-1.17-.33-.31-.66-.61-.99-.92-.41-.32-.78-.71-1.23-.96-1.88-1.02-3.74-2.05-5-3.87.27.04.53.09.8.12.31.03.74.19.9.04.45-.4.79-.93,1.29-1.55-.8-.24-1.46-.43-2.11-.62.37-1.17-.56-1.9-2.24-1.73.13-1.4-.48-1.5-1.79-1.39-1.41.12-2.93.23-4.32-.64-1.82-1.14-3.79-2.04-5.62-3.17-.81-.5-1.44-1.29-2.29-2.07,1.03-.55,1.77-1.15.99-1.86-1.26-1.15-2.74-2.06-4.1-3.1-.47-.35-.89-.78-1.34-1.16-.52-.44-1.08-1.24-1.57-1.2-.83.06-1.08-.1-1.18-.85-.03-.25-.28-.47-.63-.99-.12.7-.18,1.04-.24,1.39-1.88-.12-2.17-2.82-4.36-2.52.58-2.88-1.91-4.52-2.67-6.96-.2.88.3,2.66-1.48.87-.25.3-.46.55-.75.91.74.36,1.33.64,1.91.92-.42,1.07-.11,1.66.95,2.01.53.17.94.7,1.41,1.07-.08.12-.16.25-.23.37-1.05.28-2.02,0-2.92-.59-1.62-1.06-3.22-2.14-4.82-3.22-.74-.5-1.46-1.02-2.17-1.55-.4-.3-.76-.66-1.13-.99-.07.07-.14.14-.21.2-.83-1.07-1.66-2.15-2.5-3.22-.19-.24-.62-.5-.59-.67.18-.82-.39-.83-.88-.96-.32-.32-.64-.64-.96-.96-.48-.08-.96-.16-1.44-.24-.24-.48-.48-.96-.72-1.44.24-.33.48-.66.71-.99-.13-.11-.26-.21-.39-.32-.27.28-.54.55-.81.83-1.59-.46-2.68-1.38-2.88-3.12.24-.38.48-.76.69-1.08-.73-1.24-1.85-.81-2.85-.84-.07-1.25.62-2.58-.33-3.76-.03-.04.03-.15.03-.22.02-.75.05-1.5.07-2.25,1.56-.42,2.79.82,2.83,2.72.01.55.32,1.09.5,1.63.02.06.15.1.16.16.43,2.68,2.56,4.16,4.29,5.86,1.7,1.67,3.62,3.12,5.45,4.64.28.23.64.38,1.05.62-.15-1.65-.93-2.4-2.15-2.58-.37-.05-.69-.66-.98-1.05-.27-.37-.4-.86-.71-1.18-.92-.95-1.91-1.84-2.72-2.95,1.93.53,3.18,2.43,5.36,2.47-.07.17-.19.43-.34.8.33.14.63.26,1.28.52-.31-1.16-.54-2.01-.83-3.12.48.5.87.9,1.3,1.34.61-1.08,1.39-.67,2.28-.1.59.38,1.32.56,2.04.85-.01.02-.09.22-.22.28-.32.13-.66.2-1,.29.32.38.64.75.95,1.13l.27-.19v-.72q1.88-.81,1.93-1.15c-.49-.04-.98-.08-1.46-.12.36-.52.72-1.04,1.2-1.72-.23-.07-.58-.23-.93-.25-.3-.02-.65.25-.92.17-.32-.09-.57-.42-.86-.64.29-.17.59-.47.88-.46.45,0,.9.22,1.16.07.44-.5.88-.99,1.32-1.49.19.44.37.88.56,1.32-.09.08-.19.16-.28.24.46.17.93.35,1.39.52h0c-.13.32-.25.65-.38.97,1.31.59,1.46.94.94,2.26.34.18.68.36,1.02.54-.07.09-.15.19-.22.28.36.34.71.71,1.09,1.03.6.49,1.25.92,1.82,1.44.75.68,1.38,1.49,2.17,2.13.27.22.84.08,1.18.1,1.18.8,2.37,1.62,3.65,2.49.81-1.98-1.78-1.58-1.52-2.95,1.19.07,2.58.94,2.64,1.59,1.14.11,2.26.21,3.52.33.29.59.66,1.35,1.6.42.13-.13.63.1.96.17-.31.32-.64.54,0,.96.92.59,1.74,1.35,2.61,2.05-1.09.72-1.13.74-.36,1.94.36.56.89,1.02,1.34,1.52Zm32.14,33.1c-.78-.4-1.64-.71-2.33-1.23-1.21-.93-2.28-2.03-3.47-2.99-1.91-1.54-3.86-3.02-5.81-4.51-2.28-1.73-4.56-3.47-6.88-5.15-.72-.53-1.55-.9-2.33-1.34l-.18.35c1.41,1.09,2.82,2.19,4.22,3.28,3.15,2.45,6.31,4.9,9.47,7.34,1.39,1.08,2.81,2.13,4.19,3.22,1.44,1.14,2.84,2.32,4.26,3.48.85.69,1.68,1.42,2.57,2.06.45.33,1.12.81,1.51.68,1.29-.42,1.92.4,2.67,1.09,1.08,1,2.16,1.99,3.24,2.99l.39-.3c-.09-.3-.08-.71-.28-.9-1.48-1.41-2.98-2.8-4.52-4.14-1.92-1.67-3.88-3.29-5.83-4.93-1.99-1.67-3.97-3.36-5.98-5.01-.4-.33-.92-.51-1.39-.77-.07.11-.13.23-.2.34,1.36,1.33,2.71,2.66,4.09,3.97.1.09.35.01.46.1.81.69,1.92,1.12,2.15,2.35h0Zm-16.03-13.46c.95.63,1.71,1.11,2.44,1.64.58.42,1.07.96,1.67,1.36.66.44,1.4.78,2.1,1.16-1.1-1.8-5.19-4.53-6.21-4.16Zm-6.46-5.59c-.08.12-.16.24-.23.36.44,1.09,4.05,3.56,5.2,3.22-1.77-1.28-3.37-2.43-4.97-3.58Zm-37.3-28.28c-.61-.38-1.22-.76-1.86-1.16-.25.6-.44,1.06-.7,1.67.71.37,1.4.74,2.21,1.16.15-.7.24-1.15.35-1.68Zm-.07,8.18c-.37.74-.57,1.14-.73,1.47.77.22,1.47.42,2.33.67-.57-.77-1.01-1.35-1.59-2.14Zm-15.66-16.89c.17-.18.28-.31.4-.44-.17-.11-.33-.28-.52-.32-.08-.02-.32.25-.3.36.02.13.24.23.42.39Zm18.11,10.3c-.03-.07-.04-.17-.08-.19-.05-.02-.13.04-.2.07.03.07.04.17.08.19.05.02.13-.04.2-.07Zm.71,9.46c-.07-.03-.13-.06-.2-.09-.03.07-.09.15-.08.2.02.05.12.06.19.09.03-.07.06-.13.09-.2Zm-5.83-3.14c.03-.07.09-.15.07-.2-.02-.05-.12-.06-.19-.09-.03.07-.09.15-.08.2.02.05.12.06.19.09Z"/>
          <path class="cls-10" d="m255.01,36.45c.45,1.12,1.27,1.67,2.48,1.6-.25.85,1.76,2.3,3.58,2.59-.29,1.83-1.14,2.36-2.25,1.47-.64.44-1.27.87-1.89,1.3-1.05-.43-2.04-.47-3.17.65.2-.76.32-1.18.43-1.61l-.21-.25c-.31.26-.62.52-1.06.87-.27-.3-.62-.69-1.03-1.14-.33.1-.8.23-1.39.41-.15-.49-.3-1-.45-1.5q-1,.33-.57,2.28c-.76-.36-1.4-.54-1.84-.93-.22-.2-.09-.79-.12-1.28-1.41-.1-2.96-.23-4.51-.31-.23-.01-.46.31-.71.34-.48.06-.98.02-1.47-.13-.56.08-1.22.97-1.52-.25-1.52-.27-2.13,2.09-3.81,1.32.12-.93.11-1.79.37-2.56.16-.49.71-.85,1.17-1.35-.57-.82-1.76-.88-2.49-.41-1.48.97-2.9.67-4.17.42-.48-1.21-.89-2.32-1.36-3.39-.17-.38-.85-.6-.3-1.17.02-.02-.17-.34-.31-.39-.12-.05-.36.03-.47.14-.18.17-.29.41-.67.54.03-.23-.01-.5.09-.69.43-.75-.06-1.15-.53-1.57-.39-.34-.75-.7-1.15-1.03-.2-.16-.5-.43-.65-.37-.21.08-.32.42-.49.64-.21.28-.4.72-.66.78-.31.07-.86-.1-1-.35-.31-.55-.44-1.2-.63-1.82-.27-.91-.34-1.95-1.54-2.19-.18-.55-.25-1.18-.56-1.63-.49-.71-.65-1.87-1.93-1.69-.12-.15-.24-.3-.36-.45,0-.34.01-.68.02-1.03-.2.08-.39.16-.59.25-.06-.06-.12-.12-.18-.18-.09-.09-.19-.18-.28-.28-.08-.06-.16-.11-.23-.17-.07-1.49-.95-2.33-2.24-2.9-1.23-.55-2.4-1.23-3.63-1.75-1.24-.52-2.53-.93-3.8-1.39-.2-.04-.39-.09-.59-.13-.3-.59-1.97-1.13-2.89-.93-.16-.07-.32-.13-.48-.2-.04-.54-.3-1.16.47-1.44.86.09,1.74.13,2.58.3.38.07.69.49,1.07.59.74.19,1.5.27,2.25.38.25.03.59.09.73-.04.15-.14.17-.48.16-.74,0-.2-.14-.39-.3-.77,1.13-.07,2.11-.14,3.09-.18.41-.02.81,0,1.22.02.77.29,1.52.64,2.32.83.35.09.78-.14,1.17-.23-.19-.28-.31-.7-.58-.82-.45-.2-.98-.21-1.48-.3-.16,0-.32,0-.48,0-.16,0-.31-.01-.47-.02-.05-.34,0-.93-.16-.99-1.27-.5-2.26-1.78-3.87-1.36-.64.16-1.32.15-1.98.22-.55-.76-.81-.86-1.2-.48-.24,0-.48,0-.72,0-.62-.48-1.23-.97-1.85-1.45.02-.12.05-.24.07-.36,1.78.13,3.56.27,5.41.41.14-.25.32-.59.55-1.01.79.69,1.38.35,1.96-.24.18-.19.44-.37.69-.42.75-.13,1.52-.2,2.28-.29.24,0,.49,0,.73-.01h.46c1.25.38,2.51.76,3.76,1.14-.23.35-.53.57-.74.51-.63-.18-1.2-.15-1.23.59,0,.2.74.51,1.18.64.81.24,1.85-.48,2.47.58.7-.45.98.11,1.39.5.11.1.52-.11.6-.13-.41-.81-.65-1.52-1.07-2.1-.9-1.27-.92-1.4.51-1.95.41-.16.92-.02,1.44-.02.13-.6.47-1.07,1.15-.38.47.47.88.89,1.54,1.18,1.43.64,2.74,1.56,4.12,2.32.27.15.67.06,1.01.12.28.05.76.14.78.27.26,1.61,1.49,1.25,2.52,1.29,0,0,0,0,0,0,.06.53.13,1.05.19,1.58.59.1,1.21.34,1.37.76.61,1.53,1.61,2.55,3.22,2.94v.24c-.08.24-.16.48-.24.72-.38.24-.76.48-1.18.75.75.47,1.41.89,1.91,1.2-.29.51-.7.91-.65,1.26.04.32.61.55.87.88.24.31.58.74.52,1.06-.13.79-.46,1.56-.67,2.21.82.47,1.55.9,2.27,1.32.87-.06,1.8-.13,2.67-.19.21.61.74,1.35.56,1.75-.44.95-.01,1.34.59,1.89.57.52.27.82-.56.9,0-.01.12-.1.26-.19-.19-.2-.38-.39-.57-.59-.1.1-.19.19-.29.29.15.19.3.38.6.49.14.24.27.65.12.86-.74,1.01-.52,2.19-.76,3.29-.24,1.12.37,1.75,1.08,1.67,1.56-.16,2.39.98,3.54,1.53.59,1.01,1.55-.06,2.24.41.13-.46.27-.91.4-1.37.32,0,.64,0,.96,0Zm2.39,4.31c-.84-.7-1.39-1.22-2.02-1.62-.09-.06-.55.45-.83.7.56.61,1.1,1.25,1.71,1.81.04.04.54-.42,1.15-.89Zm-29.19-10.2c-.16,0-.32-.02-.48-.03-.05.33-.11.66-.16.99.21,0,.43.02.64.02v-.98Zm24.07,10.62c-.07-.03-.15-.1-.2-.08-.05.02-.06.12-.09.19.07.03.15.1.19.08.05-.02.06-.12.09-.19Zm-14.63-27.45c-.03-.07-.04-.17-.08-.19-.05-.02-.13.04-.2.07.03.07.04.17.08.19.05.02.13-.04.2-.07Z"/>
          <path class="cls-5" d="m244.46,71.23c.48.08.96.16,1.44.24.32.32.64.64.96.96.5.13,1.06.15.88.96-.04.17.4.43.59.67.84,1.07,1.67,2.15,2.5,3.22.07-.07.14-.14.21-.2.38.33.74.68,1.13.99.71.54,1.43,1.06,2.17,1.55,1.6,1.08,3.2,2.16,4.82,3.22.9.59,1.87.87,2.92.59.08-.12.16-.25.23-.37-.47-.37-.88-.89-1.41-1.07-1.07-.35-1.37-.94-.95-2.01-.58-.28-1.17-.57-1.91-.92.3-.36.5-.61.75-.91,1.78,1.78,1.28,0,1.48-.87.76,2.43,3.25,4.07,2.67,6.96,2.19-.3,2.48,2.4,4.36,2.52.06-.34.12-.68.24-1.39.34.52.59.74.63.99.1.75.35.92,1.18.85.49-.04,1.05.76,1.57,1.2.45.38.87.8,1.34,1.16,1.37,1.03,2.84,1.95,4.1,3.1.78.71.04,1.3-.99,1.86.84.78,1.47,1.58,2.29,2.07,1.83,1.13,3.8,2.03,5.62,3.17,1.39.87,2.91.77,4.32.64,1.3-.12,1.91-.01,1.79,1.39,1.67-.17,2.61.56,2.24,1.73.66.19,1.31.39,2.11.62-.5.63-.84,1.15-1.29,1.55-.16.14-.59,0-.9-.04-.27-.03-.53-.08-.8-.12-.16-.08-.31-.17-.47-.25-.29-1.16-1.71-1.68-2.67-1.22-.85-.45-1.53-1.09-2.23-1.11-1.72-.06-1.9,0-3.38-.9-.05-.03-.15.01-.51.06.32.78.6,1.48.89,2.18-.55.89-1.2,1.75-.8,2.9-.06.16-.12.33-.19.49-.64-.3-1.21-.47-1.46.5-.07.26-.5.42-.74.65-.55.53-1.06,1.12-1.65,1.61-.76.63-1.59,1.19-2.49,1.86-.2-.87-.32-1.37-.4-1.73.44-.44.83-.83,1.22-1.22.08,0,.16,0,.24,0,.48-.32.96-.63,1.45-.95.32-.32.64-.64.96-.96.08-.16.15-.32.23-.48,0-.07,0-.15,0-.22.26-.7.45-1.52-.3-1.9-.41-.2-1.17.04-1.66.3-.67.36-1.17,1.02-1.83,1.37-.94.5-1.75,1.53-3.13,1.02.49-1.12-.14-2-.95-2.34-.67-.28-1.75-.67-2.43.33,0,.1,0,.2-.01.3-.14-.01-.28-.02-.42-.04-.1-.01-.19-.02-.29-.03-.26-.32-.46-.77-.8-.92-.8-.37-1.71-.51-2.49-.9-1.3-.66-2.54-1.45-3.81-2.17-.16-.09-.39-.05-.58-.07-.23,0-.47,0-.7,0-.31-.62-.5-1.66-.96-1.79-2.27-.66-3.59-2.29-4.92-4.04-.29-.39-1.03-.43-1.56-.64-.25-.24-.49-.48-.74-.73.12-.1.25-.2.37-.31-.36-.22-.72-.44-1.08-.66,0-.08,0-.15,0-.23.32-.57.64-1.14.94-1.69-1.01-.55-2.35-.82-2.7-1.56-.57-1.18-3-1.3-1.96-3.34,0-.01-.04-.07-.07-.09-1.05-.82-1.02-1.87-.59-2.93-.5-.39-.94-.73-1.4-1.08,1.02-.1,1.91,0,2.63-.3.76-.32,1.05-.04,1.5.42.64.65,1.34,1.24,2.05,1.82.12.1.48.12.55.03.43-.54.95-1.07,1.17-1.7.2-.56.19-1.27-.63-1.59-.21-.08-.42-.37-.48-.6-.16-.64-.25-1.3-.35-1.89-2.08.57-3.39-1.11-5.22-1.09.59-1.04,1.02-1.82,1.3-2.31-.45-.82-.76-1.43-1.11-2.03-.09-.16-.25-.29-.4-.42-.52-.47-1.05-.92-1.58-1.39.11-.11.23-.23.34-.34Zm30.46,22.31c.1.12.19.24.29.36.03-.03.05-.05.08-.08-.12-.1-.24-.19-.37-.29-.14-.19-.28-.38-.42-.56-.07.09-.14.17-.21.26.21.1.42.21.63.31Zm-2.84-2.83c-.6-.41-1.04-.72-1.48-1.02.1.88.4,1.45,1.48,1.02Zm-2.84-2.41c-.15-.23-.21-.4-.31-.44-.1-.04-.25.07-.38.12.06.13.1.3.2.37.08.05.24-.02.49-.05Z"/>
          <path class="cls-3" d="m308.01,94.26c-.35-.54-.7-1.07-1.06-1.61.15-.14.3-.27.45-.41,1.07.99,2.14,1.98,3.21,2.98.08-.07.17-.15.25-.22-.74-.96-1.48-1.93-2.36-3.08-.34-.07-.97-.19-1.81-.35.48-.4.75-.63,1.02-.85-.03-.09-.06-.18-.09-.27-.45.07-.9.15-1.41.23.38-1.14-2.56-.87-1.02-2.62-.39-.29-.73-.54-1.12-.83-.3.37-.55.68-.68.84-.73-.78-1.4-1.49-2.06-2.2.05-.07.09-.14.14-.2.47.26.95.52,1.5.82.09-.44.13-.93.31-1.36.12-.28.43-.56.71-.65.16-.05.43.31.66.45.63.36,1.27.7,2.07,1.14.06-1.71-1.43-1.23-1.89-1.93-.7-1.07-1.62-.37-2.47-.26-.05-.13-.09-.25-.14-.38.43-.18.85-.36,1.27-.54-.53-1.38-.57-1.37-1.79-.35-.46.38-1.04.62-1.8,1.06.47-1.07.8-1.84,1.25-2.65,0,0-.1.06-.21.11.14.2.28.4.41.6.12-.08.23-.16.35-.24-.14-.18-.28-.35-.54-.48-.07-.3-.03-.65.01-.99-1.24-.49-1.96-.94-.74-2.11l-.15-.32c-.9.45-1.79.89-2.72,1.36.14-1.38-1.22-1.32-2.01-1.85-.79-.52-1.64-.95-2.57-1.48.04-.09.14-.36.32-.81-.86.09-1.63.17-2.7.29.42-.45.73-.78,1.21-1.29-.36-.03-.77-.07-1.18-.09-.11,0-.28.12-.32.08-.27-.26-.72-.55-.72-.83.01-.65.24-1.3.39-1.95.39.13.89.16,1.16.41.77.74,1.44,1.58,2.16,2.39l.42-.11c-.06-.31-.03-.7-.21-.91-1.25-1.44-2.55-2.84-3.91-4.33.77-1.69-1.43-.92-1.86-1.86.07-.16.18-.43.16-.38-.7-.93-1.27-1.68-1.9-2.52-.09.49-.16,1.06-.32,1.6-.08.26-.35.46-.53.69-.12-.06-.24-.12-.36-.17.07-1.21.13-2.42.24-3.63.02-.21.2-.43.37-.59.77-.75.87-1.47-.02-2.22-.14-.11-.17-.35-.25-.52-1.96.48-2.77.04-2.65-1.42-.78-.33-2-.36-1.14-1.78.09-.15-.14-.65-.35-.79-.77-.52-1.54-1.19-2.41-1.39-1.6-.37-2.86-1.24-4.11-2.19-.3-.23-.49-.58-.78-.94-.25.13-.51.26-.79.41-.7-1.15-1.39-2.27-2.08-3.42.07-.3.18-.74.29-1.19-.2-.11-.39-.22-.59-.33-.11.39-.21.77-.32,1.16-.41-1.89-.82-2.26-2.55-2.45-.21-.02-.5-.27-.58-.48-.3-.85-.52-1.72-.77-2.58.56.16,1.12.32,1.68.48.54,1.7,1.77,2.65,3.38,3.27.54.21,1.09,1,1.48.91.99-.23,1.12.42,1.43.79-.48.28-.91.53-1.35.78.24-.09.48-.19.72-.28.53.48,1.06.97,1.59,1.45l-.64.66c.38,0,1.06-.09,1.09.01.35,1.16,1.45,1.36,2.28,1.88.77.49,1.59.9,2.38,1.36.67.39,1.4.72,1.99,1.22.75.62,1.29,1.51,2.09,2.04.77.51.97,1.03.68,1.69.46.4.91.67,1.19,1.06.66.93,1.23,1.91,1.84,2.87.13-.06.27-.12.4-.18.07-.71.13-1.43.22-2.44.87,1.06,1.77,1.86,2.29,2.86.8,1.57,2.39,2.38,3.3,3.8-1.08.15-2.15.3-3.47.48.82.73,1.43,1.58,2.25,1.93,1.3.54,2.75.74,4.26,1.12.04-.66.06-1.01.08-1.36.31.26.81.48.87.79.05.25-.43.6-.74.98.53.34,1.07.89,1.71,1.06,1.1.29,1.68.8,1.53,1.97-.6-.21-1.19-.42-1.93-.68,1.75,1.83,3.36,3.53,5.05,5.29.18-.39.33-.7.48-1.02.83.72,1.66,1.44,2.54,2.2-.02.53-.6,1.48.81,1.27.16-.02.41.23.55.4.73.9,1.4,1.86,2.17,2.73.64.72,1.39,1.35,2.08,2.02h0c.08.09.16.17.24.24l.97,1.19c.24.16.47.33.71.49h0c-.01.2.03.42-.04.6-.56,1.56-.34,2.16.98,3,.2.53.48.99.82,1.41.24.3.77.53.8.83.19,1.83,1.91,2.09,2.95,3.04.32.56.64,1.12.95,1.68.06.27.12.55.18.82-.85-.19-1,.15-.74.9.35.99.66,2,.99,3-.28-.05-.55-.1-.83-.14-.44-.14-.96-.17-1.3-.44-1.05-.81-2.04-1.69-3.04-2.57-.37-.33-.69-.73-1.03-1.1-.47-1.44-2.37-1.04-2.92-2.47-.53.48-.97.87-1.4,1.27l-1.44-.96c-.02-.95-.65-1.27-1.44-1.43h0Zm-.77-5.52c-.04.16-.08.32-.12.48.25.04.5.08.75.1.02,0,.09-.28.07-.29-.23-.11-.47-.19-.7-.28Zm-1.29-.62c.11,0,.23,0,.34-.01-.02-.31-.04-.62-.06-.93-.09,0-.19.01-.28.02v.92Zm-2.15-1.43c.1,0,.2,0,.3-.01-.02-.23-.04-.46-.06-.69-.08,0-.16,0-.23.01v.69Z"/>
          <path class="cls-10" d="m244.46,71.23c-.11.11-.23.23-.34.34.53.46,1.05.92,1.58,1.39.14.13.3.26.4.42.34.59.66,1.2,1.11,2.03-.28.5-.71,1.27-1.3,2.31,1.83-.03,3.14,1.66,5.22,1.09.1.59.19,1.25.35,1.89.06.23.27.52.48.6.82.31.82,1.03.63,1.59-.22.63-.74,1.16-1.17,1.7-.07.09-.43.07-.55-.03-.7-.58-1.41-1.17-2.05-1.82-.45-.46-.74-.74-1.5-.42-.72.31-1.61.2-2.63.3.46.35.9.7,1.4,1.08-.43,1.06-.46,2.11.59,2.93.03.02.08.08.07.09-1.03,2.04,1.39,2.16,1.96,3.34.36.74,1.69,1.02,2.7,1.56-.31.55-.63,1.12-.94,1.69-.33-.17-.69-.3-.98-.52-.55-.43-1.01-1.24-1.59-1.32-1.02-.15-.98-.66-.84-1.27-1.14-.95-2.23-1.81-3.25-2.75-.53-.49-.88-.38-1.26.1-1.05-1.22-2.1-2.43-3.13-3.67-.63-.75-1.22-1.53-1.83-2.3.28-.06.56-.13,1.17-.26-.88-1.29-1.63-2.37-2.34-3.46-.18-.27-.22-.62-.33-.94.33.13.72.18.97.4.49.42.9.93,1.48,1.55.51-.89.9-1.56,1.37-2.39-2.13-.88-1.48-2.79-1.36-4.51-.12.1-.24.2-.36.3-.38-.18-.76-.37-1.15-.55.48-.3,1.17-.5,1.38-.93.39-.79.65-1.72.66-2.59,0-.4-.65-.89-1.1-1.19-.2-.13-.65.1-.98.17,0-.48.07-.97,0-1.43-.04-.26-.29-.5-.44-.74-.16,0-.32,0-.48,0-.24-.32-.48-.64-.72-.96-.08-.4-.16-.8-.24-1.2-.08-.24-.16-.48-.24-.72,0-.16,0-.32,0-.48,1.1-.43.73-1.48.85-2.27.03-.2-.81-.56-1.28-.79-.31-.15-.68-.2-1.02-.29-.35.15-.69.34-1.05.43-.48.11-.97.12-1.46.18-.04-.16-.08-.31-.13-.47.7-.57,1.46-1.08,2.06-1.74.21-.23.09-.86-.04-1.25-.07-.21-.49-.29-1.08-.6,1.14-.53,2.41-.74,2.23-2.2.38.44.76.89,1.14,1.33l.96,1.44c.04,1.32.58,2.27,1.92,2.64-.02.75-.04,1.5-.07,2.25,0,.08-.06.18-.03.22.95,1.18.27,2.5.33,3.76.09,1.34.98,1.8,2.16,1.92.2,1.74,1.29,2.66,2.88,3.12.16.16.32.32.48.48.24.48.48.96.72,1.44Z"/>
          <path class="cls-1" d="m236.07,55.4c-.32-.48-.64-.96-.96-1.44-.09-.41-.08-.89-.3-1.21-.84-1.25-1.5-2.54-1.18-4.33-2.55.47-1.43,2.98-2.57,4.06.35.28.64.5,1,.79-.27.2-.4.38-.57.41-.99.17-1.73.46-1.25,1.72.05.13-.23.47-.43.59-.43.26-1.03.33-1.34.68-.3.34-.61,1.13-.43,1.35.49.62,1.22,1.06,1.82,1.54-.35.4-.77.87-1.3,1.48,1.65.19,3.1.36,4.55.51.1.01.21-.09.32-.15.24.08.48.16.72.25-.18.31-.29.69-.54.92-.62.57-.62,1.7.06,2.19.32.08.64.16.96.24.32.32.64.64.96.95,0,.08,0,.16,0,.24-.24.24-.48.48-.72.72-.2.7-.41,1.39-.61,2.07-1.81-.21-2.08.07-1.55,1.52.02.21.04.43.07.72-.28-.03-.5-.09-.71-.08-.19,0-.39.09-.58.13-.4-1.26-.75-2.54-1.22-3.77-.56-1.47-1.26-2.89-1.82-4.37-.54-1.4-1.13-2.81-1.43-4.27-1-4.92-1.47-9.93-2.11-14.91-.48-3.68-1.31-7.32-2.02-10.97-.09-.46-.35-.88-.54-1.32.49.46,1.18.83,1.44,1.39.38.83.88,1.1,1.68.87.94-.27,1.04.25,1,.95-.08,1.07-.09,1.07.89,1.55-.17,1.35-1.53.83-2.32,1.5.36.33.69.64,1.01.96.67.67.57,1.49-.23,2.02-.6.4-.62,1.14,0,1.52.33.2.74.27,1.41.5-.39.66-.75,1.26-1.16,1.95.19.06.46.08.66.22.42.3,1.07.62,1.13,1,.07.48-.34,1.05-.59,1.56-.17.34-.42.63-.72,1.07,1.79.17,3.05-.18,3.96-1.84-.24-.69-.58-1.7-.96-2.81.42-.67.78-1.7,1.5-2.3.78-.65,1.9-.89,3.07-1.39.14.84.19,1.47.36,2.07.06.2.43.31.65.45,0,.84,0,1.67,0,2.51.12,0,.25,0,.37,0,.04-.27.08-.54.12-.86,1.18.27.85.78.27,1.35.8.43,1.56.82,2.21,1.17-.47,1.3-.29,2.42.1,3.52.04.12.34.16.52.23-.22.49-.4,1-.66,1.46-.18.32-.48.58-.73.86.47.34.93.69,1.4,1.03,0,0,0,0,0,0l.45,1.77c-.55-.36-1.1-.73-1.5-.99-.58.15-1.08.28-1.59.42Z"/>
          <path class="cls-8" d="m301.08,113.91c.52.1,1.05.19,1.78.33,0-.4-.05-.84.01-1.27.07-.42.16-.9.42-1.21.12-.14.66.04,1,.11,2.55.48,3.44,2.81,4.95,4.45.32.35,1,.56,1.48.52.74-.06,1.05.21,1.39.81.34.6.85,1.13,1.39,1.57.19.16.69-.06,1.12-.12.06.36.12.74.18,1.11,1.54.41,2.54,1.39,3.33,2.71.4.66.82,1.48,1.89,1.35.31-.04.72.14.96.36.93.85,1.8,1.77,2.71,2.65.61.59,1.29,1.12,1.88,1.73.71.74,1.45,1.47,1.99,2.32.56.89,1.07.87,1.76.28.17.24.35.49.52.73.09.38.1.8.28,1.13.68,1.24,1.43,2.45,2.12,3.69.14.24.11.58.2,1.14-.51-.54-.77-.82-1.03-1.1-.91-1.01-1.06-.99-1.68.22-.45-.47-.91-.95-1.36-1.42-.14-.39-.2-.83-.42-1.16-.86-1.31-1.76-2.59-2.65-3.88.07-.06.14-.12.21-.18-.35-.05-.7-.09-.8-.1-.93-1.13-1.72-2.1-2.52-3.07-.11.06-.21.12-.32.19.39,1.17.78,2.33,1.17,3.5-.14.11-.28.22-.41.33-.9-1.16-1.8-2.31-2.7-3.47-.21.11-.41.21-.62.32.07.46.14.93.26,1.77-.87-.84-1.67-1.44-2.25-2.21-.89-1.18-1.63-2.48-2.44-3.72-.26-.39-.82-.75-.82-1.13-.01-1.64-1.85-1.67-2.35-2.86.59,1.51,1.33,2.92,2.13,4.3.55.95,1.29,1.82,1.74,2.81.33.72.34,1.59.54,2.66-.39-.23-.89-.37-1.16-.69-.73-.91-1.36-1.89-2.04-2.84-.17.07-.34.13-.5.2.04.35.03.72.14,1.05.11.32.39.58.53.89.74,1.63,1.48,3.27,2.16,4.93.1.25-.15.65-.24.98-.54-1.01-1.08-2.01-1.61-3.02-1.89-3.62-3.66-7.31-5.71-10.83-.83-1.43-2.25-2.53-3.44-3.74-1.04-1.06-2.13-2.07-3.21-3.11Z"/>
          <path class="cls-9" d="m315.05,134.61c.09-.33.34-.73.24-.98-.67-1.66-1.42-3.29-2.16-4.93-.14-.31-.42-.57-.53-.89-.11-.33-.1-.7-.14-1.05.17-.07.34-.13.5-.2.67.95,1.31,1.94,2.04,2.84.26.33.76.47,1.16.69-.2-1.07-.21-1.94-.54-2.66-.46-.99-1.19-1.86-1.74-2.81-.8-1.38-1.54-2.78-2.13-4.3.51,1.19,2.34,1.22,2.35,2.86,0,.38.56.73.82,1.13.82,1.24,1.55,2.54,2.44,3.72.58.77,1.38,1.37,2.25,2.21-.12-.84-.19-1.31-.26-1.77.21-.11.41-.21.62-.32.9,1.16,1.8,2.31,2.7,3.47.14-.11.28-.22.41-.33-.39-1.17-.78-2.33-1.17-3.5.11-.06.21-.12.32-.19.79.97,1.59,1.94,2.52,3.07.1.01.45.06.8.1-.07.06-.14.12-.21.18.89,1.29,1.79,2.57,2.65,3.88.22.34.28.77.42,1.16-.4.03-.79.07-1.21.1.53.85.96,1.64,1.49,2.35.28.37.77.58,1.16.87.16.03.32.05.48.08.09-.01.17-.02.26-.03.99.08,1.18.69,1.13,1.28-1.8.35-3.44.66-5.07,1-.08.02-.12.19-.18.3-.31,0-.62,0-.94,0l-1.02-.14c-.27-.38-.61-.73-.8-1.14-.42-.93-1.14-1.2-2.31-1.14.53.95.99,1.78,1.45,2.61-1.51-.67-3.03-1.35-4.54-2.02-.71-1.28-1.42-2.56-2.13-3.84l-.54-.71c-.19-.31-.38-.62-.58-.93Zm1.88-4.26c-.2.09-.39.19-.59.28.04.59-.1,1.28.17,1.73.17.29.94.21,1.45.3l.29-.39-1.32-1.92Zm7.37,2.8c.1-.15.19-.3.29-.44-.36-.17-.71-.34-1.07-.51l-.2.35c.33.2.65.4.98.61Z"/>
          <path class="cls-11" d="m247.57,118.52c1.95.52,3.87,1.18,5.85,1.51,2.15.35,4.31.42,6.32-.89,2.95-1.91,5.21-4.51,7.51-7.08.32-.36.67-.68.96-1.07.81-1.1,1.59-2.21,2.38-3.32,0,.16,0,.33,0,.49.16.36.31.73.49,1.09.21.41.73,1,.61,1.19-.28.43-.86.65-1.31.96-.29.19-.82.4-.81.58.04.74-.92,1.4-.17,2.18-.41.48-.81.96-1.22,1.43-1.8,2.09-3.6,4.18-5.46,6.32,1.33.83,2.41,1,3.39.03,1.04-1.03,2.06-2.09,3.02-3.2,1.15-1.35,2.23-2.76,3.34-4.14.01.16.09.36.02.47-.59.93-1.2,1.85-1.81,2.77-.16.25-.37.48-.48.75-.17.39-.15.91-.42,1.2-.58.65-1.27,1.2-1.94,1.78-.95.81-.71,2.29.46,2.75-.49.93-1.4,1.15-2.83.68-.83-.27-1.7-.48-2.44-.9-.45-.25-.7-.86-1.08-1.37-2.47-.26-5.18-.62-7.91-.79-1.13-.07-2.41-.13-3.24,1.04-.13.18-.61.26-.86.19-1.16-.34-1.57.1-1.33,1.62-.58-.36-1.17-.54-1.2-.79-.09-.75.03-1.52.08-2.48-.08-.02-.47-.1-.87-.17-.14-.21-.28-.42-.41-.63-.1.21-.2.43-.3.64-1.11.28-1.73.99-1.76,2.27-1.09-.53-1.19-1.35-1.1-2.24.05-.48.24-.98-.51-1.05,0-.61,0-1.21,0-1.82,1.36,0,2.72-.01,4.08-.02-.26.5-.52,1-.84,1.6.46.1.99.12,1.43.32,1.14.52,2.89-.52,3.46,1.48.53-.21.98-.39,1.76-.71-.57-.55-.9-1.07-1.35-1.24-1.02-.38-2.1-.55-3.15-.86-.16-.05-.25-.37-.37-.56Z"/>
          <path class="cls-1" d="m312.58,84.89c-.7-.67-1.44-1.3-2.08-2.02-.77-.87-1.44-1.82-2.17-2.73-.14-.18-.39-.43-.55-.4-1.41.2-.83-.74-.81-1.27-.87-.76-1.71-1.48-2.54-2.2l-1.44-2.16c-.16-.16-.32-.32-.48-.48h0c-.33-.55-.64-1.13-1.44-.96-.08,0-.16,0-.24,0,.15-1.17-.43-1.68-1.53-1.97-.64-.17-1.18-.72-1.71-1.06.31-.39.79-.74.74-.98-.06-.31-.56-.53-.87-.79-1.04-.72-2.08-1.44-3.11-2.16-.91-1.42-2.49-2.23-3.3-3.8-.51-1-1.42-1.8-2.29-2.86-.09,1.01-.16,1.72-.22,2.44-.13.06-.27.12-.4.18-.61-.96-1.18-1.95-1.84-2.87-.28-.39-.73-.67-1.19-1.06.29-.66.09-1.18-.68-1.69-.8-.53-1.34-1.42-2.09-2.04-.59-.49-1.32-.83-1.99-1.22-.79-.46-1.61-.87-2.38-1.36-.83-.52-1.93-.72-2.28-1.88-.03-.1-.71-.01-1.09-.01l.64-.66c-.53-.48-1.06-.97-1.59-1.45-.24.09-.48.19-.72.28.43-.25.87-.5,1.35-.78-.31-.36-.45-1.02-1.43-.79-.4.09-.94-.7-1.48-.91-1.61-.61-2.84-1.57-3.38-3.27l.02-.03c1.07.46,1.83,1.1,2.61,2.1.84,1.08,2.7,1.36,4.12,1.99.08-.06.15-.05.21.04.09.07.17.14.26.21.15.11.31.22.46.33.07.06.14.11.21.17.41.33.82.65,1.23.98.09.06.17.13.26.19,0,0,0,0,0,0,.06.45.13.91.19,1.36,2.29,0,3.04,2.29,4.79,3.15.31-.13.67-.28,1.03-.43.08,0,.15.02.2.09.08.06.16.11.24.17.48.34.96.68,1.44,1.02.07.06.15.12.22.18.09.08.17.15.26.23.25.23.5.46.76.69,0,0-.01,0-.01,0,.09.09.18.17.27.26.08,0,.14.03.18.09.08.06.15.12.23.18,0,0,.01,0,.01,0,.09.07.17.14.26.21,0,0,0,0,0,0,.18.16.35.31.53.47.38.34.76.67,1.13,1.01.08.08.15.15.23.23,0,0,.01.01.01.01.08.08.15.15.23.23.08.09.17.18.25.26.07.07.13.14.2.21.09.1.19.19.28.29.07.07.13.13.2.2,1.89,1.99,3.81,3.96,5.67,5.97,1.69,1.82,3.36,3.67,4.99,5.54,1.12,1.28,2.17,2.63,3.28,3.94.28.32.64.57.96.85.29.4.59.81.88,1.21.26.33.52.66.78.98.25.22.51.44.76.66,0,0,0,0,0,0,.09.08.18.16.27.24,0,0,0,0,0,0,.06.1.12.19.18.29.09.15.19.29.28.44,0,.16-.05.35.02.47.77,1.22,1.57,2.44,2.35,3.65.56.87,1.13,1.75,1.69,2.62Z"/>
          <path class="cls-5" d="m309.46,95.69c.48.32.96.64,1.44.96.66.47,1.31.95,1.99,1.39.14.09.39.03.58.01.58-.06,1.16-.13,1.75-.2.34.37.66.76,1.03,1.1.99.88,1.99,1.76,3.04,2.57.34.26.86.3,1.3.44.09.31.2.61.26.92.08.4.11.8.16,1.2-1.28.07-.47.8-.34,1.21.53,1.61,1.48,2.94,2.74,4.1.42.39-.11,1.34.76,1.78.42.21.55.95,1.28.66.08-.03.4.28.44.47.27,1.07.94,1.74,1.94,2.16.2.09.3.42.45.64.45.69.55,1.51,1.52,1.95.69.31.83,1.37.38,2.27-.12.24.11.95.32,1.02,1.18.38,1.32,1.56,1.94,2.34.31.39.54.94.58,1.44.03.34-.26.89-.55,1.03-.58.28-.93.43-.4,1.09.81,1,0,2.06.13,3.1-1.78-.16-2.46-1.43-1.58-2.81.88-1.39.69-2.33-.31-3.61-.79-1.01-1.32-2.23-2.07-3.55.04,0-.25.03-.54.07-.56-.72-1.12-1.44-1.68-2.15,0-.08,0-.16,0-.24-.4-.64-.8-1.28-1.2-1.92-.08-.16-.16-.32-.24-.48-.21-.76-.17-1.67-1.2-1.92-.71-.94-1.57-1.8-2.11-2.83-.88-1.67-1.63-3.4-3.16-4.61-.32-.4-.64-.8-.96-1.2h0c-.43-1.18-1.41-1.89-2.64-1.92-.08-.08-.16-.16-.24-.24-.48-.32-.96-.64-1.44-.96h0c-.24-.16-.48-.32-.72-.48-.08,0-.16,0-.24,0-.1-.24-.13-.63-.3-.7-1.12-.47-2.27-.87-3.47-1.32.02-.25.06-.61.11-1.06-.48.03-.86.05-1.37.09-.02-.43,0-.85-.08-1.25-.07-.32-.18-.81-.41-.9-1.98-.84-2.64-2.56-3.11-4.44.32.16.64.32.96.48-.04.69-.05,1.35.96,1.2.96.56,1.92,1.12,2.87,1.68,0,0,0,0,0,0,.48.48.96.95,1.44,1.43Zm20,22.86c.07.03.15.1.2.08.05-.02.06-.12.09-.19-.07-.03-.15-.1-.19-.08-.05.02-.06.12-.09.19Z"/>
          <path class="cls-3" d="m206.81,9.58c.24,0,.48,0,.72,0,.4.16.8.32,1.2.48.66-.07,1.34-.06,1.98-.22,1.61-.42,2.6.86,3.87,1.36.16.06.11.65.16.99-.56-.08-1.12-.15-1.68-.23-.26-.16-.5-.4-.77-.45-1.47-.27-2.95-.51-4.43-.71-.93-.13-1.87-.17-2.8-.26-.02.2-.04.4-.06.6,1.31.13,2.62.24,3.93.38,1.37.15,2.74.31,4.11.47.41.24.81.49,1.22.73-.41,0-.81-.04-1.22-.02-.98.05-1.96.12-3.09.18.15.38.29.57.3.77,0,.25,0,.6-.16.74-.14.13-.49.07-.73.04-.76-.1-1.52-.19-2.25-.38-.38-.1-.69-.52-1.07-.59-.85-.17-1.72-.21-2.58-.3.06-.49.11-.98.19-1.67h-1.37c-1.24-.2-2.47-.39-3.7-.59-.27,1.53.72,2.13,2.5,1.55.24.31.48.63.72.94,0,.17,0,.33,0,.5-.01.12-.02.24-.03.36-2.29-1.55-5.07-1.63-7.58-2.53-.66-.24-1.33-.48-1.99-.72.4-.48.8-.96,1.2-1.44.97-.16,1.95-.49,2.9-.44,2.65.13,5.29.45,7.94.63.37.03.77-.28,1.16-.43.48.08.96.16,1.44.24Z"/>
          <path class="cls-1" d="m267.97,41.97c-.56-.16-1.12-.32-1.68-.48-.08,0-.16,0-.24,0-1.21-1.25-2.26-2.64-4.08-3.21-.71-.23-1.22-1.11-1.94-1.81.11-.04-.09.03-.4.15.36-1.05-.12-1.47-.97-1.71-.48-.14-.98-.37-1.35-.69-.7-.62-1.3-1.33-2.12-2.18.27-.64-.13-1.01-1.19-1.01-.58,0-1.17-.25-2.04-.46.56-.28.84-.42,1.23-.62-1.31-1.8-2.55-3.51-3.95-5.43-.04,0-.42-.07-.81-.13.36-1.03.29-1.16-.82-1.97-.18-.61-.38-1.45-.82-1.6-.88-.3-1.15-.96-1.62-1.59-.79-1.04-1.75-1.94-2.64-2.9-.16-.08-.32-.16-.48-.24-.02-.23.06-.55-.07-.69-.87-.92-1.95-1.7-2.64-2.73-.72-1.08-1.61-1.64-2.81-1.86,0,0,0,0,0,0,.07-.39.15-.78.22-1.18.05-.07.09-.15.14-.22.2.14.41.28.61.43.09.08.18.16.27.24,0,0,0-.01,0-.01.07.09.14.18.21.27,2.67,2.7,5.4,5.34,7.98,8.12,1.45,1.57,2.7,3.33,3.93,5.08,1.09,1.55,1.95,3.25,3.06,4.79.61.85,1.53,1.47,2.3,2.2.09.06.18.13.26.19.09,0,.15.03.2.1.05.51.14.96.83.69l.08.07c.13.13.27.26.4.4.04.02.07.04.08.09.12.28.21.58.37.84,1.07,1.69,3.49,2.07,4.11,4.2.02.07.09.13.16.17,1.15.79,2.32,1.55,3.44,2.38.97.72,1.86,1.54,2.79,2.31,0,0-.02.03-.02.03Z"/>
          <path class="cls-3" d="m231.48,71.28c.19-.05.38-.12.58-.13.22,0,.43.04.71.08-.03-.29-.05-.5-.07-.72.16.08.32.16.48.23.24.09.48.17.71.25.4.24.8.48,1.2.72.56.33.88.17.96-.48.32.16.63.32.95.48.38.18.76.37,1.15.55.12-.1.24-.2.36-.3-.12,1.73-.77,3.63,1.36,4.51-.47.82-.86,1.5-1.37,2.39-.58-.62-.99-1.13-1.48-1.55-.25-.22-.65-.27-.97-.4.11.32.15.67.33.94.71,1.1,1.46,2.17,2.34,3.46-.61.14-.89.2-1.17.26-.1-.16-.21-.31-.31-.47-.26-.33-.52-.65-.78-.98-1.66-2.95-3.32-5.9-4.98-8.85Zm2.88,1.63l.27-.32c-.2-.18-.4-.36-.6-.54-.1.11-.19.23-.29.34.21.17.41.35.62.52Z"/>
          <path class="cls-11" d="m193.37,9.59c-.4.48-.8.96-1.2,1.44-.33-.07-.67-.15-1.05-.23,1.37-2.99,4.04-4,6.76-5.01,3.4-1.26,6.9-1.46,10.46-1.27,3.35.18,6.6-.12,9.86-1.14,5.75-1.79,10.98-.5,15.48,3.56-.41-.08-.81-.16-1.22-.24-.31-.16-.63-.33-.94-.49-.32-.16-.64-.31-.97-.47h0c-.33-.94-1.73-1.71-2.66-1.47-.15,0-.3,0-.46,0-.25-.08-.49-.15-.74-.23l-.48-.23c-.48-.08-.96-.15-1.44-.23-.16,0-.33-.02-.49-.02-.32-.14-.68-.44-.96-.39-1.89.34-3.79.68-5.65,1.17-1.31.35-2.45,1.32-3.93.93-.24,0-.49,0-.73,0-1.7-.02-3.45.2-5.1-.12-2.36-.45-4.64-.2-6.89.29-1.77.39-3.43,1.25-5.18,1.74-1.34.37-2.31.94-2.49,2.42Z"/>
          <path class="cls-6" d="m337.25,142.7c1,1.01,1.3,2.3,1.48,3.57-.94.55-1.77,1.06-2.62,1.52-.28.15-.63.18-.95.24-1.24.23-2.62.03-3.57,1.19-.09.12-.52-.04-.79-.07.34-1.34.71-2.67,1.02-4.02.24-1.06.89-1.58,1.94-1.78.4-.08.74-.47,1.11-.71.24.02.49.04.73.06.55.78,1.1-.01,1.65,0Z"/>
          <path class="cls-1" d="m335.6,142.7c-.24-.02-.49-.04-.73-.06-.98-.39-1.94-.86-2.95-1.15-.61-.17-1.3-.12-1.95-.06-1.18.12-2.35.31-3.52.48.06-.1.1-.28.18-.3,1.64-.33,3.28-.65,5.07-1,.06-.58-.14-1.19-1.13-1.28-.27-.65-.54-1.29-.81-1.94.61-1.21.76-1.23,1.68-.22.26.28.52.56,1.03,1.1-.09-.56-.06-.89-.2-1.14-.69-1.24-1.44-2.45-2.12-3.69-.18-.33-.19-.75-.28-1.13,1.27,1.72,2.57,3.42,3.82,5.15.9,1.25,1.74,2.55,2.61,3.83.05.61.02,1.18-.7,1.39Zm-3.03-4.01l.2.09c.03-.07.1-.15.08-.2-.02-.05-.14-.1-.19-.08-.05.02-.06.12-.09.19Z"/>
          <path class="cls-11" d="m326.46,141.91c1.17-.16,2.34-.36,3.52-.48.64-.06,1.34-.11,1.95.06,1.01.29,1.97.75,2.95,1.15-.37.25-.71.64-1.11.71-1.05.2-1.69.72-1.94,1.78-.31,1.35-.68,2.68-1.02,4.02-.39-.25-.78-.5-1.17-.75.06-1.72.63-3.31,1.25-4.89.11-.28-.09-.89-.33-1.03-.25-.14-.98.04-1.04.24-.43,1.29-1.44,1.15-2.44,1.16-.42,0-.84.14-1.26.22-.35-.62-.71-1.24-1.06-1.85.26-.11.51-.22.77-.33.31,0,.62,0,.94,0Z"/>
          <path class="cls-3" d="m275.88,109.36c-.39.39-.78.78-1.22,1.22.08.36.2.86.4,1.73.9-.66,1.72-1.22,2.49-1.86.59-.49,1.09-1.08,1.65-1.61.24-.23.67-.39.74-.65.26-.98.82-.8,1.46-.5-.06,2.01-1.11,3.23-2.77,4.37-1.63,1.13-2.85,2.85-4.25,4.32-.14.14-.29.27-.43.41.21-.73.43-1.46.61-2.2.07-.3.13-.66.02-.93-.13-.35-.43-.63-.66-.94.11-.53.22-1.07.34-1.65-.64-.04-1.06-.07-1.49-.1,1.04-.53,2.07-1.06,3.11-1.59Z"/>
          <path class="cls-11" d="m263.41,105.25c-2.62-1.41-5.36-2.65-7.85-4.27-3.37-2.19-6.11-5.14-8.8-8.1-.34-.38-.61-.83-.91-1.24.35.04.76-.03,1.05.13,1.12.64,2.2,1.34,3.29,2.02.09.23.18.47.26.7.22,1.09.87,1.79,1.9,2.17.08.01.15.02.23.02.17.43.22.97.52,1.26,1.13,1.11,2.32,2.17,3.52,3.2.25.21.66.22,1,.32h0c.6,1.02,1.59,1.28,2.66,1.42.15.01.3.02.45.04.73.55,1.46,1.09,2.19,1.64.08,0,.15.01.23.02.08.23.17.45.25.68Z"/>
          <path class="cls-1" d="m273.91,112.71c.23.31.52.59.66.94.1.27.05.63-.02.93-.18.74-.4,1.47-.61,2.2-1.83,2.4-3.66,4.81-5.49,7.21-.04.11-.08.21-.12.32,0,0-.01.02-.01.02-1.17-.46-1.4-1.93-.46-2.75.67-.57,1.36-1.13,1.94-1.78.26-.29.25-.81.42-1.2.11-.27.32-.5.48-.75.61-.92,1.22-1.84,1.81-2.77.07-.11-.01-.31-.02-.47,0,0,0,0,0,0,.97.15,1.03-.46.98-1.17h0c.07-.11.13-.22.2-.32.08-.13.16-.27.24-.4Z"/>
          <path class="cls-11" d="m312.58,84.89c-.56-.87-1.12-1.75-1.69-2.62-.79-1.22-1.58-2.43-2.35-3.65-.07-.12-.02-.31-.02-.47,2.1,2.3,4.32,4.49,5.7,7.38.46.96,1.56,1.59,2.18,2.5,1.67,2.47,3.28,4.98,4.8,7.54.25.43,1,1.36-.22,1.8-.32-.56-.64-1.12-.95-1.68-.1-.42-.06-1.06-.32-1.22-1.02-.64-1.2-1.77-1.77-2.65-.79-1.21-1.57-2.43-2.38-3.63-.32-.47-.7-.91-1.05-1.37,0,0,0,0,0,0-.24-.16-.47-.33-.71-.49-.32-.4-.65-.79-.97-1.19-.08-.08-.16-.16-.24-.24h0Z"/>
          <path class="cls-10" d="m282.37,104.29c-.29-.7-.57-1.41-.89-2.18.36-.05.46-.09.51-.06,1.48.91,1.66.84,3.38.9.7.02,1.37.66,2.23,1.11.97-.46,2.39.06,2.67,1.22-.85-.04-1.73-.76-2.76.12.36.28.67.43.84.67.45.66.13,1.67-.55,1.88-1.17-1.06-2.29-2.18-3.52-3.15-.44-.35-1.17-.34-1.76-.49-.05,0-.1-.01-.15-.02Z"/>
          <path class="cls-11" d="m267.99,41.94c-.93-.77-1.82-1.59-2.79-2.31-1.11-.84-2.29-1.59-3.44-2.38-.06-.04-.14-.11-.16-.17-.63-2.13-3.04-2.51-4.11-4.2-.16-.26-.25-.56-.37-.84,1.85,1.55,3.7,3.09,5.56,4.64.69.57,1.37,1.16,2.08,1.7,3.1,2.35,6.21,4.67,9.31,7.02.24.18.43.42.64.64-1.42-.63-3.28-.91-4.11-1.99-.78-1-1.54-1.64-2.61-2.1Z"/>
          <path class="cls-11" d="m318.3,140.08c1.51.67,3.03,1.35,4.54,2.02.4,1.07.8,2.14,1.21,3.21-.8-.14-1.6-.33-2.33.24-1.14-1.83-2.28-3.65-3.42-5.48Z"/>
          <path class="cls-6" d="m325.81,144.1c.42-.08.84-.22,1.26-.22,1,0,2.01.14,2.44-1.16.06-.19.79-.37,1.04-.24.24.13.44.75.33,1.03-.62,1.58-1.2,3.17-1.25,4.89-1.5-1.23-2.99-2.47-3.82-4.3Z"/>
          <path class="cls-10" d="m270.6,108.17c0-.16,0-.33,0-.49.13-1.63.11-1.66-1.43-1.66-.24-.16-.48-.32-.72-.49.68-1,1.76-.61,2.43-.33.81.33,1.44,1.22.95,2.34,1.38.51,2.19-.52,3.13-1.02.67-.35,1.17-1.01,1.83-1.37.49-.26,1.25-.5,1.66-.3.76.38.56,1.2.3,1.9-.24-.4-.47-.81-.71-1.21.02-.03.04-.06.06-.1-.02.03-.03.07-.05.1-.8.22-1.53.4-2.13,1.17-.58.74-1.5,1.4-2.4,1.64-.89.24-1.94-.09-2.91-.17Z"/>
          <path class="cls-1" d="m287.81,107.95c.68-.21,1-1.22.55-1.88-.17-.25-.48-.39-.84-.67,1.04-.89,1.91-.16,2.76-.12.16.08.31.17.47.25,1.25,1.82,3.12,2.85,5,3.87.45.24.82.63,1.23.96-2.11-.2-3.52-1.76-5.25-2.71-.28-.87-.88-1.3-1.76-1.35-.16.43-.28.79-.41,1.14-.12.41-.24.81-.4,1.36-.63.16-1.14-.03-1.34-.85Z"/>
          <path class="cls-1" d="m250.19,93.79c-1.09-.68-2.17-1.39-3.29-2.02-.28-.16-.69-.09-1.05-.13-1.11-1.37-2.22-2.73-3.33-4.1.38-.48.73-.59,1.26-.1,1.02.94,2.11,1.8,3.25,2.75-.13.61-.18,1.12.84,1.27.58.08,1.04.89,1.59,1.32.29.23.65.35.98.52,0,.08,0,.15,0,.23-.09.09-.17.17-.26.26Z"/>
          <path class="cls-1" d="m331.72,131.69c.74.19,1.48.38,2.34.6.12-1.47.23-2.69.33-3.9,1.3,1.64,1.71,3.54,1.87,5.52-.13.12-.25.23-.38.35-1.39-.86-2.77-1.71-4.16-2.57Z"/>
          <path class="cls-1" d="m247.57,118.52c.12.19.2.52.37.56,1.04.31,2.13.49,3.15.86.45.17.78.69,1.35,1.24-.78.31-1.24.5-1.76.71-.57-2-2.32-.96-3.46-1.48-.44-.2-.97-.22-1.43-.32.32-.6.58-1.1.84-1.6.32.01.63.02.95.03Z"/>
          <path class="cls-1" d="m206.93,15.88c1.27.46,2.56.86,3.8,1.39,1.24.52,2.41,1.2,3.63,1.75,1.29.57,2.17,1.41,2.24,2.9-1.37-1.05-2.67-2.19-4.12-3.11-1.25-.8-2.66-1.33-3.99-2-.54-.27-1.04-.61-1.56-.92Z"/>
          <path class="cls-10" d="m260.75,102.92c-.15-.01-.3-.02-.45-.04-.09-.39-.17-.79-.26-1.18.2.02.43-.02.58.07,1.28.72,2.51,1.51,3.81,2.17.78.39,1.69.53,2.49.9.34.15.54.61.8.92,0,.08,0,.15,0,.23-.24,0-.48,0-.71,0-.15-.21-.26-.56-.46-.61-1.12-.3-2.26-.53-3.39-.79-.08,0-.15-.01-.23-.02-.17-1.3-1.24-1.39-2.19-1.64Z"/>
          <path class="cls-1" d="m242.54,118.51c0,.61,0,1.21,0,1.82-1.1.66-2.21,1.32-3.31,1.99.08-.55.15-1.1.23-1.65.58-.53,1.14-1.1,1.77-1.56.38-.28.88-.4,1.32-.59Z"/>
          <path class="cls-11" d="m283.35,52.02c-.36.15-.72.3-1.03.43-1.75-.85-2.5-3.15-4.79-3.15-.06-.45-.13-.9-.19-1.36,2.01,1.36,4.01,2.72,6.02,4.07Z"/>
          <path class="cls-11" d="m321.41,102.1c-.33-1-.64-2.01-.99-3-.27-.75-.11-1.09.74-.9.56.8,1.17,1.54.78,2.69-.13.38.32.96.65,1.81-.61-.31-.89-.46-1.17-.6Z"/>
          <path class="cls-1" d="m218.22,23.77c1.28-.17,1.45.99,1.93,1.69.31.46.38,1.08.56,1.63.16.88.33,1.76.49,2.63-.7-1.48-1.4-2.96-2.12-4.42-.26-.53-.57-1.03-.86-1.54Z"/>
          <path class="cls-1" d="m202.26,11.51h1.37c-.08.69-.14,1.18-.19,1.67-.76.28-.51.89-.47,1.44-.41-.11-.82-.23-1.23-.34.01-.12.02-.24.03-.36.19-.04.38-.07.85-.17-.47-.18-.66-.26-.85-.33-.24-.31-.48-.63-.72-.94.46-.25,1.4.1,1.21-.96Z"/>
          <path class="cls-1" d="m232.48,6.7c.41.08.81.16,1.22.24.09,0,.16.03.21.1.07.06.14.11.2.17,0,0,.03.02.03.02.08.07.17.14.25.2,0,0,0,0,0,0,.09.07.19.15.28.22.75.58,1.49,1.15,2.24,1.73-.05.07-.09.15-.14.22-1.98.08-2.77-1.85-4.28-2.56-.05-.02-.01-.23-.01-.35Z"/>
          <path class="cls-1" d="m263.16,104.58c1.13.26,2.27.49,3.39.79.19.05.31.4.46.61-1.2-.24-2.4-.48-3.6-.72-.08-.23-.17-.45-.25-.68Z"/>
          <path class="cls-11" d="m289.55,107.45c.13-.35.26-.71.41-1.14.88.05,1.48.48,1.76,1.35-.72-.08-1.53.73-2.17-.21Z"/>
          <path class="cls-6" d="m321.72,145.56c.72-.57,1.53-.38,2.33-.24-.32.4-.66,1.13-.95,1.11-.47-.03-.92-.56-1.37-.87Z"/>
          <path class="cls-3" d="m282.37,104.29s.1.01.15.02c.18.36.36.72.6,1.19-1.29-.12-1.13,1.03-1.54,1.7-.4-1.15.25-2.01.8-2.9Z"/>
          <path class="cls-6" d="m239.45,120.66c-.08.55-.15,1.1-.23,1.65-.18.5-.36,1-.54,1.5-.31-1.22-.35-2.35.77-3.16Z"/>
          <path class="cls-11" d="m335.6,142.7c.72-.22.75-.79.7-1.39.32.47.63.93.95,1.4-.55-.02-1.11.77-1.65,0Z"/>
          <path class="cls-1" d="m203.45,14.81c.92-.2,2.59.34,2.89.93-.96-.31-1.93-.62-2.89-.93Z"/>
          <path class="cls-1" d="m328.9,130.94c-.27-.14-.58-.24-.79-.44-.16-.16-.22-.45-.28-.69,0-.04.32-.23.35-.21.17.17.31.39.45.59.09.25.18.5.26.75Z"/>
          <path class="cls-8" d="m297.96,111.28c.48.39.95.78,1.43,1.17-.48-.39-.95-.78-1.43-1.17Z"/>
          <path class="cls-1" d="m217.3,22.54c.2-.08.39-.16.59-.25,0,.34-.01.68-.02,1.03-.19-.26-.38-.52-.57-.78Z"/>
          <path class="cls-1" d="m333.93,128.06c-.04-.19-.09-.38-.13-.57.44.1.88.19,1.32.29-.4.09-.8.19-1.19.28Z"/>
          <path class="cls-8" d="m299.83,112.74c.33.31.66.62,1,.93-.33-.31-.66-.62-1-.93Z"/>
          <path class="cls-11" d="m306.26,75.56c-.29-.4-.59-.81-.88-1.21.29.4.59.81.88,1.21Z"/>
          <path class="cls-1" d="m325.52,141.91c-.26.11-.51.22-.77.33-.09-.16-.17-.31-.26-.47l1.02.14Z"/>
          <path class="cls-1" d="m245.9,121.36c.1-.21.2-.43.3-.64.14.21.28.42.41.63-.24,0-.48,0-.72.01Z"/>
          <path class="cls-11" d="m256.55,31.48c-.69.26-.79-.18-.83-.69.28.23.56.46.83.69Z"/>
          <path class="cls-10" d="m236.47,80.13c.26.33.52.65.78.98-.26-.33-.52-.65-.78-.98Z"/>
          <path class="cls-11" d="m286.47,54.4c-.25-.23-.5-.46-.76-.69.25.23.5.46.76.69Z"/>
          <path class="cls-11" d="m307.8,77.2c-.25-.22-.51-.44-.76-.66.25.22.51.44.76.66Z"/>
          <path class="cls-1" d="m268.45,105.52c.24.16.48.32.72.49-.24-.06-.49-.12-.73-.18,0-.1,0-.2.01-.3Z"/>
          <path class="cls-8" d="m315.62,135.53l.54.71c-.18-.24-.36-.47-.54-.71Z"/>
          <path class="cls-11" d="m287.93,55.61c-.18-.16-.35-.31-.53-.47.18.16.35.31.53.47Z"/>
          <path class="cls-11" d="m257.03,31.95c-.13-.13-.27-.26-.4-.4l.4.4Z"/>
          <path class="cls-1" d="m330.83,130.94c.15.1.29.19.44.29-.15-.1-.29-.19-.44-.29Z"/>
          <path class="cls-11" d="m275.85,46.77c-.07-.06-.14-.11-.21-.17.07.06.14.11.21.17Z"/>
          <path class="cls-11" d="m275.18,46.28c-.09-.07-.17-.14-.26-.21.09.07.17.14.26.21Z"/>
          <path class="cls-1" d="m267.72,105.99c0-.08,0-.15,0-.23.1.01.19.02.29.03-.1.07-.19.13-.29.2Z"/>
          <path class="cls-11" d="m287.14,54.92c-.08-.06-.15-.12-.23-.18.08.06.15.12.23.18Z"/>
          <path class="cls-11" d="m255.51,30.69c-.09-.06-.18-.13-.26-.19.09.06.18.13.26.19Z"/>
          <path class="cls-11" d="m286.73,54.65c-.09-.09-.18-.17-.27-.26.09.09.18.17.27.26Z"/>
          <path class="cls-11" d="m268.32,124.31c.04-.11.08-.21.12-.32-.04.11-.08.21-.12.32Z"/>
          <path class="cls-11" d="m285.46,53.49c-.07-.06-.15-.12-.22-.18.07.06.15.12.22.18Z"/>
          <path class="cls-11" d="m308.06,77.43c-.09-.08-.18-.16-.27-.24.09.08.18.16.27.24Z"/>
          <path class="cls-1" d="m216.83,22.08c.09.09.19.18.28.28-.09-.09-.19-.18-.28-.28Z"/>
          <path class="cls-1" d="m330.53,130.73c.09.07.19.14.28.2-.09-.07-.19-.14-.28-.2Z"/>
          <path class="cls-11" d="m234.11,7.2c-.07-.06-.14-.11-.2-.17.07.06.14.11.2.17Z"/>
          <path class="cls-11" d="m283.79,52.28c-.08-.06-.16-.11-.24-.17.08.06.16.11.24.17Z"/>
          <path class="cls-11" d="m237.98,10.31c-.07-.09-.14-.18-.21-.27.07.09.14.18.21.27Z"/>
          <path class="cls-11" d="m237.78,10.05c-.09-.08-.18-.16-.27-.24.09.08.18.16.27.24Z"/>
          <path class="cls-11" d="m287.41,55.14c-.09-.07-.17-.14-.26-.21.09.07.17.14.26.21Z"/>
          <path class="cls-8" d="m300.84,113.68c.08.07.16.15.23.22-.08-.07-.16-.15-.23-.22Z"/>
          <path class="cls-11" d="m234.67,7.65c-.09-.07-.19-.15-.28-.22.09.07.19.15.28.22Z"/>
          <path class="cls-11" d="m290.47,58.05c-.07-.07-.13-.13-.2-.2.07.07.13.13.2.2Z"/>
          <path class="cls-11" d="m289.98,57.56c-.07-.07-.13-.14-.2-.21.07.07.13.14.2.21Z"/>
          <path class="cls-11" d="m289.53,57.08c-.08-.08-.15-.15-.23-.23.08.08.15.15.23.23Z"/>
          <path class="cls-11" d="m234.38,7.43c-.08-.07-.17-.14-.25-.2.08.07.17.14.25.2Z"/>
          <path class="cls-11" d="m308.24,77.71c-.06-.1-.12-.19-.18-.29.06.1.12.19.18.29Z"/>
          <path class="cls-11" d="m289.29,56.84c-.08-.08-.15-.15-.23-.23.08.08.15.15.23.23Z"/>
          <path class="cls-11" d="m277.33,47.95c-.09-.06-.17-.13-.26-.19.09.06.17.13.26.19Z"/>
          <path class="cls-10" d="m303.22,90.9c.47,1.87,1.12,3.6,3.11,4.44.23.1.34.58.41.9.08.4.06.82.08,1.25.51-.03.89-.06,1.37-.09-.04.45-.08.81-.11,1.06,1.2.45,2.35.85,3.47,1.32.17.07.21.46.3.7-.38.12-.77.23-1.15.35.19.49.38.8.42,1.14.04.34-.06.7-.1,1.06-.28-.2-.57-.39-.84-.6-.32-.25-.61-.53-1.09-.94-.02,1.93.01,3.49,1.72,4.32.1.05.17.17.26.25,1.48,1.31,2.96,2.61,4.43,3.92.18.16.3.37.54.69-.81.05-1.42.09-2.03.13-1.43-1.09-2.86-2.18-4.39-3.34-.02.31-.03.54-.05.78-1.65-.22-2.69-1.45-2.08-2.75-1.36.87-2-.11-2.83-.77-1.14-.91-2.38-1.71-3.64-2.6.11-.12.31-.33.55-.59-.58-.72-2.77.34-1.84-1.7-.08-.09-.13-.15-.14-.15-2.05.98-2.42-.72-3.22-1.91-.36-.53-1.12-.86-1.76-1.12-1.38-.56-1.52-.81-1.42-2.31.03-.42-.4-.88-.62-1.31-1.5.74-4.58-1.06-5.18-2.84.9-.44,1.51.26,2.14.64.84.51,1.19.31,1.21-.61.01-.71.34-.81.98-.77,1.16.09,2.33.03,3.5.1.28.02.55.33.72.68-.49-.02-.99-.05-1.68-.08,1.07,1.6,3.84,3.22,4.8,2.91-.42-.45-1.64-.26-1.13-1.37.42-.91,1.47-1.02,2.7-.37-.23.24-.73.63-.68.74.39.77,1.02,1.24,1.99,1.16-.3-1.3-.33-2.63-1.63-3.37-.13-.07-.2-.54-.11-.61.18-.16.58-.32.71-.23.8.59,1.55,1.25,2.31,1.88Zm1.41,12.48c-.12-.12-.24-.23-.35-.35l-.4.44c.12.11.23.23.35.34.13-.15.27-.29.4-.44Z"/>
          <path class="cls-3" d="m238.7,50.84c-.18-.08-.47-.11-.52-.23-.4-1.1-.57-2.22-.1-3.52-.65-.34-1.4-.74-2.21-1.17.59-.57.92-1.08-.27-1.35-.05.32-.08.59-.12.86-.12,0-.25,0-.37,0,0-.84,0-1.67,0-2.51.42-.08.85-.18,1.27-.24.76-.1,1.23.1,1.14,1.02-.08.79.32,1.25,1.13,1.39.3.05.56.31.9.5.04-.06.17-.24.3-.41.06,0,.12,0,.13.02.89,1.59,1.94.33,2.94.18.22-.03.56-.06.67.07,1.29,1.49,3.51,1.53,4.63,3.27.08-.07.17-.13.25-.2l-.3-2.36c.09-.1.17-.19.26-.29.87.6,1.75,1.2,2.62,1.8-.05.11-.1.22-.15.34-.36.11-.72.22-1.12.34.12.69.23,1.35.35,2.01-.31.25-.61.5-1.11.91.66.21,1.05.34,1.5.48.23-.5.45-.97.67-1.44.1.01.19.03.29.04.2.62.41,1.23.64,1.93-1.48,1.61-3.39,1.26-5.38,1.26,0-.01.12-.1.25-.18l-.57-.59c-.12.13-.25.25-.37.38.18.16.37.31.69.39-.05.08-.21.32-.42.38-.55.16-1.12.24-1.75.36-1.79-1.44-3.88-2.69-4.97-5.01-.11.05-.22.09-.33.14-.19.47-.37.94-.56,1.42Zm9.65-.51c-.11.18-.25.31-.23.4.02.12.17.26.29.28.08.01.28-.18.27-.26-.02-.12-.16-.23-.32-.43Zm-.95,2c-.11.1-.22.15-.24.23-.02.09.05.2.08.3.1-.06.23-.11.29-.2.03-.05-.07-.18-.13-.33Z"/>
          <path class="cls-3" d="m242.54,16.31c.89.96,1.85,1.86,2.64,2.9.47.63.74,1.29,1.62,1.59.44.15.64.99.82,1.6,1.11.81,1.18.94.82,1.97.39.06.76.12.81.13,1.4,1.92,2.64,3.63,3.95,5.43-.39.2-.67.34-1.23.62.87.21,1.46.46,2.04.46,1.06,0,1.46.38,1.19,1.01.81.85,1.42,1.57,2.12,2.18.37.33.87.55,1.35.69.86.25,1.34.66.97,1.71.31-.11.51-.18.4-.15.72.7,1.23,1.59,1.94,1.81,1.81.57,2.87,1.96,4.08,3.21-1.81-.12-3.18-1.01-4.27-2.42-.13-.17-.43-.4-.56-.35-1.03.39-1.46-.18-1.96-.96-.51-.78-1.35-.9-2.31-.8-.62.06-1.29-.32-1.93-.51-.32,0-.64,0-.96,0,.23-1.45.23-1.45-1.37-1.55-.19-.01-.38-.13-.57-.19-.68-.23-1.38-.42-2.04-.71-.22-.1-.35-.42-.52-.64.24-.06.57-.25.7-.16.8.57,1.26-.06,1.68-.49.44-.45.9-.99-.24-1.37-1-.33-1.7-2.32-1.39-3.38-1.13.09-1.73-.6-1.88-1.73-.08-.64-.56-1.27-.97-1.83-.61-.83-1.58-1.5-1.9-2.42-.24-.67-.47-1.06-1.06-1.07-.3,0-.6.47-1.04.84-.07-.11-.3-.32-.33-.55-.22-1.63-.39-3.27-.58-4.9Z"/>
          <path class="cls-10" d="m282.84,83.22c-.45-.5-.98-.96-1.34-1.52-.77-1.2-.73-1.22.36-1.94-.87-.7-1.69-1.46-2.61-2.05-.65-.42-.32-.64,0-.96.69-.19,1.16-.51,1.25-1.34.07-.6.39-.68.99-.25,1.1.79,2.11,1.73,3.44,2.22.67.25,1.09.9.57,1.75-.7-.59-1.35-1.15-2.07-1.76-.24.33-.41.58-.58.82-.19.02-.37.04-.56.05l-.07.3c.37.12.74.24,1.11.37.06.2.17.4.17.6,0,.2-.11.4-.17.6-.08.56-.16,1.12-.24,1.68-.08.48-.16.96-.24,1.44Zm-.35-5.78c.13-.08.26-.16.39-.25-.15-.22-.3-.44-.45-.66-.1.06-.21.12-.31.19.12.24.25.48.37.72Zm-1.58.1c-.22-.11-.34-.2-.47-.21-.06,0-.2.17-.18.23.04.12.16.3.24.3.11,0,.22-.15.41-.31Z"/>
          <path class="cls-10" d="m289.07,87.78c.09-.18.32-.45.26-.54-.58-.89-.13-1.23.7-1.38.1,1.31,1.09.45,1.73.8.04-.39.08-.67.11-.93.78-.31,1.15.97.54,1.89-.15.22-.61.4-.86.34-.46-.11-.88-.41-1.31-.63.14.8.26,1.5.39,2.2-.16.06-.32.12-.48.18-.36-.64-.72-1.28-1.08-1.92Z"/>
          <path class="cls-10" d="m290.03,85.62c-.56-.16-1.12-.32-1.68-.48-.04-.91-.08-1.82-.12-2.73.21,0,.41,0,.62.01-.02.33-.07.66-.07.99,0,.24.01.54.15.71.1.13.4.11.61.15.47.09,1.22.02,1.35.27.39.75-.41.84-.87,1.07Z"/>
          <path class="cls-10" d="m284.03,80.82c.54.07,1.08.15,1.62.22-.06.41-.12.81-.18,1.22-.32-.16-.64-1.03-.96,0-.24-.16-.48-.32-.72-.48.08-.32.16-.64.24-.96Z"/>
          <path class="cls-9" d="m257.77,62.95l-.26,1.72c-.25-.05-.69-.05-.71-.15-.13-.62-.34-1.31.4-1.67.19.03.38.07.57.1Z"/>
          <path class="cls-10" d="m256.96,43.34c.32.62.62,1.2.96,1.84-1.31-.05-1.48-.41-.96-1.84Z"/>
          <path class="cls-9" d="m284.03,80.82c-.08.32-.16.64-.24.96-.24,0-.48,0-.72,0,.08-.56.16-1.12.24-1.68.24.24.48.48.72.72Z"/>
          <path class="cls-9" d="m284.51,82.26c.32-1.03.64-.16.96,0-.1.23-.21.45-.31.68-.22-.23-.43-.45-.65-.68Z"/>
          <path class="cls-10" d="m305.14,92.57c-1.01.16-1-.51-.96-1.2.32.4.64.8.96,1.2Z"/>
          <path class="cls-10" d="m287.34,81.53c.08-.31.16-.62.24-.92.15.05.3.1.44.15-.11.3-.22.6-.33.9-.12-.04-.24-.08-.36-.13Z"/>
          <path class="cls-10" d="m287.4,81.92h-.82c-.01-.08-.02-.16-.04-.24.28-.06.56-.12.84-.18,0,.14.01.28.02.43Z"/>
          <path class="cls-9" d="m260.77,65.95l.64-.77c.1.14.2.28.29.42-.31.12-.62.24-.93.35h0Z"/>
          <path class="cls-9" d="m283.31,78.9c-.37-.12-.74-.24-1.11-.37l.07-.3c.19-.02.37-.04.56-.05.16.24.32.48.48.72Z"/>
          <path class="cls-10" d="m292.5,83.13c-.19.13-.36.3-.41.27-.13-.08-.22-.24-.32-.37.12-.08.24-.22.35-.21.11,0,.21.16.38.32Z"/>
          <path class="cls-9" d="m268.88,73.32c-.13-.23-.26-.46-.39-.69.08-.05.17-.09.25-.14.12.23.25.47.37.7-.08.04-.15.09-.23.13Z"/>
          <path class="cls-10" d="m294.04,86.67c.07.03.17.04.19.09.02.05-.05.13-.08.19-.07-.03-.17-.04-.19-.09-.02-.05.05-.13.08-.2Z"/>
          <path class="cls-1" d="m238.71,54.2c.08-.13.16-.26.23-.38.05.05.1.1.15.15-.13.08-.26.16-.38.23,0,0,0,0,0,0Z"/>
          <path class="cls-8" d="m314.01,110.8c.61-.04,1.22-.08,2.03-.13-.24-.32-.37-.53-.54-.69-1.47-1.31-2.95-2.61-4.43-3.92-.09-.08-.15-.2-.26-.25-1.7-.84-1.74-2.39-1.72-4.32.47.41.77.69,1.09.94.27.21.56.4.84.6.04-.35.14-.71.1-1.06-.04-.34-.23-.66-.42-1.14.38-.11.77-.23,1.15-.35.08,0,.16,0,.24,0,.24.16.48.32.72.48,0,0,0,0,0,0,.45.37.45,1.4,1.44.96.08.08.16.16.24.24.48.4.96.8,1.44,1.2-1.26,1.13-1.26,1.47-.3,3.05.27.44.54,1.05.45,1.51-.15.76.15.99.75,1.21.28.1.74.48.7.59-.4,1.18.37,1.18,1.14,1.25.28.03.55.18,1.17.39-.76.54-1.27.91-1.8,1.29.6.32,1.39.66,2.08,1.12.71.48,1.38,1.04,1.98,1.64,1.13,1.13,2.18,2.33,3.3,3.46.16.16.54.1.82.14,0-.24,0-.49-.03-.72-.05-.35-.13-.69-.2-1.03.56.72,1.12,1.44,1.68,2.15-.09,1.57-1.5.56-2.14,1.08-.08.07-.28,0-.45,0-.07,1.69,2.29,1.75,2.27,3.68-1.34-1.12-2.73-1.88-3.53-3.04-1.18-1.7-2.45-3.31-3.83-4.85.32-.1.64-.2.96-.3-.07-.12-.13-.25-.2-.37-.25.14-.51.29-.76.43-.72-.64-1.44-1.28-2.16-1.92.12-.28.23-.56.44-1.06-.54.16-.85.25-1.16.34-1.04-.88-2.08-1.76-3.12-2.64Zm.58-6.97c.05-.18.1-.35.15-.53-.5-.14-1-.28-1.51-.42-.05.16-.09.33-.14.49l1.5.46Zm2.83,8.62c.02-.05.04-.11.06-.16-.12-.06-.24-.13-.35-.19-.03.09-.07.18-.1.26.13.03.26.06.39.09Z"/>
          <path class="cls-8" d="m314.97,116.32c-.23-1.23-1.33-1.66-2.15-2.35-.11-.09-.36-.01-.46-.1-1.37-1.32-2.73-2.65-4.09-3.97.07-.11.13-.23.2-.34.47.25.99.44,1.39.77,2.01,1.65,3.99,3.33,5.98,5.01,1.95,1.64,3.91,3.26,5.83,4.93,1.54,1.34,3.04,2.73,4.52,4.14.2.19.19.59.28.9l-.39.3c-1.08-1-2.16-1.99-3.24-2.99-.75-.69-1.38-1.52-2.67-1.09-.39.13-1.06-.35-1.51-.68-.89-.64-1.72-1.37-2.57-2.06-1.42-1.16-2.82-2.34-4.26-3.48-1.38-1.09-2.8-2.14-4.19-3.22-3.16-2.44-6.31-4.9-9.47-7.34-1.41-1.09-2.82-2.19-4.22-3.28l.18-.35c.78.44,1.61.82,2.33,1.34,2.31,1.69,4.6,3.42,6.88,5.15,1.95,1.48,3.9,2.97,5.81,4.51,1.19.96,2.26,2.06,3.47,2.99.69.53,1.55.83,2.33,1.23.8,1.35,2.13,2.01,3.29,2.9.12-.17.25-.34.37-.5-1.22-.8-2.44-1.6-3.66-2.39Zm4.81,4.35c.14-.07.27-.15.41-.22-.2-.25-.4-.5-.6-.75-.09.06-.18.13-.28.19.15.26.31.52.46.78Z"/>
          <path class="cls-10" d="m298.95,102.86c1.02-.37,5.11,2.36,6.21,4.16-.7-.38-1.44-.72-2.1-1.16-.59-.4-1.09-.93-1.67-1.36-.72-.53-1.49-1-2.44-1.64Z"/>
          <path class="cls-10" d="m292.49,97.27c1.6,1.15,3.2,2.31,4.97,3.58-1.16.34-4.77-2.13-5.2-3.22.08-.12.16-.24.23-.36Z"/>
          <path class="cls-8" d="m255.19,68.99c-.11.52-.21.98-.35,1.68-.81-.42-1.5-.79-2.21-1.16.25-.61.45-1.07.7-1.67.64.4,1.26.78,1.86,1.16Z"/>
          <path class="cls-8" d="m240.38,66.19c-1.18-.12-2.07-.57-2.16-1.92,1,.03,2.11-.41,2.85.84-.2.32-.45.7-.69,1.08Z"/>
          <path class="cls-5" d="m255.12,77.17c.59.79,1.02,1.37,1.59,2.14-.86-.25-1.56-.45-2.33-.67.16-.33.36-.73.73-1.47Z"/>
          <path class="cls-8" d="m243.74,69.79c-.16-.16-.32-.32-.48-.48.27-.28.54-.55.81-.83.13.11.26.21.39.32-.24.33-.48.66-.71.99Z"/>
          <path class="cls-3" d="m317.13,113.44c.31-.09.63-.19,1.16-.34-.21.5-.33.78-.44,1.06-.24-.24-.48-.48-.72-.72Z"/>
          <path class="cls-10" d="m239.46,60.28c-.19-.16-.41-.26-.42-.39-.01-.11.22-.38.3-.36.19.03.35.2.52.32-.12.13-.23.26-.4.44Z"/>
          <path class="cls-3" d="m320.01,116.08c.25-.14.51-.29.76-.43.07.12.13.25.2.37-.32.1-.64.2-.96.3,0-.08,0-.16,0-.24Z"/>
          <path class="cls-10" d="m246.86,72.43c-.32-.32-.64-.64-.96-.96.32.32.64.64.96.96Z"/>
          <path class="cls-8" d="m257.56,70.57c-.07.03-.15.09-.2.07-.05-.02-.06-.12-.08-.19.07-.03.15-.09.2-.07.05.02.06.12.08.19Z"/>
          <path class="cls-5" d="m258.27,80.04c-.03.07-.06.13-.09.2-.07-.03-.17-.04-.19-.09-.02-.05.05-.13.08-.2.07.03.13.06.2.09Z"/>
          <path class="cls-5" d="m252.44,76.9c-.07-.03-.17-.04-.19-.09-.02-.05.05-.13.08-.2.07.03.17.04.19.09.02.05-.05.13-.07.2Z"/>
          <path class="cls-8" d="m242.54,16.31c.19,1.64.37,3.27.58,4.9.03.24.27.44.33.55.44-.37.74-.85,1.04-.84.59,0,.82.39,1.06,1.07.32.91,1.29,1.58,1.9,2.42.41.56.88,1.19.97,1.83.15,1.13.74,1.83,1.88,1.73-.32,1.06.39,3.05,1.39,3.38,1.14.38.68.92.24,1.37-.42.43-.88,1.06-1.68.49-.13-.09-.46.1-.7.16.17.22.3.54.52.64.66.28,1.36.48,2.04.71.19.06.37.18.57.19,1.6.1,1.6.1,1.37,1.55-.13.46-.27.91-.4,1.37-.69-.46-1.65.6-2.24-.41.29-.03.57-.06.9-.1-.07-.35-.12-.61-.18-.86.89-.44,0-.8-.08-1.19-.02-.08-.37-.09-.57-.14.03.33.06.65.1.98.01.12.04.23.07.34-.08.32-.16.64-.24.96-1.15-.55-1.98-1.7-3.54-1.53-.71.07-1.31-.56-1.08-1.67.23-1.1.01-2.28.76-3.29.15-.21.03-.62.03-.94.69,0,.99-.3.41-.82-.6-.55-1.03-.94-.59-1.89.19-.4-.34-1.14-.56-1.75-.87.06-1.8.13-2.67.19-.73-.42-1.46-.84-2.27-1.32.21-.65.54-1.42.67-2.21.05-.32-.28-.75-.52-1.06-.26-.33-.83-.56-.87-.88-.04-.35.37-.76.65-1.26-.5-.31-1.16-.73-1.91-1.2.42-.27.8-.51,1.18-.75.08-.24.16-.48.24-.72,0-.08,0-.16,0-.24.24,0,.48,0,.72,0,.16.08.32.16.48.24Zm5.45,17.35c-.13.02-.27.05-.4.07.15.34.22.76.47,1.01.24.26.65.36.99.53.03-.1.07-.19.1-.29-.39-.44-.77-.88-1.16-1.32Zm-2.17-9.11c-.07-.12-.14-.24-.21-.36-.25.19-.49.38-.74.57.07.09.14.18.2.27.25-.16.5-.32.75-.48Z"/>
          <path class="cls-3" d="m232.48,6.7c0,.12-.03.32.01.35,1.51.72,2.3,2.64,4.28,2.56-.07.39-.15.78-.22,1.18-1.03-.05-2.26.31-2.52-1.29-.02-.13-.5-.22-.78-.27-.33-.07-.73.03-1.01-.12-1.38-.76-2.69-1.68-4.12-2.32-.66-.3-1.07-.71-1.54-1.18-.69-.69-1.02-.22-1.15.38-.52,0-1.04-.13-1.44.02-1.43.56-1.41.69-.51,1.95.42.58.66,1.29,1.07,2.1-.08.02-.49.23-.6.13-.41-.38-.69-.95-1.39-.5-.63-1.06-1.66-.34-2.47-.58-.44-.13-1.19-.44-1.18-.64.03-.73.59-.76,1.23-.59.22.06.51-.16.74-.51-1.25-.38-2.51-.76-3.76-1.14-.08-.73.25-1.12.97-1.19,1.74-.16,3.48-.37,5.23-.46.76-.04,1.12-.23,1.01-1.01.16,0,.33.02.49.02.34.95.86.79,1.44.23.16.08.32.15.48.23.1.55.32.69.74.23.15,0,.3,0,.46,0,.76.71,1.47,1.54,2.66,1.46,0,0,0,0,0,0,.32.16.64.31.97.47.31.16.63.33.94.49Z"/>
          <path class="cls-8" d="m213.03,5.26c.24,0,.49,0,.73,0,.29.21.54.52.87.62.4.12.86.07,1.29.1,0,.08,0,.16,0,.24-.76.09-1.52.15-2.28.29-.25.04-.5.23-.69.42-.58.59-1.18.93-1.96.24-.23.42-.41.76-.55,1.01-1.85-.14-3.63-.27-5.41-.41-.02.12-.05.24-.07.36.62.48,1.23.97,1.85,1.45-.48-.08-.96-.16-1.44-.24-1.77-.57-3.28-1.5-4.5-2.98,2.22-1.21,5.25-1.13,6.06-.17,1.44,0,2.7.04,3.96-.02.8-.04,1.95.58,2.15-.92Z"/>
          <path class="cls-1" d="m215.92,5.99c-.43-.03-.89.02-1.29-.1-.32-.1-.58-.4-.87-.62,1.48.39,2.63-.58,3.93-.93,1.86-.49,3.76-.83,5.65-1.17.29-.05.64.25.96.39.12.79-.25.98-1.01,1.01-1.75.08-3.49.29-5.23.46-.72.07-1.05.46-.97,1.19-.15,0-.31,0-.46,0-.24-.08-.48-.15-.72-.23Z"/>
          <path class="cls-3" d="m242.06,16.06c-.24,0-.48,0-.72,0-1.61-.39-2.61-1.41-3.22-2.94-.17-.42-.79-.66-1.37-.76-.06-.53-.13-1.05-.19-1.58,1.2.22,2.09.78,2.81,1.86.69,1.04,1.77,1.81,2.64,2.73.12.13.05.45.07.69Z"/>
          <path class="cls-8" d="m257.4,40.76c-.6.47-1.11.93-1.15.89-.61-.56-1.15-1.19-1.71-1.81.29-.25.74-.76.83-.7.63.4,1.19.93,2.02,1.62Z"/>
          <path class="cls-1" d="m213.05,11.97c.56.08,1.12.15,1.68.23.16,0,.31.01.47.02.16,0,.32,0,.48,0,.5.09,1.03.1,1.48.3.26.12.39.53.58.82-.39.09-.82.32-1.17.23-.79-.19-1.55-.54-2.32-.83-.41-.24-.81-.49-1.22-.73,0,0,.03-.03.03-.03Z"/>
          <path class="cls-8" d="m228.22,30.56v.98c-.21,0-.43-.02-.64-.02.05-.33.11-.66.16-.99.16,0,.32.02.48.03Z"/>
          <path class="cls-8" d="m208.73,10.06c-.4-.16-.8-.32-1.2-.48.39-.39.65-.28,1.2.48Z"/>
          <path class="cls-8" d="m247.29,30.13c-.15-.19-.3-.38-.45-.57.1-.1.19-.19.29-.29.19.2.38.39.57.59-.13.09-.27.18-.4.27Z"/>
          <path class="cls-3" d="m241.34,16.31l-.24.72.24-.72Z"/>
          <path class="cls-3" d="m215.92,5.99c.24.08.48.15.72.23-.24,0-.48,0-.73.01,0-.08,0-.16,0-.24Z"/>
          <path class="cls-8" d="m252.28,41.18c-.03.07-.04.17-.09.19-.05.02-.13-.05-.19-.08.03-.07.04-.17.09-.19.05-.02.13.05.2.08Z"/>
          <path class="cls-3" d="m237.66,13.73c-.07.03-.15.09-.2.07-.05-.02-.06-.12-.08-.19.07-.03.15-.09.2-.07.05.02.06.12.08.19Z"/>
          <path class="cls-3" d="m215.68,12.21c-.16,0-.32,0-.48,0,.16,0,.32,0,.48,0Z"/>
          <path class="cls-1" d="m278.04,105.52c.24.4.47.81.71,1.21,0,.08,0,.15,0,.22-.08.16-.15.32-.23.48-.32.32-.64.64-.96.96-.48.32-.96.63-1.45.95-.08,0-.16,0-.24,0-1.04.53-2.07,1.06-3.11,1.59-1.12,1.07-2.24,2.14-3.36,3.21-.74-.77.21-1.43.17-2.18,0-.18.53-.39.81-.58.46-.31,1.04-.54,1.31-.96.12-.19-.4-.77-.61-1.19-.18-.36-.33-.73-.49-1.09.98.08,2.02.41,2.91.17.89-.24,1.82-.9,2.4-1.64.6-.77,1.33-.94,2.13-1.17h0Zm-5.32,4.08c-.14-.09-.23-.19-.31-.18-.08,0-.16.12-.24.18.08.06.15.17.24.18.08,0,.17-.09.31-.18Z"/>
          <path class="cls-10" d="m252.59,96.69c-.08,0-.15,0-.23-.02-.15-.48-.31-.96-.46-1.44.53.2,1.27.25,1.56.64,1.33,1.74,2.65,3.38,4.92,4.04.45.13.65,1.17.96,1.79-.56-.07-1.13-.15-1.69-.22,0,0,0,0,0,0-1.29-2.01-3.15-3.41-5.04-4.78Z"/>
          <path class="cls-1" d="m257.64,101.47c.56.07,1.13.15,1.69.22.23,0,.47,0,.7,0,.09.39.17.79.26,1.18-1.06-.14-2.06-.39-2.66-1.41Z"/>
          <path class="cls-1" d="m251.89,95.23c.15.48.31.96.46,1.44-1.03-.38-1.68-1.08-1.9-2.17.23,0,.47,0,.7,0,.25.24.49.48.74.73Z"/>
          <path class="cls-9" d="m272.08,90.71c-1.09.43-1.38-.14-1.48-1.02.44.3.88.61,1.48,1.02Z"/>
          <path class="cls-10" d="m251.16,94.5c-.23,0-.47,0-.7,0-.09-.23-.18-.47-.26-.7.09-.09.17-.17.26-.26.36.22.72.44,1.08.66-.12.1-.25.2-.37.31Z"/>
          <path class="cls-10" d="m276.11,109.36c.48-.32.96-.63,1.45-.95-.48.32-.96.63-1.45.95Z"/>
          <path class="cls-9" d="m269.25,88.3c-.25.03-.41.1-.49.05-.1-.07-.14-.24-.2-.37.13-.04.28-.15.38-.12.1.04.16.21.31.44Z"/>
          <path class="cls-9" d="m274.92,93.53c-.21-.1-.42-.21-.63-.31.07-.09.14-.17.21-.26.14.19.28.38.42.56h0Z"/>
          <path class="cls-10" d="m278.52,107.44c.08-.16.15-.32.23-.48-.08.16-.15.32-.23.48Z"/>
          <path class="cls-9" d="m274.92,93.53c.12.1.24.19.37.29-.03.03-.05.05-.08.08-.1-.12-.19-.24-.29-.36h0Z"/>
          <path class="cls-10" d="m294.35,65.71c1.04.72,2.08,1.44,3.11,2.16-.02.35-.04.7-.08,1.36-1.5-.37-2.95-.57-4.26-1.12-.83-.34-1.44-1.2-2.25-1.93,1.32-.18,2.4-.33,3.47-.48Z"/>
          <path class="cls-1" d="m314.5,86.82c.35.45.73.89,1.05,1.37.81,1.2,1.59,2.41,2.38,3.63.58.89.75,2.02,1.77,2.65.26.16.22.8.32,1.22-1.04-.95-2.77-1.21-2.95-3.04-.03-.3-.56-.52-.8-.83-.34-.42-.62-.88-.82-1.41-1.32-.84-1.54-1.43-.98-3,.06-.18.03-.39.04-.59Z"/>
          <path class="cls-8" d="m300.83,72.66c.08,0,.16,0,.24,0,.48.32.96.64,1.44.96,0,0,0,0,0,0,.16.16.32.32.48.48l1.44,2.16c-.15.31-.29.62-.48,1.02-1.68-1.76-3.3-3.46-5.05-5.29.74.26,1.33.47,1.93.68Z"/>
          <path class="cls-8" d="m315.21,97.85c-.58.07-1.16.14-1.75.2-.2.02-.44.08-.58-.01-.68-.44-1.33-.92-1.99-1.39.43-.39.87-.78,1.4-1.27.55,1.42,2.45,1.03,2.92,2.47Z"/>
          <path class="cls-8" d="m309.46,95.69c-.48-.48-.96-.95-1.44-1.43.79.16,1.43.48,1.44,1.43Z"/>
          <path class="cls-8" d="m307.24,88.73c.24.09.48.17.7.28.02.01-.05.3-.07.29-.25-.02-.5-.06-.75-.1.04-.16.08-.32.12-.48Z"/>
          <path class="cls-8" d="m305.96,88.11v-.92c.09,0,.19-.01.28-.02.02.31.04.62.06.93-.11,0-.23,0-.34.01Z"/>
          <path class="cls-8" d="m301.3,80.97c.14.18.28.35.43.53-.12.08-.23.16-.35.24-.14-.2-.28-.4-.41-.6.11-.05.22-.11.33-.16Z"/>
          <path class="cls-8" d="m303.81,86.69v-.69c.08,0,.16,0,.23-.01.02.23.04.46.06.69-.1,0-.2,0-.3.01Z"/>
          <path class="cls-1" d="m313.79,86.32c.24.16.47.33.71.49-.24-.16-.47-.33-.71-.49Z"/>
          <path class="cls-1" d="m312.58,84.9c.08.08.16.16.24.24-.08-.08-.16-.16-.24-.24Z"/>
          <path class="cls-3" d="m233.43,61.39c-.11.05-.22.16-.32.15-1.45-.15-2.9-.32-4.55-.51.54-.61.95-1.08,1.3-1.48-.6-.48-1.33-.92-1.82-1.54-.17-.22.13-1.01.43-1.35.31-.35.91-.42,1.34-.68.2-.12.48-.46.43-.59-.47-1.26.27-1.55,1.25-1.72.16-.03.3-.21.57-.41-.36-.28-.64-.51-1-.79,1.15-1.08.03-3.59,2.57-4.06-.32,1.79.34,3.07,1.18,4.33.22.33.21.8.3,1.21-.38-.44-.76-.89-1.14-1.33.17,1.46-1.1,1.67-2.23,2.2.58.31,1.01.4,1.08.6.13.39.25,1.02.04,1.25-.6.66-1.36,1.17-2.06,1.74.04.16.08.31.13.47.49-.06.98-.07,1.46-.18.36-.08.7-.28,1.05-.43.92.82,1.25,1.65.08,2.55-.11.08-.06.37-.08.56Z"/>
          <path class="cls-8" d="m233.9,70.99c-.24-.08-.48-.16-.71-.25-.16-.06-.32-.15-.48-.23-.54-1.46-.26-1.74,1.55-1.52.2-.68.41-1.38.61-2.07.24-.24.48-.48.72-.72,0-.08,0-.16,0-.24.69.05,1.01-.26.96-.95.15.25.4.48.44.74.07.47,0,.95,0,1.43.33-.07.78-.3.98-.17.45.3,1.1.78,1.1,1.19-.01.87-.27,1.8-.66,2.59-.21.43-.9.62-1.38.93-.32-.16-.63-.32-.95-.48-.12-.55-.25-1.11-.37-1.66-.13-.06-.25-.11-.38-.17-.47.53-.95,1.06-1.42,1.6Zm3.01-1.88c-.08-1.15-.13-1.17-1.22-.57.43.2.75.35,1.22.57Z"/>
          <path class="cls-8" d="m233.43,61.39c.02-.19-.02-.48.08-.56,1.17-.9.84-1.73-.08-2.55.34.09.71.14,1.02.29.47.23,1.31.6,1.28.79-.12.78.25,1.84-.85,2.27-.24,0-.48,0-.72,0-.24-.08-.48-.16-.72-.25Z"/>
          <path class="cls-3" d="m234.14,61.64c.24,0,.48,0,.72,0,0,.16,0,.32,0,.48.08.24.16.48.24.72.08.4.16.8.24,1.2-1-.78-1.48-.37-1.68.72-.68-.49-.68-1.62-.06-2.19.25-.23.36-.61.54-.92Z"/>
          <path class="cls-8" d="m233.67,64.75c.19-1.09.68-1.5,1.68-.72.24.32.48.64.72.96-.48,0-.96,0-1.44,0-.32-.08-.64-.16-.96-.24Z"/>
          <path class="cls-3" d="m234.63,65c.48,0,.96,0,1.44,0,.16,0,.32,0,.48,0,.05.69-.27,1.01-.96.95-.32-.32-.64-.64-.96-.95Z"/>
          <path class="cls-8" d="m235.11,62.83c-.08-.24-.16-.48-.24-.72.08.24.16.48.24.72Z"/>
          <path class="cls-3" d="m235.58,66.19c-.24.24-.48.48-.72.72.24-.24.48-.48.72-.72Z"/>
          <path class="cls-8" d="m316.93,130.35l1.32,1.92-.29.39c-.5-.09-1.27-.02-1.45-.3-.27-.45-.13-1.14-.17-1.73.2-.09.39-.19.59-.28Z"/>
          <path class="cls-8" d="m324.31,133.15c-.33-.2-.65-.4-.98-.61l.2-.35c.36.17.71.34,1.07.51-.1.15-.19.3-.29.44Z"/>
          <path class="cls-1" d="m329.85,139.3c.16.03.32.05.48.08-.16-.03-.32-.05-.48-.08Z"/>
          <path class="cls-3" d="m302.5,73.63c-.48-.32-.96-.64-1.44-.96.8-.16,1.11.41,1.44.96Z"/>
          <path class="cls-3" d="m302.98,74.11c-.16-.16-.32-.32-.48-.48.16.16.32.32.48.48Z"/>
          <path class="cls-3" d="m326,117.28c.07.34.15.68.2,1.03.03.24.02.48.03.72-.28-.04-.66.02-.82-.14-1.12-1.13-2.18-2.33-3.3-3.46-.6-.6-1.27-1.17-1.98-1.64-.69-.47-1.47-.8-2.08-1.12.54-.38,1.05-.75,1.8-1.29-.62-.21-.89-.37-1.17-.39-.78-.07-1.55-.07-1.14-1.25.04-.11-.42-.49-.7-.59-.6-.22-.9-.45-.75-1.21.09-.46-.18-1.07-.45-1.51-.97-1.58-.96-1.92.3-3.05.4.24.8.48,1.2.71,0,0,0,0,0,0,.32.4.64.8.96,1.2,1.53,1.21,2.28,2.94,3.16,4.61.54,1.03,1.4,1.89,2.11,2.83.4.64.8,1.28,1.2,1.92.08.16.16.32.24.48-.15,1.39.1,1.79,1.2,1.92,0,.08,0,.16,0,.24Z"/>
          <path class="cls-10" d="m317.13,104.08c-.4-.24-.8-.48-1.2-.71-.48-.4-.96-.8-1.44-1.2,1.23.02,2.21.74,2.64,1.91Z"/>
          <path class="cls-8" d="m326,117.04c-1.1-.13-1.35-.53-1.2-1.92.4.64.8,1.28,1.2,1.92Z"/>
          <path class="cls-8" d="m324.56,114.64c-.4-.64-.8-1.28-1.2-1.92,1.02.25.99,1.16,1.2,1.92Z"/>
          <path class="cls-10" d="m314.25,101.92c-.98.44-.99-.59-1.44-.96.48.32.96.64,1.44.96Z"/>
          <path class="cls-10" d="m318.09,105.28c-.32-.4-.64-.8-.96-1.2.32.4.64.8.96,1.2Z"/>
          <path class="cls-10" d="m312.82,100.97c-.24-.16-.48-.32-.72-.48.24.16.48.32.72.48Z"/>
          <path class="cls-9" d="m329.46,118.54c.03-.07.04-.17.09-.19.05-.02.13.05.19.08-.03.07-.04.17-.09.19-.05.02-.13-.05-.2-.08Z"/>
          <path class="cls-1" d="m213.03,5.26c-.2,1.5-1.35.88-2.15.92-1.26.06-2.52.02-3.96.02-.81-.96-3.84-1.04-6.06.17,1.22,1.49,2.73,2.42,4.5,2.98-.39.15-.78.45-1.16.43-2.65-.18-5.29-.5-7.94-.63-.96-.05-1.94.28-2.9.44.18-1.48,1.15-2.05,2.49-2.42,1.75-.49,3.41-1.35,5.18-1.74,2.25-.49,4.53-.74,6.89-.29,1.65.31,3.4.1,5.1.12Z"/>
          <path class="cls-10" d="m202.26,11.51c.19,1.06-.75.71-1.21.96-1.77.58-2.77-.03-2.5-1.55,1.23.2,2.47.39,3.7.59Z"/>
          <path class="cls-1" d="m213.03,12c-1.37-.16-2.74-.32-4.11-.47-1.31-.14-2.62-.26-3.93-.38.02-.2.04-.4.06-.6.94.08,1.87.13,2.8.26,1.48.2,2.96.44,4.43.71.28.05.51.3.77.45,0,0-.03.03-.03.03Z"/>
          <path class="cls-10" d="m201.77,13.41c.19.08.39.15.85.33-.47.09-.66.13-.85.17,0-.17,0-.33,0-.5Z"/>
          <path class="cls-10" d="m233.9,70.99c.47-.53.95-1.06,1.42-1.6.13.06.25.11.38.17.12.55.25,1.11.37,1.66-.08.65-.4.8-.96.48-.4-.24-.8-.48-1.2-.72Z"/>
          <path class="cls-1" d="m234.37,72.9c-.21-.17-.41-.35-.62-.52.1-.11.19-.23.29-.34.2.18.4.36.6.54l-.27.32Z"/>
          <path class="cls-1" d="m230.57,5.73c-1.2.07-1.9-.75-2.66-1.46.93-.24,2.34.53,2.66,1.46Z"/>
          <path class="cls-1" d="m226.24,3.81c-.58.57-1.1.72-1.44-.23.48.08.96.15,1.44.23Z"/>
          <path class="cls-1" d="m227.45,4.27c-.41.46-.64.31-.74-.23.25.08.49.15.74.23Z"/>
          <path class="cls-1" d="m231.54,6.2c-.32-.16-.64-.31-.97-.47.32.16.64.31.97.47Z"/>
          <path class="cls-8" d="m332.57,138.69c.03-.07.04-.17.09-.19.05-.02.17.03.19.08.02.05-.05.13-.08.2-.07-.03-.14-.06-.2-.09Z"/>
          <path class="cls-1" d="m252.59,96.69c1.9,1.36,3.75,2.77,5.04,4.78-.34-.1-.76-.11-1-.32-1.21-1.03-2.39-2.08-3.52-3.2-.3-.29-.35-.83-.52-1.26Z"/>
          <path class="cls-1" d="m260.75,102.92c.96.24,2.02.34,2.19,1.64-.73-.55-1.46-1.09-2.19-1.64Z"/>
          <path class="cls-11" d="m272.48,114.6c.33-.39.65-.78.98-1.17.05.7-.01,1.32-.98,1.17Z"/>
          <path class="cls-11" d="m273.47,113.42c.07-.11.13-.21.2-.31-.07.11-.13.21-.2.31Z"/>
          <path class="cls-1" d="m278.04,105.53s.03-.07.05-.1c-.02.03-.04.06-.06.1,0,0,0,0,0,0Z"/>
          <path class="cls-9" d="m304.63,103.38c-.13.15-.27.29-.4.44-.12-.11-.23-.23-.35-.34l.4-.44c.12.12.24.23.35.35Z"/>
          <path class="cls-8" d="m248.34,50.34c.16.2.31.31.32.43.01.08-.19.27-.27.26-.11-.02-.26-.17-.29-.28-.02-.09.12-.22.23-.4Z"/>
          <path class="cls-8" d="m246.58,53.63c-.18-.16-.37-.31-.55-.47.12-.13.25-.25.37-.38l.57.59-.39.26Z"/>
          <path class="cls-8" d="m247.4,52.33c.06.15.16.27.13.33-.05.09-.19.14-.29.2-.03-.1-.1-.21-.08-.3.02-.08.13-.13.24-.23Z"/>
          <path class="cls-9" d="m282.48,77.44c-.12-.24-.25-.48-.37-.72.1-.06.21-.12.31-.19.15.22.3.44.45.66-.13.08-.26.16-.39.25Z"/>
          <path class="cls-9" d="m280.9,77.53c-.2.16-.3.31-.41.31-.09,0-.2-.18-.24-.3-.02-.05.12-.23.18-.23.13.01.25.1.47.21Z"/>
          <path class="cls-3" d="m314.6,103.83l-1.5-.46c.05-.16.09-.33.14-.49.5.14,1,.28,1.51.42-.05.18-.1.35-.15.53Z"/>
          <path class="cls-10" d="m317.43,112.45c-.13-.03-.26-.06-.39-.09.03-.09.07-.18.1-.26.12.06.24.13.35.19-.02.05-.04.11-.06.16Z"/>
          <path class="cls-9" d="m314.97,116.32c1.22.8,2.44,1.6,3.66,2.39-.12.17-.25.34-.37.5-1.16-.88-2.49-1.55-3.29-2.9h0Z"/>
          <path class="cls-9" d="m319.79,120.67c-.15-.26-.31-.52-.46-.78.09-.06.18-.13.28-.19.2.25.4.5.6.75-.14.07-.27.15-.41.22Z"/>
          <path class="cls-10" d="m247.99,33.66c.39.44.77.88,1.16,1.32-.03.1-.07.19-.1.29-.34-.17-.75-.27-.99-.53-.24-.26-.32-.67-.47-1.01.13-.02.27-.05.4-.07Z"/>
          <path class="cls-3" d="m251.66,36.45c-.02-.11-.05-.23-.07-.34-.04-.33-.07-.65-.1-.98.2.04.56.06.57.14.08.39.97.75.08,1.19-.16,0-.32,0-.48,0Z"/>
          <path class="cls-10" d="m251.66,36.45c.16,0,.32,0,.48,0,.05.26.1.51.18.86-.33.04-.61.07-.9.1.08-.32.16-.64.24-.96Z"/>
          <path class="cls-10" d="m245.82,24.55c-.25.16-.5.32-.75.48-.07-.09-.14-.18-.2-.27.25-.19.49-.38.74-.57.07.12.14.24.21.36Z"/>
          <path class="cls-11" d="m272.72,109.6c-.14.09-.23.19-.31.18-.08,0-.16-.12-.24-.18.08-.06.15-.18.24-.18.08,0,.17.09.31.18Z"/>
          <path class="cls-10" d="m236.92,69.1c-.47-.22-.79-.37-1.22-.57,1.09-.61,1.14-.58,1.22.57Z"/>
        </g>
      </g>
    </g>
  </g>
</svg>