<?xml version="1.0" encoding="UTF-8"?>
<svg xmlns="http://www.w3.org/2000/svg" xmlns:xlink="http://www.w3.org/1999/xlink" viewBox="0 0 360 258.1">
  <defs>
    <style>
      .cls-1 {
        fill: #767376;
      }

      .cls-1, .cls-2, .cls-3, .cls-4, .cls-5, .cls-6, .cls-7, .cls-8, .cls-9, .cls-10, .cls-11 {
        stroke-width: 0px;
      }

      .cls-2 {
        fill: #322f33;
      }

      .cls-12, .cls-13, .cls-8 {
        fill: #3d3d3d;
      }

      .cls-12, .cls-13, .cls-14 {
        stroke: #292929;
        stroke-miterlimit: 10;
      }

      .cls-12, .cls-14 {
        stroke-width: .25px;
      }

      .cls-15 {
        isolation: isolate;
      }

      .cls-16 {
        fill: #141414;
        stroke: #525252;
        stroke-linejoin: round;
      }

      .cls-4 {
        fill: #101012;
      }

      .cls-13 {
        stroke-width: .5px;
      }

      .cls-5 {
        fill: none;
      }

      .cls-17 {
        clip-path: url(#clippath-1);
      }

      .cls-6 {
        fill: #13161d;
      }

      .cls-7 {
        fill: #0d1017;
      }

      .cls-9 {
        fill: #1b1e27;
      }

      .cls-18 {
        clip-path: url(#clippath);
      }

      .cls-10 {
        fill: #08080d;
      }

      .cls-11 {
        fill: #545357;
      }

      .cls-19 {
        mix-blend-mode: darken;
        opacity: .67;
      }
    </style>
    <clipPath id="clippath">
      <path class="cls-5" d="m201.26,119.18c-.45-.92-.89-1.85-1.34-2.77-.74-1.55-1.48-3.1-2.22-4.65-.41-.71-.82-1.41-1.23-2.12h0c.37-.53.74-1.06,1.21-1.74-.21-.43-.47-1-.78-1.55-1.49-2.66-2.97-5.32-4.5-7.96-.41-.7-.96-1.32-1.45-1.98-.1-.22-.17-.44-.29-.64-2.12-3.48-4.2-6.99-6.37-10.43-2.04-3.23-4.17-6.4-6.26-9.6-.5-.61-1.07-1.17-1.49-1.83-1.17-1.87-2.27-3.79-3.42-5.67-.61-1.01-1.14-2.12-1.95-2.95-1.49-1.52-3.09-2.98-4.79-4.26-2.47-1.86-5-3.67-7.64-5.27-2.19-1.32-4.62-2.17-6.21-4.41-2.03-2.88-4.25-5.63-6.44-8.39-1.01-1.27-2.01-2.62-3.28-3.59-1.45-1.1-3.21-1.79-4.81-2.69-1.37-.77-2.71-1.6-4.06-2.4-.4-.15-.81-.29-1.21-.44,0,0,0,0,0,0,0,0-.08-.07-.08-.07-.2-.12-.39-.31-.6-.36-2.87-.65-5.67-.55-8.33.84-1.61.84-3.3,1.35-5.15,1.27-1.43-.06-2.86-.09-4.29-.04-1.38.04-2.76.19-4.13.3-.16.02-.32.05-.48.07-2.43.59-4.23,2.19-6.18,3.71.31.2.53.39.78.48.51.2,1.04.34,1.56.51.24.07.48.15.72.22,2.06.65,4.17,1.19,6.18,1.97,3.13,1.21,6.11,2.71,8.4,5.29.52.59,1.13,1.11,1.7,1.66.17.31.35.62.52.93.99,1.75,1.73,3.55,1.47,5.63-.03.21.06.49.19.67,1.26,1.77,1.58,3.87,1.98,5.92.53,2.74.95,5.49,2.1,8.07.96,2.15,1.52,4.51,2.71,6.5,1.39,2.31,1.92,4.69,1.97,7.29.06,3.37.85,6.43,3.73,8.57.21.2.42.39.63.59l.05-.04s-.04.05-.04.05c.69,1.01,1.38,2.02,2.06,3.04.36.68.72,1.35,1.09,2.03-.02.07,0,.11.07.14.38,1.57.68,3.16,1.16,4.7.31.98-.06,2.38,1.44,2.75l.17,1.18c.09.18.19.37.28.55-.01.07,0,.13.06.18.07.13.14.27.22.4.17.5.34,1.01.51,1.51.2,1.44.51,2.83,1.61,4.18-.12-1.36-.22-2.48-.34-3.9.69.29,1.13.47,1.57.65.09.07.18.13.28.2.55.35,1.09.69,1.64,1.04.08.08.16.16.23.24.08.09.15.18.23.28.59.7,1.19,1.41,1.78,2.11.61.74,1.31,1.43,1.81,2.25.53.89,1.21.79,1.77.32.68-.57,1.32-.61,2.08-.37.17.14.33.28.5.42.8.14,1.6.29,2.4.43.89.04,1.74.21,1.65,1.36-.08.98-.24,1.98-1.17,2.61-.26.29-.52.58-.77.87-1.93,1.5-3.86,3-5.92,4.59,3.19,1.71,5.97.47,7.88-1.66.74-.68,1.49-1.34,2.21-2.05,1.05-1.04,2.03-1.2,3.13-.18.78.72,1.61.91,2.57.97,1.36.35,2.72.7,4.07,1.05.32.05.63.1.94.16,1.77.48,3.55.96,5.32,1.44.57.25,1.14.7,1.72.72,2.63.05,4.63,1.7,6.9,2.62.5.2.93.56,1.38.86,1.3.84,2.59,1.68,3.99,2.59.1-.51.16-.83.19-.99.42.09,1.02.37,1.15.23.9-1.04,1.87-1.45,3.14-.68,1.03-.1,2.06-.2,3.09-.3,1.69-.54,2.85-2.05,2.54-3.76-.3-1.62-.92-3.18-1.4-4.76-.11-.1-.23-.2-.34-.3-.17-.18-.34-.35-.51-.53.36-1.53-.49-2.67-1.27-3.83"/>
    </clipPath>
    <clipPath id="clippath-1">
      <path class="cls-5" d="m160.29,119.14c.66-.01,1.51.24,2.21.76.69.52,1.04,1.14,1.2,1.47.26,0,.71.02,1.17.27,1.11.62,1.2,1.99,1.2,2.1-.16.57-.41,1.21-.79,1.86-1.45,2.48-3.83,3.53-4.86,3.9-.87-.46-4.48-.46-5.67-1.78-.52-.58,1.57-1.67,1.41-2.1-.91-2.36,1.55-6.45,4.12-6.5Z"/>
    </clipPath>
  </defs>
  <g class="cls-15">
    <g id="Birds">
      <g id="Bird_3_-_Slowest" data-name="Bird 3 - Slowest">
        <g>
          <path class="cls-16" d="m201.26,119.18c-.45-.92-.89-1.85-1.34-2.77-.74-1.55-1.48-3.1-2.22-4.65-.41-.71-.82-1.41-1.23-2.12h0c.37-.53.74-1.06,1.21-1.74-.21-.43-.47-1-.78-1.55-1.49-2.66-2.97-5.32-4.5-7.96-.41-.7-.96-1.32-1.45-1.98-.1-.22-.17-.44-.29-.64-2.12-3.48-4.2-6.99-6.37-10.43-2.04-3.23-4.17-6.4-6.26-9.6-.5-.61-1.07-1.17-1.49-1.83-1.17-1.87-2.27-3.79-3.42-5.67-.61-1.01-1.14-2.12-1.95-2.95-1.49-1.52-3.09-2.98-4.79-4.26-2.47-1.86-5-3.67-7.64-5.27-2.19-1.32-4.62-2.17-6.21-4.41-2.03-2.88-4.25-5.63-6.44-8.39-1.01-1.27-2.01-2.62-3.28-3.59-1.45-1.1-3.21-1.79-4.81-2.69-1.37-.77-2.71-1.6-4.06-2.4-.4-.15-.81-.29-1.21-.44,0,0,0,0,0,0,0,0-.08-.07-.08-.07-.2-.12-.39-.31-.6-.36-2.87-.65-5.67-.55-8.33.84-1.61.84-3.3,1.35-5.15,1.27-1.43-.06-2.86-.09-4.29-.04-1.38.04-2.76.19-4.13.3-.16.02-.32.05-.48.07-2.43.59-4.23,2.19-6.18,3.71.31.2.53.39.78.48.51.2,1.04.34,1.56.51.24.07.48.15.72.22,2.06.65,4.17,1.19,6.18,1.97,3.13,1.21,6.11,2.71,8.4,5.29.52.59,1.13,1.11,1.7,1.66.17.31.35.62.52.93.99,1.75,1.73,3.55,1.47,5.63-.03.21.06.49.19.67,1.26,1.77,1.58,3.87,1.98,5.92.53,2.74.95,5.49,2.1,8.07.96,2.15,1.52,4.51,2.71,6.5,1.39,2.31,1.92,4.69,1.97,7.29.06,3.37.85,6.43,3.73,8.57.21.2.42.39.63.59h.01c.69,1.02,1.38,2.03,2.06,3.05.36.68.72,1.35,1.09,2.03-.02.07,0,.11.07.14.38,1.57.68,3.16,1.16,4.7.31.98-.06,2.38,1.44,2.75l.17,1.18c.09.18.19.37.28.55-.01.07,0,.13.06.18.07.13.14.27.22.4.17.5.34,1.01.51,1.51.2,1.44.51,2.83,1.61,4.18-.12-1.36-.22-2.48-.34-3.9.69.29,1.13.47,1.57.65.09.07.18.13.28.2.55.35,1.09.69,1.64,1.04.08.08.16.16.23.24.08.09.15.18.23.28.59.7,1.19,1.41,1.78,2.11.61.74,1.31,1.43,1.81,2.25.53.89,1.21.79,1.77.32.68-.57,1.32-.61,2.08-.37.17.14.33.28.5.42.8.14,1.6.29,2.4.43.89.04,1.74.21,1.65,1.36-.08.98-.24,1.98-1.17,2.61-.26.29-.52.58-.77.87-1.93,1.5-3.86,3-5.92,4.59,3.19,1.71,5.97.47,7.88-1.66.74-.68,1.49-1.34,2.21-2.05,1.05-1.04,2.03-1.2,3.13-.18.78.72,1.61.91,2.57.97,1.36.35,2.72.7,4.07,1.05.32.05.63.1.94.16,1.77.48,3.55.96,5.32,1.44.57.25,1.14.7,1.72.72,2.63.05,4.63,1.7,6.9,2.62.5.2.93.56,1.38.86,1.3.84,2.59,1.68,3.99,2.59.1-.51.16-.83.19-.99.42.09,1.02.37,1.15.23.9-1.04,1.87-1.45,3.14-.68,1.03-.1,2.06-.2,3.09-.3,1.69-.54,2.85-2.05,2.54-3.76-.3-1.62-.92-3.18-1.4-4.76-.11-.1-.23-.2-.34-.3-.17-.18-.34-.35-.51-.53.36-1.53-.49-2.67-1.27-3.83"/>
          <g class="cls-18">
            <path class="cls-14" d="m175.89,62.26s-8.43-5.27-18.89-8c-2.04-.53-4.89-1.14-8.43-.68-1.47.19-4.06.55-6.81,2.21-.62.37-5.78,3.6-7.23,9.87-.2.85-.93,4.35,1.11,10.21,3.28,9.46,10.41,15.4,18.81,22.21,4.05,3.29,7.37,5.54,8.77,6.47,9.2,6.11,16.97,9.31,22.98,11.74,6.36,2.58,14.79,5.52,25.02,7.83.26-1.64.55-4.05.6-6.98.31-19.97-11.5-34.49-14.47-38.04-6.04-7.22-11.88-10.87-21.45-16.85Z"/>
            <path class="cls-8" d="m123.98,39.05c.56.42,1.19.78,1.63,1.32s.68,1.34.34,1.95c-4.35.21-9.01.53-12.44,3.21-.72.56-1.38,1.22-2.21,1.59-.74.33-1.57.4-2.37.46-1.66.12-3.33.21-5,.26-1.43.04-2.88.06-4.26-.3-2.58-.67-4.77-2.7-5.62-5.23-1.23-3.68.44-7.91,3.41-10.4s7-3.43,10.87-3.39c1.41.01,2.81.14,4.21,0,1.17-.12,2.41-.41,3.5.04.61.25,1.1.72,1.58,1.17,1.48,1.41,2.38,2.26,2.96,4.19.62,2.07,1.66,3.8,3.39,5.13Z"/>
            <path class="cls-3" d="m125.95,42.32c-7.26-2.32-14.86-3.45-22.46-2.77,7.46-1.79,15.58-.45,22.46,2.77h0Z"/>
            <ellipse class="cls-3" cx="128.24" cy="38.08" rx="1.62" ry="1.27" transform="translate(-4.67 22.89) rotate(-10.02)"/>
            <g>
              <path class="cls-13" d="m160.29,119.14c.66-.01,1.51.24,2.21.76.69.52,1.04,1.14,1.2,1.47.26,0,.71.02,1.17.27,1.11.62,1.2,1.99,1.2,2.1-.16.57-.41,1.21-.79,1.86-1.45,2.48-3.83,3.53-4.86,3.9-.87-.46-5.87-.11-7.06-1.43-.52-.58,2.97-2.01,2.8-2.45-.91-2.36,1.55-6.45,4.12-6.5Z"/>
              <g class="cls-17">
                <path class="cls-12" d="m155.33,128.9c1.38-.95,3.26-2.07,6.17-5.26,1.13-1.25,2.02-2.47,2.7-3.55.37-.11,1.08-.25,1.86.03,1.2.44,2.03,1.72,2.1,3.25-.68.87-1.61,1.88-2.84,2.87-1.86,1.49-7.13,5.23-8.46,5.71-.12-.02-.93-.19-1.37-.96-.55-.96-.19-2.05-.16-2.09Z"/>
              </g>
            </g>
          </g>
        </g>
        <g class="cls-19">
          <path class="cls-6" d="m132.74,33.83c.4.15.81.29,1.21.44.14.44.13,1.08.43,1.3.7.51,1.55.83,2.34,1.22,1.09.53,2.16,1.14,3.3,1.55,1.18.43,1.7,1.57,2.82,2.18,1.47.8,2.51,2.48,3.59,3.88,1.04,1.35,1.97,2.8,2.84,4.27.35.59.42,1.36.62,2.06.18.06.68.09.78.31.46,1.03,1.93,1.52,1.61,2.96-.01.05.15.17.25.19.74.17.38.6.38,1.07,0,.89.11,2.42.52,2.54,1.35.4,2.76,1.75,4.27.29.58,2.7,1.78,3.36,3.59,1.85v1.51c1.11.63,2.18,1.23,3.28,1.86-.25.37-.46.69-.63.94.47,1.33,1.33.74,2.21.46.26,1.74,1.68,1.21,2.66,1.24-1.57,1.68-1.42,3.14.16,4.48-.5.23-.83.36-1.13.53-.35.18-.68.4-1.08.63-.22-1.03-.4-1.86-.57-2.62-.46-.07-.86-.01-1.1-.19-.99-.73-1.92-1.53-2.89-2.29-.11-.09-.28-.21-.39-.18-1.04.27-1.43-.61-2.04-1.11-.36-.3-.77-.84-1.11-.81-1.59.19-2.36-.87-3.24-1.89-.58.07-1.17.14-1.79.21.23.68.41,1.22.59,1.74,1.28-.16,2.21-.18,3.07,1.04.27.38.49,1.01.84,1.09,1.92.46,2.88,2.59,4.93,2.77.12.01.22.2.33.3,1.52,1.41,3.03,2.82,4.58,4.25.38-.41.63-.7,1-1.1.6.56,1.15,1.06,1.72,1.59-1.12.99-1.09,1.11-.12,1.47.16,1.09.3,2,.45,3.01.42-.17.62-.25.89-.36.16.51.08,1.35,1.2.61.04.18.07.37.11.55l-1.14.35c.04.15.08.3.13.45.48.19.97.36,1.43.58.31.15.61.37.86.6.59.56,1.15,1.15,1.72,1.73.13-.07.26-.13.39-.2-.09.33-.18.66-.26.98-.68.1-1.36.17-2.02.32-.29.06-.72.25-.76.45-.06.28.15.64.32.93.11.19.33.3.36.33-.25,1.21-.47,2.27-.69,3.33-.3-.26-.75-.66-1.3-1.14.29-.4.57-.79.7-.97-.17-.62-.29-1.06-.47-1.72-.33.26-.84.52-.81.67.3,1.54-.74,1.32-1.66,1.42-.51.06-1.06.3-1.44.63-.12.1.29.79.5,1.33-.23.27-.56.65-.88,1.02-.11-.7-.2-1.34-.33-2.18-1.46,1.09-1.15-1.14-2.25-.93.03.32.05.62.05.57-.52.67-.86,1.12-1.21,1.57.09.09.18.18.26.27h.75c.05.1.1.2.15.3-1.23.73-2.47,1.45-3.54,2.09-.66.11-1.17.19-1.68.27-1.2.18-2.23,1.57-3.62.24-.12,1.07.11,1.32.98,1.17.44-.08,1.11.2,1.41.55.2.23.04.91-.15,1.31-.48,1.02-1.06,1.99-1.66,3.09.7.48,1.34.91,2.19,1.49q-2.19-.1-3.25-1.53c-.12-.16-.22-.33-.34-.49-.91-1.14-3.13-1.36-4.04-.54.65.79,1.3,1.58,1.86,2.26-.46.48-.81.84-1.15,1.2.39.25.84.43,1.14.75.43.46.75,1.03,1.11,1.56-.09.09-.18.18-.27.26-.63-.09-1.25-.18-2.24-.31.43.68.75,1.17,1.1,1.72-.56,1.29-.9,1.35-1.83.17-.19-.24-.35-.52-.49-.8-.82-1.56-1.74-1.78-3.1-.75-1.29-2.01-3.96-2.83-4.73-5.42-.85.33-1.27.01-1.32-.96-.02-.34-.32-.76-.61-.98-.72-.53-.58-1.02-.14-1.62.42-.56.43-1.01-.31-1.44-1.68-.97-2.75-2.5-3.42-4.29-.11-.29.14-.94.42-1.1,1.63-.96,3.36.13,3.72,2,.17.9-.18,1.87.55,2.76.9,1.09,1.55,2.39,2.26,3.63.41.71.77,1.05,1.38.21.13-.18.35-.3.58-.49.25.32.44.58.64.84.11-.04.23-.08.34-.11-.6-1.42-1.2-2.85-1.7-4.02.67-.54,1.15-.93,1.77-1.44.51.2,1.18.47,2.05.82.45-.4,1.04-.92,1.54-1.38-.59-1.84-2.5-2.82-2.33-4.37-.8-.51-1.63-.72-1.78-1.17-.71-2.06-1.99-3.75-3.19-5.51-.2-.3-.03-.85-.03-1.27.91.22,1.57.39,2.37.58-.28-.51-.47-.84-.69-1.24.43-.13.77-.24,1.11-.34,0-.1-.01-.2-.02-.3-.85.19-1.55-1.02-2.54.02-.47.49-.83.06-.95-.53-.15-.76-.34-1.51-.58-2.56.64-.21,1.39-.47,2.23-.75-.21-.55-.44-1.09-.62-1.65-.16-.52-.25-1.06-.41-1.8.67.1,1.33.06,1.38.22.22.66.26,1.39.38,2.21.12-.19.22-.3.27-.43.28-.74.25-1.54,1.04-2.13.72-.53.25-1.36-.18-1.95-.52-.71-1.16-1.33-1.84-2.1-.37-.17-.92-.42-1.46-.67-.54.35-1.42.73-1.7.46-.86-.78-1.34-1.99-2.83-1.93-.26.01-.54-.53-.81-.82-.29-.32-.58-.64-.87-.97-.31.33-.6.69-.93.99-.34.3-.71.75-1.1.79-.58.05-1.2-.14-1.78-.33-1.54-.5-1.66-.45-2.18,1.18-.17.29-.28.72-.53.84-.31.14-.9.18-1.09-.01-.4-.41-.61-1-.84-1.4.26-.79.51-1.55.76-2.31.15-.16.29-.32.44-.48-.23,0-.45,0-.68.01-.47-.24-.94-.48-1.41-.73-.23-.12-.6-.22-.65-.4-.62-2.25-1.19-4.52-1.78-6.78.64-.04,1,.22.96.9-.07,1.32.88,1.72,1.89,1.89.32.06.89-.31,1.06-.63.22-.44.13-.92-.65-.86-.18.01-.4-.65-.6-1,.11-.08.22-.16.34-.24.74.39,1.48.78,2.26,1.18-.07.3-.08.55-.19.75-.52,1-.38,1.83.43,2.64.18.18-.05.77-.12,1.49.64.86,2.16,1.15,3.55.47.8-.39,1.71-1.08,2.45-.95,1.29.23,1.49-.46,1.83-1.29.2-.49.48-.94.77-1.5.18.25.3.41.4.56.11.15.21.3.23.33.71-.3,1.31-.56,2.15-.92,1.03-1.17,1.78-3.36,4.37-2.18-.2-.69-.38-1.29-.58-1.96q1.35.09,1.35-1.03c-.38.02-.76.05-1.49.09.06-.73.15-1.38.17-2.04,0-.3-.04-.65-.19-.9-.39-.61-1.05-1.13-1.23-1.78-.16-.59-1.88-1.03-.29-1.86-.71-.74-1.31-1.52-2.07-2.12-.98-.78-2.09-1.42-3.13-2.13-.12-.08-.19-.26-.26-.39-.72-1.27-1.74-1.73-3.1-1.38-.06-.12-.12-.25-.18-.37-.1.12-.2.25-.3.37-.35-.39-.71-.79-1.21-1.34-.2.14-.58.44-.98.69-.9.55-1.8,1.09-2.72,1.61-.63.35-1.63-.29-2.04.72-.23-.31-.47-.62-.7-.93-.62.05-1.23-.01-1.59-.35-.4-.38-.66-.97-.8-1.52-.15-.6-.33-.85-.97-.61-.2.07-.47,0-.7-.05-1.09-.22-1.7.69-2.42,1.16-.57.37,0,.89.55,1.07.29.1.63.09.9.23.97.49,1.95.97,2.85,1.58.41.28.64.83.94,1.25-.39.25-.78.72-1.16.72-.63-.02-1.24-.36-1.87-.52-.33-.08-.69-.07-1.04-.1-.48-.24-.96-.48-1.44-.72.34-.25.67-.5,1.01-.74-1.11-1.52-1.24-1.56-2.76-1.53-1.89.04-3.71.51-5.68,0-1.74-.45-2.91-1.18-3.61-2.77h0c.32-.16.64-.32.96-.47,1.08,0,2.25-.27,3.24.03,2.51.76,4.95.43,7.42-.03.78-.15,1.58-.45,2.33-.37,1.42.16,2.43-.52,3.12-1.01,1.75-.12,3.14-.21,4.53-.3.38.06.76.18,1.13.15.14-.01.24-.4.36-.61Zm39.73,51.19c1.23-1.08,1.24-1.51-.03-2.6-.47-.41-.93-.68-1.09-1.48-.15-.77-1-1.5-1.72-2-.41-.28-1.17-.05-1.68-.05.27-.49.61-1.11.98-1.77-.45-.24-.8-.48-1.19-.62-.32-.12-.69-.12-1.03-.17.04.35.03.71.12,1.04.05.19.26.34.35.46-.47.4-.87.75-1.44,1.24.62.14.87.2,1.13.26,0,.1-.02.19-.02.29-.37,0-.91.16-1.09-.03-.73-.74-1.34-1.58-1.85-2.2.37-.86.87-1.59.95-2.37.07-.68-.29-1.43-.58-2.1-.14-.32-.74-.78-.81-.73-.42.31-1.24-.2-1.35.9-.12,1.17.04,2.16.52,3.2.25.54.39,1.24.28,1.81-.15.82-.6,1.58-.87,2.38-.04.13.21.36.36.59.28-.36.48-.62.54-.7.59.39,1.05.81,1.59,1.03.55.22,1.17.28,1.77.35.09.01.2-.33.33-.48.14-.15.32-.27.48-.4.11.14.31.29.31.43-.01,1.54.86.87,1.64.59.15.67.3,1.32.45,1.96.07-.11.14-.21.21-.32.89.49,1.79.98,2.72,1.49Zm-24.39-11.93c.13-.03.26-.06.4-.08-.04-.23-.09-.46-.13-.69-.13.05-.38.1-.38.15,0,.21.07.42.12.63Zm18.69-5.86c.12.03.23.06.35.09.06-.23.12-.46.18-.69l-.3-.08c-.08.23-.15.46-.23.69Zm2.47,7.42c.07.03.15.09.19.08.05-.02.06-.12.09-.19-.07-.03-.15-.1-.19-.08-.05.02-.06.12-.09.19Zm-22.01-1.92c-.03-.07-.04-.17-.08-.19-.05-.02-.13.04-.2.07.03.07.04.17.08.19.05.02.13-.04.2-.07Zm-.09,22.15c.03-.07.09-.15.07-.2-.02-.05-.12-.06-.19-.09-.03.07-.09.15-.07.2.02.05.12.06.19.09Zm.35-24.52c-.03.07-.06.13-.09.2.07.03.15.09.2.08.05-.02.06-.12.09-.19-.07-.03-.13-.06-.2-.09Zm-.08,7.64c.07.03.15.1.2.08.05-.02.06-.12.09-.19-.07-.03-.15-.1-.2-.08-.05.02-.06.12-.09.19Zm-1.23,4.88c.03-.07.09-.15.07-.2-.02-.05-.12-.06-.19-.09-.03.07-.09.15-.08.2.02.05.12.06.19.09Z"/>
          <path class="cls-7" d="m148.04,104.09c1.36-1.04,2.29-.81,3.1.75.14.28.3.56.49.8.94,1.18,1.27,1.12,1.83-.17-.35-.55-.67-1.04-1.1-1.72.99.14,1.61.23,2.24.31.09-.09.18-.18.27-.26-.37-.52-.68-1.09-1.11-1.56-.3-.32-.75-.51-1.14-.75.34-.36.69-.71,1.15-1.2-.57-.69-1.21-1.47-1.86-2.26.92-.82,3.13-.61,4.04.54.12.16.23.33.34.49q1.05,1.43,3.25,1.53c-.85-.58-1.49-1.01-2.19-1.49.6-1.1,1.18-2.07,1.66-3.09.19-.39.35-1.08.15-1.31-.3-.35-.97-.63-1.41-.55-.87.15-1.1-.09-.98-1.17,1.39,1.33,2.42-.06,3.62-.24.51-.08,1.02-.16,1.68-.27,1.07-.63,2.3-1.36,3.54-2.09-.05-.1-.1-.2-.15-.3h-.75c-.09-.09-.18-.18-.26-.27.35-.45.7-.9,1.21-1.57,0,.05-.02-.25-.05-.57,1.1-.21.79,2.02,2.25.93.13.84.23,1.48.33,2.18.32-.37.65-.75.88-1.02-.21-.54-.62-1.23-.5-1.33.38-.33.93-.57,1.44-.63.92-.1,1.96.11,1.66-1.42-.03-.15.48-.41.81-.67.18.66.3,1.1.47,1.72-.13.18-.41.57-.7.97.55.48,1,.87,1.3,1.14.22-1.07.44-2.12.69-3.33-.03-.03-.26-.14-.36-.33-.16-.29-.37-.65-.32-.93.04-.2.47-.38.76-.45.66-.15,1.35-.22,2.02-.32,0,0,0,0,0,0,.12.39.24,1.12.38,1.13,1.37.05,2.45.69,3.46,1.51-.09.87.18,1.4,1.06,1.83.59.29.9,1.16,1.33,1.77-.74-.2-1.09-1.31-2.17-.86-.22.09-1.07-.58-1.03-.76.3-1.35-.9-1.48-1.51-2.23-.46.9-.48,1.6.14,2.3.36.41.97,1.13.85,1.32-.57.91.24,1.3.55,1.84.43.74,1.05,1.4.66,2.35-.44.11-.84.2-1.39.34.73.81,2.91.44,1.6,2.34.83.39,1.13.97,1.43,1.79.35.97.03,2.55,1.67,2.81.43.07.85.13,1.38.21-.5.75-.66,1.14.37,1.64.74.36,1.01,1.52,1.86,2.17.66.51.73,1.75,1.12,2.65.15.35.46.62.75,1-.59.27-1.34.65-2.11.97-.18.07-.45-.06-.68-.1-.03,0-.06-.05-.09-.08-.41-.28-.83-.56-1.25-.84-.57-.38-1.13-.59-1.59.15.94.77,1.84,1.52,2.79,2.3-.35.25-.62.44-.8.57.17.43.3.77.43,1.11-.21.07-.42.19-.63.19-.58,0-1.16-.04-1.74-.09-.27-.02-.55-.06-.82-.13-.58-.16-1.24-.63-1.7-.47-2.31.81-3.9-.71-5.75-1.47-.77,1.35-.67,1.58.83,1.71-.12,1.03.71,1.91,1.86,1.98.75.05,1.51.07,2.25.19,1.95.31,3.79,1.3,5.84,1.01-.52.48-1.1.91-1.55,1.45-.89,1.07-2.37,1.82-2.06,3.58-2.37.51-4.95.46-6.65,2.68-.41.53-1.25.77-1.03,1.68-1.36-.35-2.72-.7-4.07-1.05-1.35-2.72-4-3.5-6.58-4.61.39-1.16.05-2.14-1.36-2.7-.66-.27-1.2-.87-1.86-1.13-.32-.13-.84.09-1.22.27-.25.12-.41.44-.49.53-.42-.08-.7-.14-.97-.19-.16,0-.32-.02-.48-.02.23-2.29-1.99-2.4-2.92-3.41-.5.29-1.05.81-1.26.7-.39-.21-.63-.76-.85-1.21-.12-.26-.01-.63-.12-.91-.13-.33-.33-.67-.6-.9-.66-.56-1.48-.98-2.06-1.61-.69-.75-1.26-1.64-1.77-2.53-.22-.38-.27-.93-.23-1.39.05-.49.3-.96.46-1.44Zm7.03.54c-.24.37-.4.56-.48.79-.02.05.29.32.39.3.18-.05.41-.23.45-.4.03-.15-.17-.35-.36-.69Zm-.61-3.57c-.03.07-.1.15-.08.2.02.05.12.06.19.09.03-.07.1-.15.08-.19-.02-.05-.12-.06-.19-.09Z"/>
          <path class="cls-9" d="m148.04,104.09c-.16.48-.41.95-.46,1.44-.04.46,0,1,.23,1.39.51.89,1.08,1.78,1.77,2.53.58.63,1.39,1.05,2.06,1.61.27.23.47.57.6.9.11.27,0,.64.12.91.22.45.46,1,.85,1.21.21.11.76-.4,1.26-.7.93,1.01,3.16,1.12,2.92,3.41-.48.01-1-.1-1.42.06-1.09.42-1.8,0-2.48-.81-.33-.4-.85-.63-1.28-.94-.59-.7-1.19-1.41-1.78-2.11-.08-.09-.15-.18-.23-.28-.08-.08-.16-.16-.23-.24-.19-.91-.68-1.33-1.64-1.04-.09-.07-.18-.13-.28-.2-.31-.31-.58-.79-.95-.88-.6-.15-1.26-.04-1.9-.05-.17-.5-.34-1.01-.51-1.51-.07-.13-.14-.27-.22-.4-.05-.05-.07-.11-.06-.18-.09-.18-.19-.37-.28-.55-.06-.39-.12-.79-.17-1.18-.63-2.3-1.25-4.61-1.91-6.9-.07-.23-.45-.37-.69-.55-.07-.02-.09-.07-.07-.14-.36-.68-.72-1.35-1.09-2.03-.69-1.01-1.38-2.02-2.06-3.04.22-.14.45-.29.67-.43-.08-.08-.16-.16-.23-.24l-.45.66c-.21-.2-.42-.39-.63-.59-.09-.79-.07-1.61-.29-2.35-.25-.86-.24-2-1.3-2.35-.93-.3-.6-.97-.51-1.45.1-.57.49-.91,1.12-.39.08.07.43-.18.55-.24-.24-.61-.43-1.11-.64-1.6-.51-1.19-1.03-2.38-1.53-3.57-.04-.09,0-.28.07-.33.96-.63.56-1.28-.19-1.99.92.12,1.44.13,1.03-.87-.13-.33.19-.86.33-1.29.16-.47.42-.92.53-1.4.1-.46.06-.96.08-1.28.58.12,1,.21,1.42.29.02-.32.18-.74.03-.94-.45-.61-1.02-1.14-1.56-1.71-1.43.78-2.41.41-3.01-1.25-2.05,1.16-1.1,2.8-.68,4.28-.6.45-.91.44-1.23-.24-.32-.68-.2-1.23-.11-1.92.09-.71-.31-1.52-.63-2.22-.36-.79.05-1.31.58-1.56.45-.21,1.09-.1,1.63,0,.82.16,1.63.43,2.73.73.24.34.72,1,1.25,1.74.98-1.39-.91-2.88.31-3.9.53.1.91.18,1.3.26,0-.1.02-.19.03-.29-.84-.54-1.69-1.08-2.57-1.64-.71.67-1.43,1.35-2.15,2.02-.08-.04-.15-.07-.23-.11.17-.76.34-1.53.51-2.29-1.22-.23-2.28-.43-3.35-.63.53-1.63.65-1.68,2.18-1.18.57.19,1.2.38,1.78.33.39-.04.76-.48,1.1-.79.34-.3.62-.66.93-.99.29.32.58.65.87.97.27.29.55.83.81.82,1.49-.07,1.97,1.14,2.83,1.93.29.26,1.16-.12,1.7-.46.55.25,1.1.5,1.46.67.68.77,1.32,1.39,1.84,2.1.43.58.89,1.41.18,1.95-.79.59-.76,1.39-1.04,2.13-.05.13-.14.24-.27.43-.12-.83-.16-1.55-.38-2.21-.05-.16-.71-.13-1.38-.22.16.73.25,1.27.41,1.8.17.56.41,1.1.62,1.65-.84.28-1.6.54-2.23.75.24,1.04.43,1.8.58,2.56.12.59.48,1.01.95.53.99-1.04,1.69.17,2.54-.02,0,.1.01.2.02.3-.34.11-.68.21-1.11.34.22.4.41.73.69,1.24-.8-.2-1.46-.36-2.37-.58,0,.41-.17.97.03,1.27,1.2,1.76,2.48,3.45,3.19,5.51.15.45.98.67,1.78,1.17-.18,1.55,1.73,2.53,2.33,4.37-.51.45-1.1.98-1.54,1.38-.87-.35-1.54-.61-2.05-.82-.62.5-1.1.89-1.77,1.44.5,1.17,1.1,2.6,1.7,4.02-.11.04-.23.08-.34.11-.2-.26-.39-.52-.64-.84-.24.2-.45.31-.58.49-.61.84-.97.5-1.38-.21-.71-1.24-1.36-2.54-2.26-3.63-.74-.89-.38-1.86-.55-2.76-.35-1.87-2.09-2.96-3.72-2-.27.16-.52.81-.42,1.1.67,1.79,1.74,3.32,3.42,4.29.74.43.73.88.31,1.44-.44.6-.58,1.09.14,1.62.29.22.6.64.61.98.05.98.47,1.29,1.32.96.78,2.59,3.44,3.41,4.73,5.42Zm-9.11-28.66c-.05-.21-.11-.42-.16-.63-.51.15-1.02.29-1.53.44.04.18.09.35.13.53.52-.11,1.04-.22,1.56-.34Zm17.71,40.77c-.03-.18-.06-.36-.08-.55-.34.08-.68.16-1.02.25.03.14.06.27.09.41.34-.04.68-.07,1.02-.11Z"/>
          <path class="cls-9" d="m176.35,84.18c.09-.33.18-.66.26-.98-.13.07-.26.13-.39.2-.57-.58-1.13-1.17-1.72-1.73-.25-.24-.55-.45-.86-.6-.46-.23-.95-.39-1.43-.58-.04-.15-.08-.3-.13-.45l1.14-.35c-.04-.18-.07-.37-.11-.55-1.13.74-1.05-.1-1.2-.61-.27.11-.47.19-.89.36-.15-1.01-.29-1.92-.45-3.01-.97-.37-1-.49.12-1.47-.57-.52-1.12-1.03-1.72-1.59-.37.41-.63.69-1,1.1-1.54-1.43-3.06-2.84-4.58-4.25-.11-.1-.21-.29-.33-.3-2.05-.19-3.01-2.31-4.93-2.77-.35-.08-.57-.71-.84-1.09-.86-1.22-1.78-1.2-3.07-1.04-.18-.52-.36-1.06-.59-1.74.61-.07,1.21-.14,1.79-.21.88,1.02,1.65,2.08,3.24,1.89.33-.04.75.51,1.11.81.61.5,1,1.38,2.04,1.11.11-.03.28.09.39.18.96.77,1.9,1.56,2.89,2.29.24.17.64.12,1.1.19.16.76.34,1.59.57,2.62.39-.23.73-.44,1.08-.63.31-.16.63-.3,1.13-.53-1.59-1.34-1.73-2.8-.16-4.48-.98-.03-2.4.5-2.66-1.24-.88.27-1.74.86-2.21-.46.17-.25.38-.57.63-.94-1.1-.62-2.17-1.23-3.28-1.86v-1.51c-1.81,1.51-3.01.85-3.59-1.85-1.52,1.46-2.92.11-4.27-.29-.4-.12-.51-1.66-.52-2.54,0-.47.36-.9-.38-1.07-.1-.02-.26-.15-.25-.19.32-1.44-1.15-1.93-1.61-2.96-.1-.21-.6-.24-.78-.31-.2-.7-.27-1.47-.62-2.06-.87-1.47-1.79-2.92-2.84-4.27-1.09-1.4-2.12-3.08-3.59-3.88-1.11-.61-1.64-1.76-2.82-2.18-1.14-.41-2.2-1.02-3.3-1.55-.79-.39-1.64-.71-2.34-1.22-.3-.22-.3-.85-.43-1.3,1.35.8,2.69,1.63,4.06,2.4,1.6.91,3.36,1.59,4.81,2.69,1.27.96,2.27,2.32,3.28,3.59,2.19,2.76,4.41,5.52,6.44,8.39,1.59,2.25,4.02,3.09,6.21,4.41,2.64,1.6,5.17,3.4,7.64,5.27,1.7,1.28,3.3,2.74,4.79,4.26.81.83,1.33,1.94,1.95,2.95,1.15,1.89,2.24,3.8,3.42,5.67.41.66.99,1.23,1.49,1.83.01.51.1,1.03.01,1.52-.24,1.31-.57,2.57-.12,3.93.39,1.19.55,2.46.82,3.7-.8-.24-1.6-.48-2.4-.72,0,0,0,0,0,0Z"/>
          <path class="cls-11" d="m199.15,132.65c-1.27-.77-2.24-.37-3.14.68-.12.14-.72-.14-1.15-.23-.03.15-.09.48-.19.99-1.4-.91-2.69-1.75-3.99-2.59-.46-.3-.89-.66-1.38-.86-2.28-.93-4.27-2.57-6.9-2.62-.58-.01-1.15-.47-1.72-.72.38-.11.75-.24,1.13-.32.29-.06.59-.04.88-.11.55-.14,1.11-.48,1.64-.44,1.38.11,1.38-1.01,1.56-1.77.21-.85-.28-1.54-1.01-1.85-.64,1.18-1.22,2.22-1.8,3.28-.48-.26-.82-.43-.94-.5,0-.64.09-1.14-.02-1.58-.17-.66-.49-1.29-.74-1.93.48-.17.96-.34,1.44-.51.17,0,.33-.01.5-.02.24.05.49.15.72.13,1.12-.09,2.23-.21,3.35-.32-.08,1.04-.21,2.07-.22,3.11,0,.38.17.97.44,1.09.38.17.94.08,1.36-.07.77-.26,1.47-.74,2.25-.94,1.14-.29,2.24-.44,1.74-2.11-.11-.37.24-.89.42-1.32.18-.43.41-.84.57-1.14.92-.42,1.79-.81,2.88-1.31-.68-.17-1.13-.36-1.58-.39-1.59-.09-3.23.33-4.75-.51.1-.92.8-.79,1.36-.69,2.64.5,5.34.79,7.76,2.11-.31.3-.57.67-.93.88-1.15.69-1.6,1.71-1.23,2.97-.4.33-.47.59-.04,1.03.97,1,1.86,2.08,2.87,3.23-.39.14-.79.29-1.13.42.13.3.4.61.38.9-.09,1.35-.25,2.69-.39,4.03Z"/>
          <path class="cls-2" d="m131.02,64.76c1.07.2,2.13.4,3.35.63-.17.77-.34,1.53-.51,2.29.08.04.15.07.23.11.72-.68,1.43-1.35,2.15-2.02.88.56,1.72,1.1,2.57,1.64,0,.1-.02.19-.03.29-.38-.08-.77-.15-1.3-.26-1.21,1.02.67,2.5-.31,3.9-.53-.74-1.01-1.41-1.25-1.74-1.1-.3-1.91-.58-2.73-.73-.53-.1-1.18-.21-1.63,0-.53.25-.94.77-.58,1.56.32.7.72,1.52.63,2.22-.09.69-.2,1.25.11,1.92.32.69.63.69,1.23.24-.42-1.48-1.37-3.12.68-4.28.61,1.66,1.59,2.03,3.01,1.25.54.57,1.11,1.1,1.56,1.71.15.2-.01.62-.03.94-.42-.09-.84-.17-1.42-.29-.01.32.03.81-.08,1.28-.11.48-.36.93-.53,1.4-.15.43-.46.96-.33,1.29.4.99-.11.99-1.03.87.75.72,1.15,1.36.19,1.99-.07.05-.11.24-.07.33.5,1.19,1.02,2.38,1.53,3.57.21.49.39.99.64,1.6-.12.05-.47.31-.55.24-.63-.52-1.02-.18-1.12.39-.08.49-.42,1.15.51,1.45,1.06.34,1.05,1.49,1.3,2.35.22.75.2,1.57.29,2.35-2.88-2.14-3.68-5.21-3.73-8.57-.05-2.6-.58-4.98-1.97-7.29-1.2-1.99-1.75-4.35-2.71-6.5-1.15-2.58-1.58-5.33-2.1-8.07-.39-2.04-.72-4.14-1.98-5.92-.13-.18-.21-.45-.19-.67.26-2.08-.48-3.89-1.47-5.63.15,0,.3.01.46.02.16.24.33.47.49.71.24.4.47.8.71,1.2.08.32.17.64.25.96.58,2.26,1.16,4.53,1.78,6.78.05.18.42.28.65.4.47.25.94.49,1.41.73.08.16.16.31.24.47-.25.76-.5,1.51-.76,2.31.22.4.44.99.84,1.4.18.19.78.16,1.09.01.25-.12.36-.55.53-.84Z"/>
          <path class="cls-4" d="m178.75,84.9c-.26-1.24-.43-2.5-.82-3.7-.45-1.36-.12-2.63.12-3.93.09-.49,0-1.01-.01-1.52,2.09,3.2,4.22,6.37,6.26,9.6,2.17,3.45,4.25,6.95,6.37,10.43.12.2.19.43.29.64-.15.16-.31.32-.46.48-1.04-.98-1.99-2.09-3.15-2.91-1.53-1.07-2.23-3.23-4.45-3.39-.11,0-.2-.12-.3-.18-.43-.61-.74-1.48-1.33-1.77-.88-.43-1.15-.96-1.06-1.83-.11-.92-.27-1.79-1.44-1.92Z"/>
          <path class="cls-2" d="m199.61,119.18c-2.42-1.33-5.12-1.62-7.76-2.11-.56-.1-1.26-.23-1.36.69,0,0,0,0,0,0-.17.31-.33.63-.5.94-.08.08-.16.16-.24.24-.15.17-.3.34-.45.5-.33.25-.69.46-.98.75-.35.35-.64.77-.95,1.16-1.12.11-2.23.23-3.35.32-.24.02-.48-.08-.72-.13.41-.22.8-.47,1.23-.63.4-.15.87-.12,1.24-.3.63-.31,1.21-.73,1.74-1.06-.66-.11-1.4-1.07-2.46-.24-.16.12-.61-.14-.93-.22.12-.29.17-.68.39-.85.84-.68,1.74-1.3,2.62-1.94l.93-.03c.17-.07.34-.14.51-.21.16,0,.31,0,.47,0,.75.02,1.47,0,1.7-.93.79,0,1.59,0,2.38,0,.45.78.99.75,1.22-.06.34-1.23.49-2.52.72-3.78.08-.16.15-.32.23-.48.17-.06.34-.12.51-.19-.2.9-.41,1.8-.64,2.81.4.09.73.17,1.06.24-.06.47-.18.94-.14,1.4.03.33.25.92.42.93.92.06,1.86-.02,3.03-.06-.76-1.31-1.31-2.25-1.89-3.26-.5.35-.95.67-1.41.99.49-.63.97-1.27,1.46-1.9.74,1.55,1.48,3.1,2.22,4.65.44.92.89,1.85,1.34,2.77-.55,0-1.1,0-1.64,0Z"/>
          <path class="cls-2" d="m199.15,132.65c.14-1.34.3-2.68.39-4.03.02-.29-.25-.6-.38-.9.34-.13.75-.28,1.13-.42-1.01-1.15-1.9-2.24-2.87-3.23-.44-.45-.36-.7.04-1.03.15-.04.31-.06.46-.11,1.45-.51,2.91-1.26,4.3.14.33.93.39.96.82.46.11.1.23.2.34.3-.17.53-.73.87-.29,1.68.34.63.32,1.75-.02,2.4-.75,1.44-.75,2.93-.83,4.45l-3.09.3Z"/>
          <path class="cls-9" d="m157.87,116.82c.27.05.55.11.97.19.08-.09.23-.41.49-.53.38-.18.89-.4,1.22-.27.66.27,1.2.87,1.86,1.13,1.41.57,1.75,1.54,1.36,2.7,2.58,1.11,5.23,1.89,6.58,4.61-.96-.06-1.79-.25-2.57-.97-1.1-1.02-2.08-.86-3.13.18-.71.7-1.47,1.37-2.21,2.05.43-1.2.87-2.39,1.42-3.91-1.54.61-1.94,2.38-3.52,2.41.06-.58.1-1,.14-1.43h-.01c.26-.28.52-.57.78-.86.93-.63,1.09-1.63,1.17-2.61.1-1.15-.76-1.31-1.65-1.36-.68-.8-1.52-.75-2.4-.43-.17-.14-.33-.28-.5-.42,0-.16,0-.32,0-.48Z"/>
          <path class="cls-1" d="m181.38,122.08c.26.64.57,1.27.74,1.93.11.44.02.94.02,1.58.13.07.46.24.94.5.58-1.05,1.15-2.1,1.8-3.28.73.32,1.22,1,1.01,1.85-.19.76-.18,1.88-1.56,1.77-.53-.04-1.09.3-1.64.44-.28.07-.59.04-.88.11-.38.08-.75.21-1.13.32-1.77-.48-3.55-.96-5.32-1.44.48-1.19,1.13-2.3,2.38-2.76,1.17-.44,2.42-.69,3.64-1.02Z"/>
          <path class="cls-9" d="m109.67,36.45c.69,1.59,1.87,2.33,3.61,2.77,1.97.51,3.79.03,5.68,0,1.52-.03,1.65,0,2.76,1.53-.33.25-.67.49-1.01.74-.08,0-.16,0-.24,0-.29-.15-.64-.5-.86-.43-.78.24-1.56.56-2.26.98-.73.44-2.39.12-3-.42-.53-.48-1.3-.78-2.01-.94-.84-.19-1.74-.1-2.61-.2-.83-.1-1.64-.34-2.47-.39-.22-.01-.46.43-.7.67-.24-.07-.48-.15-.72-.22.15-.66,1.68-1.7,2.18-1.34.66.48,1.08.28,1.53-.15.62-.6.01-1.09-.23-1.54-.32-.57-.46-.94.36-1.06Z"/>
          <path class="cls-9" d="m195.81,110.62c-.17.06-.34.12-.51.19-.28-1.17-.52-2.36-.87-3.51-.24-.81-.67-1.56-.97-2.36-1-2.68-1.98-5.36-2.97-8.04.15-.16.31-.32.46-.48.49.66,1.04,1.27,1.45,1.98,1.53,2.64,3.01,5.3,4.5,7.96.31.55.57,1.12.78,1.55-.47.68-.84,1.21-1.21,1.74,0,0,0,0,0,0-.2-.14-.4-.28-.6-.41-.09.23-.24.46-.25.7-.01.21.13.44.2.65,0,0,0,.03,0,.03Z"/>
          <path class="cls-2" d="m160.47,122.98c-.04.43-.08.85-.14,1.43,1.59-.02,1.98-1.8,3.52-2.41-.55,1.51-.98,2.71-1.42,3.91-1.92,2.13-4.69,3.37-7.88,1.66,2.05-1.59,3.99-3.09,5.92-4.59Z"/>
          <path class="cls-2" d="m131.25,34.29c-1.39.09-2.78.18-4.53.3-.69.49-1.7,1.18-3.12,1.01-.75-.09-1.55.22-2.33.37-2.47.46-4.9.79-7.42.03-.99-.3-2.15-.04-3.24-.03-.16-.07-.31-.14-.47-.21,1.38-.1,2.75-.25,4.13-.3,1.43-.04,2.86-.02,4.29.04,1.85.08,3.53-.43,5.15-1.27,2.66-1.39,5.46-1.49,8.33-.84.22.05.4.23.6.36-.39.4-1.37-.77-1.41.53Z"/>
          <path class="cls-6" d="m106.55,40.75c.23-.23.48-.68.7-.67.83.05,1.64.29,2.47.39.87.1,1.77.01,2.61.2.71.16,1.48.46,2.01.94.61.55,2.27.86,3,.42.7-.42,1.48-.73,2.26-.98.22-.07.57.27.86.43-.03.38-.06.75-.1,1.33h-5.09c.03.1.02.42.16.51,1.1.69,2.23,1.33,3.34,1.99,0,0,0,0,0,0,1.39.73,2.49,1.79,3.43,3.03.28.37.46.83.68,1.25l-.07.07c-.57-.55-1.18-1.06-1.7-1.66-2.29-2.58-5.27-4.08-8.4-5.29-2.01-.78-4.11-1.32-6.18-1.97Z"/>
          <path class="cls-1" d="m202.22,123.08c-1.39-1.4-2.85-.65-4.3-.14-.15.05-.31.07-.46.11-.37-1.27.08-2.28,1.23-2.97.36-.21.62-.58.93-.88.55,0,1.1,0,1.64,0,.78,1.16,1.62,2.3,1.27,3.83-.1.02-.2.04-.31.06Z"/>
          <path class="cls-2" d="m109.67,36.45c-.82.12-.68.48-.36,1.06.25.44.86.94.23,1.54-.46.44-.87.63-1.53.15-.5-.36-2.03.68-2.18,1.34-.52-.17-1.05-.31-1.56-.51-.25-.1-.46-.28-.78-.48,1.95-1.51,3.76-3.12,6.18-3.71,0,.2,0,.41-.01.61h0Z"/>
          <path class="cls-11" d="m202.24,132.36c.08-1.51.08-3.01.83-4.45.34-.65.36-1.77.02-2.4-.44-.81.12-1.14.29-1.68.48,1.59,1.11,3.14,1.4,4.76.31,1.71-.85,3.22-2.54,3.76Z"/>
          <path class="cls-2" d="m181.38,122.08c-1.22.33-2.46.58-3.64,1.02-1.25.47-1.9,1.57-2.38,2.76-.31-.05-.63-.1-.94-.16-.22-.91.62-1.15,1.03-1.68,1.7-2.22,4.28-2.17,6.65-2.68.24.07.48.15.72.22-.48.17-.96.34-1.44.51Z"/>
          <path class="cls-2" d="m145.21,110.32c.64,0,1.3-.1,1.9.05.37.09.63.58.95.88-.44-.18-.88-.36-1.57-.65.13,1.42.22,2.54.34,3.9-1.1-1.34-1.42-2.74-1.61-4.18Z"/>
          <path class="cls-2" d="m141.36,99.04c.24.18.62.32.69.55.67,2.29,1.28,4.6,1.91,6.9-1.51-.37-1.14-1.77-1.44-2.75-.48-1.53-.78-3.13-1.16-4.7Z"/>
          <path class="cls-11" d="m196.46,109.65s0,0,0,0c.41.71.82,1.41,1.23,2.12-.49.63-.97,1.27-1.46,1.9h0c-.33-.07-.66-.15-1.06-.24.23-1,.43-1.91.64-2.81,0,0,0-.03,0-.03.73.04.73-.41.65-.94Z"/>
          <path class="cls-2" d="m157.87,116.82c0,.16,0,.32,0,.48-.76-.24-1.4-.2-2.08.37-.57.48-1.24.57-1.77-.32-.49-.82-1.2-1.5-1.81-2.25.43.31.95.55,1.28.94.68.82,1.39,1.23,2.48.81.42-.16.95-.05,1.42-.06.16,0,.32.02.48.02Z"/>
          <path class="cls-2" d="m158.37,117.72c.88-.32,1.72-.37,2.4.43-.8-.14-1.6-.29-2.4-.43Z"/>
          <path class="cls-9" d="m131.25,34.29c.05-1.3,1.03-.13,1.41-.53,0,0,.08.07.08.07-.12.21-.22.6-.36.61-.37.04-.75-.09-1.13-.15Z"/>
          <path class="cls-2" d="m148.33,111.44c.95-.3,1.45.13,1.64,1.04-.55-.35-1.09-.69-1.64-1.04Z"/>
          <path class="cls-2" d="m140.2,96.88c.36.68.72,1.35,1.09,2.03-.36-.68-.72-1.35-1.09-2.03Z"/>
          <path class="cls-6" d="m123.81,50.62c-.15,0-.3-.01-.46-.02-.17-.31-.35-.62-.52-.93,0,0,.07-.07.07-.07.73-.05,1.04.29.91,1.01Z"/>
          <path class="cls-9" d="m109.67,36.45c0-.2,0-.41.01-.61.16-.02.32-.05.48-.07.16.07.31.14.47.21-.32.16-.64.32-.96.47Z"/>
          <path class="cls-11" d="m202.22,123.08c.1-.02.2-.04.31-.06.17.18.34.35.51.53-.43.5-.48.47-.82-.46Z"/>
          <path class="cls-2" d="m161.24,122.11c-.26.29-.52.58-.78.88.26-.29.52-.58.78-.88Z"/>
          <path class="cls-2" d="m144.14,107.67c.09.18.19.37.28.55-.09-.18-.19-.37-.28-.55Z"/>
          <path class="cls-2" d="m144.48,108.4c.07.13.14.27.22.4-.07-.13-.14-.27-.22-.4Z"/>
          <path class="cls-2" d="m150.2,112.72c.08.09.15.18.23.28-.08-.09-.15-.18-.23-.28Z"/>
          <path class="cls-4" d="m123.81,50.62c.13-.73-.18-1.06-.91-1.01-.23-.42-.4-.87-.68-1.25-.93-1.24-2.03-2.31-3.43-3.03,2.96.38,4.67,2.41,6.36,4.68.74-.47,1.42-.34,1.79.78-.24.21-.48.42-.72.63,0,.13,0,.25,0,.38.54.07,1.08.19,1.62.21.49.02.98-.06,1.47-.1.25-.02.51-.06.76-.1.51-.09,1.02-.18,1.9-.34-.96,1.56.51,1.97.71,2.74.43,1.66,1.63.99,2.21,1.25,1.86-2.12,4.67-3.34,5-6.4h-.61c-.1-.47-.18-.87-.33-1.59-.45.51-.7.8-.97,1.11-.24-.17-.5-.35-.82-.57-.02.37-.03.61-.05.87-.66-.26-1.24-.49-2.06-.81-.03-.05-.18-.37-.34-.68h-2.41c.3-1.89.87-3.78-.87-5.27,1.4-.31,1.44-.4.72-1.77-.4.14-.79.38-1.2.4-.82.05-1.65-.01-2.48-.07-.12,0-.23-.24-.34-.38.41-1.01,1.41-.37,2.04-.72.92-.51,1.82-1.06,2.72-1.61.4-.25.78-.54.98-.69.5.55.85.94,1.21,1.34.06.12.12.25.18.37.1-.12.2-.25.3-.37,1.36-.34,2.37.11,3.1,1.38.08.14.14.31.26.39,1.04.71,2.15,1.34,3.13,2.13.75.6,1.36,1.38,2.07,2.12-1.59.83.13,1.27.29,1.86.18.65.84,1.17,1.23,1.78.16.25.2.6.19.9-.02.66-.1,1.31-.17,2.04.73-.04,1.11-.07,1.49-.09q0,1.12-1.35,1.03c.2.68.37,1.27.58,1.96-2.59-1.17-3.34,1.01-4.37,2.18-.84.36-1.44.62-2.15.92-.02-.03-.13-.18-.23-.33-.11-.15-.22-.31-.4-.56-.29.56-.58,1.01-.77,1.5-.34.83-.54,1.53-1.83,1.29-.74-.13-1.65.56-2.45.95-1.39.69-2.92.39-3.55-.47.07-.72.3-1.31.12-1.49-.81-.81-.96-1.64-.43-2.64.1-.2.11-.45.19-.75-.77-.41-1.51-.79-2.26-1.18-.11.08-.22.16-.34.24.2.35.42,1.02.6,1,.78-.05.88.42.65.86-.16.32-.73.69-1.06.63-1.01-.17-1.95-.57-1.89-1.89.03-.67-.32-.94-.96-.9-.08-.32-.17-.64-.25-.96.42-.49.16-.93-.71-1.2-.16-.24-.33-.47-.49-.71Z"/>
          <path class="cls-10" d="m128.14,40.29c.11.13.22.37.34.38.82.06,1.65.11,2.48.07.41-.02.8-.26,1.2-.4.72,1.36.68,1.46-.72,1.77,1.74,1.49,1.17,3.38.87,5.27h2.41c.16.32.31.63.34.68.82.32,1.4.55,2.06.81.01-.25.03-.5.05-.87.32.22.58.4.82.57.27-.31.53-.6.97-1.11.15.72.23,1.12.33,1.59h.61c-.32,3.07-3.14,4.28-5,6.4-.58-.26-1.78.41-2.21-1.25-.2-.76-1.67-1.18-.71-2.74-.88.16-1.39.25-1.9.34-.25.04-.5.08-.76.1-.49.04-.99.12-1.47.1-.54-.02-1.08-.13-1.62-.21,0-.13,0-.25,0-.38.24-.21.49-.43.72-.63-.37-1.11-1.05-1.24-1.79-.78-1.69-2.27-3.4-4.3-6.36-4.68,0,0,0,0,0,0,.03-.38.06-.75.08-1.13.1.08.2.17.29.25.97-.59,1.95-1.17,2.91-1.78.08-.05.05-.3.07-.46.35.03.71.02,1.04.1.63.16,1.25.51,1.87.52.38,0,.77-.46,1.16-.72-.31-.43-.53-.98-.94-1.25-.9-.6-1.88-1.08-2.85-1.58-.27-.14-.61-.13-.9-.23-.54-.19-1.11-.7-.55-1.07.72-.47,1.33-1.38,2.42-1.16.23.05.5.13.7.05.63-.24.81,0,.97.61.14.55.4,1.15.8,1.52.36.34.97.4,1.59.35.23.31.47.62.7.93Zm4.13,12.01l.42.22c.16-.4.32-.8.48-1.2-.11-.04-.21-.09-.32-.13-.19.37-.39.74-.58,1.11Zm-1.05-5.77c-.13-.09-.21-.19-.29-.19-.09,0-.19.08-.28.13.09.09.17.2.28.25.05.02.16-.1.29-.18Zm5.7,5.45c-.07-.03-.15-.1-.2-.08-.05.02-.06.12-.09.19.07.03.15.1.19.08.05-.02.06-.12.09-.19Z"/>
          <path class="cls-7" d="m172.47,85.02c-.93-.51-1.82-1-2.72-1.49-.07.11-.14.21-.21.32-.15-.64-.3-1.28-.45-1.96-.78.28-1.65.95-1.64-.59,0-.14-.2-.29-.31-.43-.16.13-.34.25-.48.4-.13.15-.24.49-.33.48-.6-.07-1.22-.13-1.77-.35-.54-.22-1-.64-1.59-1.03-.06.08-.27.34-.54.7-.15-.24-.41-.46-.36-.59.27-.8.71-1.56.87-2.38.11-.57-.04-1.27-.28-1.81-.48-1.04-.63-2.03-.52-3.2.11-1.09.92-.59,1.35-.9.07-.05.67.41.81.73.29.67.65,1.42.58,2.1-.07.77-.58,1.51-.95,2.37.5.62,1.12,1.46,1.85,2.2.18.19.72.03,1.09.03,0-.1.02-.19.02-.29-.26-.06-.51-.12-1.13-.26.57-.49.98-.84,1.44-1.24-.1-.12-.3-.27-.35-.46-.09-.33-.09-.69-.12-1.04.35.05.71.06,1.03.17.38.14.73.38,1.19.62-.37.66-.71,1.27-.98,1.77.51,0,1.27-.23,1.68.05.72.5,1.56,1.23,1.72,2,.16.81.61,1.08,1.09,1.48,1.28,1.09,1.27,1.53.03,2.6Z"/>
          <path class="cls-4" d="m122.14,42.21c-.02.16.02.4-.07.46-.96.61-1.94,1.19-2.91,1.78-.1-.08-.2-.17-.29-.25-.03.38-.06.75-.08,1.13-1.12-.66-2.25-1.3-3.34-1.99-.14-.09-.13-.41-.16-.51h5.09c.04-.58.07-.96.1-1.33.08,0,.16,0,.24,0,.48.24.96.48,1.44.72Z"/>
          <path class="cls-9" d="m148.09,73.09c-.05-.21-.12-.42-.12-.63,0-.05.25-.1.38-.15.04.23.09.46.13.69-.13.03-.26.06-.4.08Z"/>
          <path class="cls-9" d="m129.33,61.87c-.08-.16-.16-.31-.24-.47.23,0,.45,0,.68-.01-.15.16-.29.32-.44.48Z"/>
          <path class="cls-9" d="m166.78,67.23c.08-.23.15-.46.23-.69l.3.08c-.06.23-.12.46-.18.69-.12-.03-.23-.06-.35-.09Z"/>
          <path class="cls-9" d="m169.24,74.65c.03-.07.04-.17.09-.19.05-.02.13.05.19.08-.03.07-.04.17-.09.19-.05.02-.13-.05-.19-.08Z"/>
          <path class="cls-4" d="m135.09,38.61c.1-.12.2-.25.3-.37.06.12.12.25.18.37h-.48Z"/>
          <path class="cls-9" d="m147.24,72.73c-.07.03-.15.09-.2.07-.05-.02-.06-.13-.08-.19.07-.03.15-.09.2-.07.05.02.06.12.08.19Z"/>
          <path class="cls-9" d="m147.15,94.88c-.07-.03-.17-.04-.19-.09-.02-.05.05-.13.07-.2.07.03.17.04.19.09.02.05-.05.13-.07.2Z"/>
          <path class="cls-9" d="m147.5,70.37c.07.03.13.06.2.09-.03.07-.04.17-.09.19-.05.02-.13-.05-.2-.08.03-.07.06-.13.09-.2Z"/>
          <path class="cls-9" d="m147.42,78.01c.03-.07.04-.17.09-.19.05-.02.13.05.2.08-.03.07-.04.17-.09.19-.05.02-.13-.05-.2-.08Z"/>
          <path class="cls-9" d="m146.19,82.89c-.07-.03-.17-.04-.19-.09-.02-.05.05-.13.08-.2.07.03.17.04.19.09.02.05-.05.13-.07.2Z"/>
          <path class="cls-10" d="m190.49,96.89c.99,2.68,1.97,5.37,2.97,8.04.3.8.72,1.55.97,2.36.35,1.15.58,2.34.87,3.51-.08.16-.15.32-.23.48-.12.1-.32.17-.36.29-.19.74-.32,1.49-1.35,1.51-.07,0-.31.96-.13,1.16.41.44.36.64-.1.89-.79,0-1.59,0-2.38,0-.75-.02-1.47,0-1.7.93-.16,0-.31,0-.47,0-.17.07-.34.14-.51.21-.31.01-.62.02-.93.03-.48,0-.95,0-1.43,0-2.06.29-3.89-.7-5.84-1.01-.74-.12-1.5-.14-2.25-.19-1.14-.07-1.98-.95-1.86-1.98-1.51-.13-1.6-.35-.83-1.71,1.85.76,3.44,2.28,5.75,1.47.45-.16,1.12.31,1.7.47.26.07.54.11.82.13.58.04,1.16.09,1.74.09.21,0,.42-.12.63-.19-.13-.34-.27-.68-.43-1.11.18-.13.45-.32.8-.57-.95-.79-1.86-1.53-2.79-2.3.46-.74,1.01-.54,1.59-.15.42.28.83.56,1.25.84.03.02.06.07.09.08.23.04.5.18.68.1.78-.31,1.53-.69,2.11-.97-.29-.37-.59-.65-.75-1-.39-.89-.46-2.14-1.12-2.65-.85-.65-1.12-1.82-1.86-2.17-1.04-.5-.87-.9-.37-1.64-.52-.08-.95-.15-1.38-.21-1.64-.26-1.32-1.84-1.67-2.81-.3-.82-.6-1.4-1.43-1.79,1.31-1.9-.87-1.53-1.6-2.34.55-.13.94-.23,1.39-.34.4-.94-.23-1.6-.66-2.35-.31-.54-1.12-.92-.55-1.84.12-.19-.49-.92-.85-1.32-.62-.7-.6-1.4-.14-2.3.61.75,1.82.88,1.51,2.23-.04.18.81.85,1.03.76,1.08-.45,1.43.66,2.17.86.1.06.2.17.3.18,2.22.16,2.92,2.32,4.45,3.39,1.16.81,2.11,1.93,3.15,2.91Z"/>
          <path class="cls-9" d="m185.71,116.32c.48,0,.95,0,1.43,0-.88.64-1.78,1.26-2.62,1.94-.22.18-.26.56-.39.85.32.08.78.34.93.22,1.06-.83,1.81.13,2.46.24-.53.33-1.11.75-1.74,1.06-.37.18-.85.15-1.24.3-.43.16-.82.42-1.23.63-.17,0-.33.01-.5.01-.24-.07-.48-.15-.72-.22-.31-1.76,1.17-2.51,2.06-3.58.45-.54,1.03-.97,1.55-1.45Z"/>
          <path class="cls-6" d="m178.75,84.9c1.16.13,1.33,1,1.44,1.92-1.01-.82-2.09-1.46-3.46-1.51-.14,0-.25-.73-.38-1.13.8.24,1.6.48,2.4.72Z"/>
          <path class="cls-6" d="m155.07,104.63c.19.35.4.55.36.69-.04.17-.27.35-.45.4-.1.03-.41-.24-.39-.3.08-.23.25-.43.48-.79Z"/>
          <path class="cls-6" d="m154.46,101.06c.07.03.17.04.19.09.02.05-.05.13-.08.19-.07-.03-.17-.04-.19-.09-.02-.05.05-.13.08-.2Z"/>
          <path class="cls-2" d="m138.93,75.43c-.52.11-1.04.22-1.56.34-.04-.18-.09-.35-.13-.53.51-.15,1.02-.29,1.53-.44.05.21.11.42.16.63Z"/>
          <path class="cls-7" d="m156.64,116.19c-.34.04-.68.07-1.02.11-.03-.14-.06-.27-.09-.41.34-.08.68-.16,1.02-.25.03.18.06.36.08.55Z"/>
          <path class="cls-2" d="m138.13,93.83l.45-.66c.08.08.16.16.23.24-.22.14-.45.29-.67.43,0,0,.04-.05.04-.05l-.05.04Z"/>
          <path class="cls-1" d="m187.38,121.35c.31-.39.6-.8.95-1.16.29-.29.65-.5.98-.75.15-.17.3-.34.45-.5.08-.08.16-.16.24-.24.17-.31.33-.63.5-.94,0,0,0,0,0,0,1.51.84,3.15.42,4.75.51.45.03.9.22,1.58.39-1.09.49-1.96.89-2.88,1.31-.15.31-.39.71-.57,1.14-.18.43-.53.95-.42,1.32.5,1.67-.6,1.82-1.74,2.11-.78.2-1.48.69-2.25.94-.43.14-.99.23-1.36.07-.26-.12-.44-.71-.44-1.09.01-1.04.14-2.07.22-3.11Z"/>
          <path class="cls-6" d="m124.3,51.32c.87.27,1.13.71.71,1.2-.24-.4-.47-.8-.71-1.2Z"/>
          <path class="cls-6" d="m196.24,113.66c.45-.32.91-.64,1.41-.99.59,1.02,1.13,1.95,1.89,3.26-1.18.04-2.11.12-3.03.06-.17-.01-.39-.6-.42-.93-.04-.46.09-.93.14-1.4,0,0,0,0,0,0Z"/>
          <path class="cls-9" d="m193.13,115.13c.46-.25.51-.45.1-.89-.18-.2.07-1.16.13-1.16,1.03-.02,1.16-.77,1.35-1.51.03-.12.23-.2.36-.29-.23,1.26-.38,2.55-.72,3.78-.23.82-.77.85-1.22.06Z"/>
          <path class="cls-9" d="m189.05,116.06c.23-.93.95-.95,1.7-.93-.23.93-.96.95-1.7.93Z"/>
          <path class="cls-11" d="m190.5,117.76c-.17.31-.33.63-.5.94.17-.31.33-.63.5-.94Z"/>
          <path class="cls-11" d="m189.76,118.94c-.15.17-.3.34-.45.5.15-.17.3-.34.45-.5Z"/>
          <path class="cls-9" d="m188.07,116.28c.17-.07.34-.14.51-.21-.17.07-.34.14-.51.21Z"/>
          <path class="cls-2" d="m196.46,109.65c.09.52.08.98-.65.94-.07-.22-.21-.44-.2-.65.01-.24.16-.46.25-.7.2.14.4.28.6.41Z"/>
          <path class="cls-6" d="m135.09,38.61h.48c-.1.12-.2.25-.3.37-.06-.12-.12-.25-.18-.37Z"/>
          <path class="cls-4" d="m132.27,52.3c.19-.37.39-.74.58-1.11.11.04.21.09.32.13-.16.4-.32.8-.48,1.2l-.42-.22Z"/>
          <path class="cls-4" d="m131.22,46.53c-.13.09-.24.21-.29.18-.11-.05-.19-.16-.28-.25.09-.05.19-.13.28-.13.08,0,.16.1.29.19Z"/>
          <path class="cls-4" d="m136.92,51.98c-.03.07-.04.17-.09.19-.05.02-.13-.05-.19-.08.03-.07.04-.17.09-.19.05-.02.13.05.2.08Z"/>
        </g>
      </g>
    </g>
  </g>
</svg>