<?xml version="1.0" encoding="UTF-8"?>
<svg id="Stars" xmlns="http://www.w3.org/2000/svg" viewBox="0 0 360 258.1">
  <defs>
    <style>
      .cls-1 {
        fill: #ffffdb;
      }

      .cls-1, .cls-2, .cls-3, .cls-4 {
        stroke-width: 0px;
      }

      .cls-2 {
        fill: #fff;
      }

      .cls-3 {
        fill: #e8f6fc;
      }

      .cls-4 {
        fill: #ffe3ff;
      }
    </style>
  </defs>
  <g id="Group_2_-_Medium" data-name="Group 2 - Medium">
    <path class="cls-2" d="m44.4,39.2s-.1.2.1.4c.1.1.3.2.4.1,0,0-.2.1-.3.2-.1.2-.1.3-.1.4,0-.1-.1-.2-.3-.3-.1-.1-.3-.1-.4-.1.1,0,.2-.1.3-.2.2-.2.3-.4.3-.5Z"/>
    <path class="cls-1" d="m20.9,22.8c.1,0,.4.1.6,0-.3-.1-.5-.2-.6-.2s-.2,0-.2-.1c.1-.1.1-.2.2-.3l-.2.2c-.1-.1-.1-.2,0-.3,0-.2,0-.4-.1-.6,0,.3-.1.5-.1.6s0,.2-.1.3h0c-.1-.1-.2-.1-.3-.2l.2.2h-1c.3.1.5.1.6.1s.2,0,.3.1c-.1.1-.3.2-.3.3s.2-.2.3-.2h0v.9c.1-.2.1-.4.1-.5s0-.2.1-.2c.1.1.2.2.3.2-.1-.1-.2-.2-.2-.3h0c.2-.1.3-.1.4,0Z"/>
    <polygon class="cls-4" points="41.6 24.7 41.3 24.6 41.1 24.8 41.1 24.6 40.9 24.4 41.1 24.3 41.1 24.1 41.3 24.2 41.6 24.2 41.5 24.4 41.6 24.7"/>
    <path class="cls-2" d="m116.2,55.7s-.1.2.1.4c.1.1.3.2.4.1,0,0-.2.1-.3.2-.1.2-.1.3-.1.4,0-.1-.1-.2-.3-.3-.1-.1-.3-.1-.4-.1.1,0,.2-.1.3-.2.2-.3.3-.5.3-.5Z"/>
    <path class="cls-4" d="m129,36.3s.2-.3.5-.3c.2,0,.5.1.6.3,0-.1-.1-.3-.1-.6.1-.3.3-.5.3-.5-.1,0-.4.1-.7,0s-.4-.2-.5-.3c.1.1.1.3.1.5,0,.5-.1.8-.2.9Z"/>
    <path class="cls-1" d="m31.2,49.9c.1,0,.4.1.6,0-.3-.1-.5-.2-.6-.2s-.2,0-.2-.1c.1-.1.1-.2.2-.3-.1.1-.2.2-.2.2-.1-.1-.1-.2,0-.3,0-.2,0-.4-.1-.6,0,.3-.1.5-.1.6s0,.2-.1.3h0c-.1-.1-.2-.1-.3-.2.1.1.2.2.2.2h-1c.3.1.5.1.6.1s.2,0,.3.1c-.1.1-.3.2-.3.3s.2-.2.3-.2h0v.9c.1-.2.1-.4.1-.5s0-.2.1-.2c.1.1.2.2.3.2-.1-.1-.2-.2-.2-.3h0c.2,0,.3,0,.4,0Z"/>
    <polygon class="cls-4" points="87.1 24.3 86.8 24.3 86.7 24.4 86.6 24.2 86.4 24.1 86.6 24 86.7 23.7 86.9 23.9 87.1 23.8 87 24.1 87.1 24.3"/>
    <polygon class="cls-1" points="82.4 15.5 82.2 15.5 82.1 15.7 82 15.5 81.8 15.4 82 15.3 82.1 15.1 82.2 15.2 82.4 15.2 82.3 15.4 82.4 15.5"/>
    <path class="cls-3" d="m103.9,13.5s.1.5-.2.9c-.2.3-.6.4-1,.3.1,0,.5.2.7.5.3.4.2.8.2.9.1-.2.3-.5.7-.8.4-.2.7-.3.9-.3-.2-.1-.5-.2-.7-.5-.5-.3-.6-.8-.6-1Z"/>
    <path class="cls-2" d="m160.8,30.8s.1.2.3.1c.2,0,.3-.1.3-.3v.4c.1.2.3.2.3.2-.1,0-.2,0-.4.1-.1.1-.2.2-.3.3v-.4c0-.2-.2-.4-.2-.4Z"/>
    <path class="cls-4" d="m208.6,19.5s.2-.3.5-.3c.2,0,.5.1.6.3,0-.1-.1-.3-.1-.6.1-.3.3-.5.3-.5-.1,0-.4.1-.7,0s-.4-.2-.5-.3c.1.1.1.3.1.5,0,.5-.2.8-.2.9Z"/>
    <polygon class="cls-4" points="166.7 7.5 166.4 7.4 166.2 7.6 166.2 7.4 166 7.2 166.2 7.1 166.2 6.9 166.4 7 166.7 7 166.6 7.2 166.7 7.5"/>
    <path class="cls-3" d="m233,54.9s.1.5-.2.9c-.2.3-.6.4-1,.3.1,0,.5.2.7.5.3.4.2.8.2.9.1-.2.3-.5.7-.8.4-.2.7-.3.9-.3-.2-.1-.5-.2-.7-.5-.4-.3-.5-.8-.6-1Z"/>
    <path class="cls-4" d="m284.5,59.5s.2-.3.5-.3c.2,0,.5.1.6.3,0-.1-.1-.3-.1-.6.1-.3.3-.5.3-.5-.1,0-.4.1-.7,0-.3-.1-.4-.2-.5-.3.1.1.1.3.1.5,0,.5-.1.8-.2.9Z"/>
    <polygon class="cls-4" points="242.6 47.5 242.3 47.4 242.2 47.6 242.1 47.4 241.9 47.2 242.1 47.1 242.2 46.9 242.3 47.1 242.6 47 242.5 47.2 242.6 47.5"/>
    <path class="cls-4" d="m232.7,49.7s.2-.3.5-.3c.2,0,.5.1.6.3,0-.1-.1-.3-.1-.6.1-.3.3-.5.3-.5-.1,0-.4.1-.7,0s-.4-.2-.5-.3c.1.1.1.3.1.5.1.5-.1.8-.2.9Z"/>
    <polygon class="cls-1" points="279.7 70.5 279.5 70.5 279.3 70.6 279.3 70.4 279.1 70.3 279.3 70.2 279.3 70 279.5 70.2 279.7 70.1 279.6 70.3 279.7 70.5"/>
    <path class="cls-2" d="m281,20.9s-.1.2.1.4c.1.1.3.2.4.1,0,0-.2.1-.3.2-.1.2-.1.3-.1.4,0-.1-.1-.2-.3-.3-.1-.1-.3-.1-.4-.1.1,0,.2-.1.3-.2.2-.2.3-.4.3-.5Z"/>
    <path class="cls-3" d="m300.6,18.4s.1.5-.2.9c-.2.3-.6.4-1,.3.1,0,.5.2.7.5.3.4.2.8.2.9.1-.2.3-.5.7-.8.4-.2.7-.3.9-.3-.2-.1-.5-.2-.7-.5-.4-.3-.5-.8-.6-1Z"/>
    <path class="cls-2" d="m304.3,34.3s.1.2.3.1c.2,0,.3-.1.3-.3v.4c.1.2.3.2.3.2-.1,0-.2,0-.4.1-.1.1-.2.2-.3.3v-.4c0-.2-.1-.3-.2-.4Z"/>
    <path class="cls-4" d="m352.1,23s.2-.3.5-.3c.2,0,.5.1.6.3,0-.1-.1-.3-.1-.6.1-.3.3-.5.3-.5-.1,0-.4.1-.7,0-.3-.1-.4-.2-.5-.3.1.1.1.3.1.5,0,.6-.1.8-.2.9Z"/>
    <path class="cls-3" d="m342.9,8.7c-.1-.1-.2-.2-.3-.4.1.2.2.4.2.5s.1.1.1.2h-.3.3c0,.1-.1.1-.1.2-.1.1-.2.2-.3.4.2-.1.3-.2.4-.3s.1-.1.2-.1h0v.3-.3c.1,0,.1.1.2.1.1.1.2.2.4.4-.1-.2-.2-.3-.3-.4-.1-.1-.1-.2-.1-.2h.3-.3c0-.1.1-.1.1-.2.1-.1.2-.2.3-.3-.2.1-.3.2-.4.2s-.1.1-.2.1v-.3.3h0c-.1,0-.1-.1-.2-.2Z"/>
    <polygon class="cls-4" points="336.5 27.9 336.2 27.8 336 28 336 27.8 335.8 27.6 336 27.5 336 27.3 336.2 27.4 336.5 27.4 336.4 27.6 336.5 27.9"/>
    <path class="cls-2" d="m317.1,131.6s-.1.2.1.4c.1.1.3.2.4.1,0,0-.2.1-.3.2-.1.2-.1.3-.1.4,0-.1-.1-.2-.3-.3-.1-.1-.3-.1-.4-.1.1,0,.2-.1.3-.2.3-.2.3-.4.3-.5Z"/>
    <path class="cls-2" d="m282.1,123.6s.1.2.3.1c.2,0,.3-.1.3-.3v.4c.1.2.3.2.3.2-.1,0-.2,0-.4.1-.1.1-.2.2-.3.3v-.4c0-.2-.1-.4-.2-.4Z"/>
    <path class="cls-2" d="m305.2,101.9c0,.2-.1.5-.3.5-.2.1-.5,0-.6-.2.2.1.5.2.5.4.1.2-.2.5-.2.5,0,0,.1-.4.4-.5.2-.1.4.1.6.2-.2,0-.4-.2-.5-.4-.1-.1-.1-.4.1-.5Z"/>
    <path class="cls-2" d="m237.4,10.5c.2.2.2.4.1.6-.1.2-.3.3-.6.3.2-.1.5-.2.6-.1.2.1.2.5.2.6,0,0-.2-.4-.1-.6.1-.2.4-.2.6-.2-.2.1-.4.2-.6.1-.1-.3-.2-.5-.2-.7Z"/>
    <path class="cls-2" d="m354.6,131.5s.1.2.3.1c.2,0,.3-.1.3-.3v.4c.1.2.3.2.3.2-.1,0-.2,0-.4.1-.1.1-.2.2-.3.3v-.4c0-.2-.1-.3-.2-.4Z"/>
    <path class="cls-3" d="m341.5,104.7s.1.5-.2.9c-.2.3-.6.4-1,.3.1,0,.5.2.7.5.3.4.2.8.2.9.1-.2.3-.5.7-.8.4-.2.7-.3.9-.3-.2-.1-.5-.2-.7-.5-.5-.3-.6-.8-.6-1Z"/>
    <polygon class="cls-4" points="351.1 97.3 350.8 97.3 350.6 97.4 350.6 97.2 350.3 97.1 350.6 96.9 350.6 96.7 350.8 96.9 351.1 96.8 350.9 97.1 351.1 97.3"/>
    <path class="cls-3" d="m226,99.2c-.1-.1-.2-.2-.3-.4.1.2.2.4.2.5s.1.1.1.2h-.3.3c0,.1-.1.1-.1.2-.1.1-.2.2-.3.4.2-.1.3-.2.4-.3q.1-.1.2-.1h0v.3-.3c.1,0,.1.1.2.1.1.1.2.2.4.4-.1-.2-.2-.3-.3-.4s-.1-.2-.1-.2h.3-.3c0-.1.1-.1.1-.2.1-.1.2-.2.3-.3-.2.1-.3.2-.4.2s-.1.1-.2.1v-.3.3h0c-.1,0-.2-.1-.2-.2Z"/>
    <polygon class="cls-4" points="288.1 100.3 287.8 100.3 287.6 100.4 287.6 100.2 287.3 100.1 287.6 99.9 287.6 99.7 287.8 99.9 288.1 99.8 287.9 100.1 288.1 100.3"/>
    <path class="cls-2" d="m333.9,59.5c0,.2-.1.5-.3.5-.2.1-.5,0-.6-.2.2.1.5.2.5.4.1.2-.2.5-.2.5,0,0,.1-.4.4-.5.2-.1.4.1.6.2-.2,0-.4-.2-.5-.4-.1-.1-.1-.3.1-.5Z"/>
    <path class="cls-1" d="m322.4,72.8c.1,0,.4.1.6,0-.3-.1-.5-.2-.6-.2s-.2,0-.2-.1c.1-.1.1-.2.2-.3l-.2.2c-.1-.1-.1-.2,0-.3,0-.2,0-.4-.1-.6,0,.3-.1.5-.1.6s0,.2-.1.3h0c-.1-.1-.2-.1-.3-.2l.2.2h-1c.3.1.5.1.6.1s.2,0,.3.1c-.1.1-.3.2-.3.3s.2-.2.3-.2h0v.9c.1-.2.1-.4.1-.5s0-.2.1-.2c.1.1.2.2.3.2-.1-.1-.2-.2-.2-.3h.4Z"/>
    <polygon class="cls-1" points="325.1 123.3 324.9 123.3 324.8 123.4 324.8 123.2 324.6 123.1 324.8 123 324.8 122.8 324.9 123 325.1 123 325 123.1 325.1 123.3"/>
    <path class="cls-2" d="m168.9,93.4s.1.2.3.1c.2,0,.3-.1.3-.3v.4c.1.2.3.2.3.2-.1,0-.2,0-.4.1-.1.1-.2.2-.3.3v-.4c0-.2-.1-.4-.2-.4Z"/>
    <path class="cls-2" d="m184.8,97.4c.2.2.2.4.1.6-.1.2-.3.3-.6.3.2-.1.5-.2.6-.1.2.1.2.5.2.6,0,0-.2-.4-.1-.6.1-.2.4-.2.6-.2-.2.1-.4.2-.6.1-.1-.3-.2-.5-.2-.7Z"/>
    <path class="cls-2" d="m280.1,137.2c.2.2.2.4.1.6-.1.2-.3.3-.6.3.2-.1.5-.2.6-.1.2.1.2.5.2.6,0,0-.2-.4-.1-.6.1-.2.4-.2.6-.2-.2.1-.4.2-.6.1-.1-.3-.2-.5-.2-.7Z"/>
    <path class="cls-3" d="m207.5,67.8c-.1-.1-.2-.2-.3-.4.1.2.2.4.2.5s.1.1.1.2h-.3.3c0,.1-.1.1-.1.2-.1.1-.2.2-.3.4.2-.1.3-.2.4-.3q.1-.1.2-.1h0v.3-.3c.1,0,.1.1.2.1.1.1.2.2.4.4-.1-.2-.2-.3-.3-.4s-.1-.2-.1-.2h.3-.3c0-.1.1-.1.1-.2.1-.1.2-.2.3-.3-.2.1-.3.2-.4.2s-.1.1-.2.1v-.3.3h0c-.1,0-.1-.1-.2-.2Z"/>
    <path class="cls-2" d="m204,138.4c.2.2.2.4.1.6-.1.2-.3.3-.6.3.2-.1.5-.2.6-.1.2.1.2.5.2.6,0,0-.2-.4-.1-.6.1-.2.4-.2.6-.2-.2.1-.4.2-.6.1-.1-.3-.2-.5-.2-.7Z"/>
    <path class="cls-1" d="m199.7,126c.1,0,.4.1.6,0-.3-.1-.5-.2-.6-.2s-.2,0-.2-.1c.1-.1.1-.2.2-.3-.1.1-.2.2-.2.2-.1-.1-.1-.2,0-.3,0-.2,0-.4-.1-.6,0,.3-.1.5-.1.6s0,.2-.1.3h0c-.1-.1-.2-.1-.3-.2.1.1.2.2.2.2h-1c.3.1.5.1.6.1s.2,0,.3.1c-.1.1-.3.2-.3.3s.2-.2.3-.2h0v.9c.1-.2.1-.4.1-.5s0-.2.1-.2c.1.1.2.2.3.2-.1-.1-.2-.2-.2-.3h.4Z"/>
    <path class="cls-3" d="m159,131.4c-.1-.1-.2-.2-.3-.4.1.2.2.4.2.5s.1.1.1.2h-.3.3c0,.1-.1.1-.1.2-.1.1-.2.2-.3.4.2-.1.3-.2.4-.3q.1-.1.2-.1h0v.3-.3c.1,0,.1.1.2.1l.4.4c-.1-.2-.2-.3-.3-.4-.1-.1-.1-.2-.1-.2h.3-.3c0-.1.1-.1.1-.2l.3-.3c-.2.1-.3.2-.4.2s-.1.1-.2.1v-.3.3h0c-.1,0-.2-.1-.2-.2Z"/>
    <path class="cls-3" d="m178.4,54.5s.1.5-.2.9c-.2.3-.6.4-1,.3.1,0,.5.2.7.5.3.4.2.8.2.9.1-.2.3-.5.7-.8.4-.2.7-.3.9-.3-.2-.1-.5-.2-.7-.5-.4-.4-.6-.8-.6-1Z"/>
    <polygon class="cls-4" points="188 47.1 187.7 47 187.5 47.2 187.5 46.9 187.3 46.8 187.5 46.7 187.5 46.4 187.7 46.6 188 46.6 187.9 46.8 188 47.1"/>
    <polygon class="cls-4" points="201.1 86.9 200.8 86.9 200.7 87.1 200.6 86.8 200.4 86.7 200.6 86.6 200.7 86.3 200.8 86.5 201.1 86.5 201 86.7 201.1 86.9"/>
    <polygon class="cls-4" points="154.7 39.6 154.4 39.6 154.2 39.8 154.2 39.5 153.9 39.4 154.2 39.3 154.2 39 154.4 39.2 154.7 39.2 154.5 39.4 154.7 39.6"/>
    <path class="cls-4" d="m144.1,59.9s.2-.3.5-.3c.2,0,.5.1.6.3,0-.1-.1-.3-.1-.6.1-.3.3-.5.3-.5-.1,0-.4.1-.7,0s-.4-.2-.5-.3c.1.1.1.3.1.5.1.6-.1.8-.2.9Z"/>
    <path class="cls-4" d="m139.1,42.6s.2-.3.5-.3c.2,0,.5.1.6.3,0-.1-.1-.3-.1-.6.1-.3.3-.5.3-.5-.1,0-.4.1-.7,0s-.4-.2-.5-.3c.1.1.1.3.1.5,0,.5-.1.8-.2.9Z"/>
    <polygon class="cls-1" points="139.3 70.9 139.1 70.9 139 71 138.9 70.8 138.8 70.8 138.9 70.7 139 70.5 139.1 70.6 139.3 70.6 139.2 70.8 139.3 70.9"/>
    <path class="cls-2" d="m33,85.9s.1.2.3.1c.2,0,.3-.1.3-.3v.4c.1.2.3.2.3.2-.1,0-.2,0-.4.1-.1.1-.2.2-.3.3v-.4c.1-.2-.1-.3-.2-.4Z"/>
    <path class="cls-2" d="m56.1,64.2c0,.2-.1.5-.3.5-.2.1-.5,0-.6-.2.2.1.5.2.5.4.1.2-.2.5-.2.5,0,0,.1-.4.4-.5.2-.1.4.1.6.2-.2,0-.4-.2-.5-.4-.1-.1,0-.3.1-.5Z"/>
    <path class="cls-2" d="m49,89.9c.2.2.2.4.1.6-.1.2-.3.3-.6.3.2-.1.5-.2.6-.1.2.1.2.5.2.6,0,0-.2-.4-.1-.6.1-.2.4-.2.6-.2-.2.1-.4.2-.6.1-.1-.2-.3-.4-.2-.7Z"/>
    <path class="cls-3" d="m71.7,60.3c-.1-.1-.2-.2-.3-.4.1.2.2.4.2.5s.1.1.1.2h-.3.3c0,.1-.1.1-.1.2-.1.1-.2.2-.3.4.2-.1.3-.2.4-.3s.1-.1.2-.1h0v.3-.3c.1,0,.1.1.2.1.1.1.2.2.4.4-.1-.2-.2-.3-.3-.4-.1-.1-.1-.2-.1-.2h.3-.3c0-.1.1-.1.1-.2.1-.1.2-.2.3-.3-.2.1-.3.2-.4.2s-.1.1-.2.1v-.3.3h0c-.1,0-.2-.1-.2-.2Z"/>
    <path class="cls-3" d="m100.6,104.2s.1.5-.2.9c-.2.3-.6.4-1,.3.1,0,.5.2.7.5.3.4.2.8.2.9.1-.2.3-.5.7-.8.4-.2.7-.3.9-.3-.2-.1-.5-.2-.7-.5-.4-.3-.5-.8-.6-1Z"/>
    <path class="cls-2" d="m120.2,124.1c.2.2.2.4.1.6s-.3.3-.6.3c.2-.1.5-.2.6-.1.2.1.2.5.2.6,0,0-.2-.4-.1-.6s.4-.2.6-.2c-.2.1-.4.2-.6.1-.1-.2-.2-.5-.2-.7Z"/>
    <path class="cls-1" d="m91.7,91.5c.1,0,.4.1.6,0-.3-.1-.5-.2-.6-.2s-.2,0-.2-.1c.1-.1.1-.2.2-.3l-.2.2c-.1-.1-.1-.2,0-.3,0-.2,0-.4-.1-.6,0,.3-.1.5-.1.6s0,.2-.1.3h0c-.2,0-.3-.1-.4-.1l.2.2h-1c.3.1.5.1.6.1s.2,0,.3.1c-.1.1-.3.2-.3.3s.2-.2.3-.2h0v.9c.1-.2.1-.4.1-.5s0-.2.1-.2c.1.1.2.2.3.2-.1-.1-.2-.2-.2-.3h0c.3-.2.4-.1.5-.1Z"/>
    <path class="cls-3" d="m142.9,94.5c-.1-.1-.2-.2-.3-.4.1.2.2.4.2.5s.1.1.1.2h-.3.3c0,.1-.1.1-.1.2-.1.1-.2.2-.3.4.2-.1.3-.2.4-.3q.1-.1.2-.1h0v.3-.3c.1,0,.1.1.2.1.1.1.2.2.4.4-.1-.2-.2-.3-.3-.4s-.1-.2-.1-.2h.3-.3c0-.1.1-.1.1-.2.1-.1.2-.2.3-.3-.2.1-.3.2-.4.2s-.1.1-.2.1v-.3.3h0c-.1,0-.1-.1-.2-.2Z"/>
    <path class="cls-2" d="m8.8,62.8s-.1.2.1.4c.1.1.3.2.4.1,0,0-.2.1-.3.2-.1.2-.1.3-.1.4,0-.1-.1-.2-.3-.3-.1-.1-.3-.1-.4-.1.1,0,.2-.1.3-.2.2-.2.3-.4.3-.5Z"/>
    <polygon class="cls-4" points="18.7 69.4 18.5 69.4 18.3 69.6 18.3 69.3 18 69.2 18.3 69.1 18.3 68.8 18.5 69 18.8 69 18.6 69.2 18.7 69.4"/>
    <path class="cls-1" d="m66,140.3c.1,0,.4.1.6,0-.3-.1-.5-.2-.6-.2s-.2,0-.2-.1c.1-.1.1-.2.2-.3-.1.1-.2.2-.2.2-.1-.1-.1-.2,0-.3,0-.2,0-.4-.1-.6,0,.3-.1.5-.1.6s0,.2-.1.3h0c-.1-.1-.2-.1-.3-.2.1.1.2.2.2.2h-1c.3.1.5.1.6.1s.2,0,.3.1c-.1.1-.3.2-.3.3s.2-.2.3-.2h0v.9c.1-.2.1-.4.1-.5s0-.2.1-.2c.1.1.2.2.3.2-.1-.1-.2-.2-.2-.3h0c.1-.1.2,0,.4,0Z"/>
    <polygon class="cls-1" points="147.3 119.8 147.1 119.8 147 119.9 146.9 119.7 146.7 119.6 146.9 119.5 147 119.3 147.1 119.5 147.3 119.5 147.2 119.6 147.3 119.8"/>
    <path class="cls-3" d="m2.4,120.7s.1.5-.2.9c-.2.3-.6.4-1,.3.1,0,.5.2.7.5.3.4.2.8.2.9.1-.2.3-.5.7-.8.4-.2.7-.3.9-.3-.2-.1-.5-.2-.7-.5-.4-.3-.5-.8-.6-1Z"/>
    <path class="cls-2" d="m6.1,136.6s.1.2.3.1c.2,0,.3-.1.3-.3v.4c.1.2.3.2.3.2-.1,0-.2,0-.4.1-.1.1-.2.2-.3.3v-.4c0-.2-.2-.4-.2-.4Z"/>
    <path class="cls-1" d="m17.6,128.2c.1,0,.4.1.6,0-.3-.1-.5-.2-.6-.2s-.2,0-.2-.1c.1-.1.1-.2.2-.3l-.2.2c-.1-.1-.1-.2,0-.3,0-.2,0-.4-.1-.6,0,.3-.1.5-.1.6s0,.2-.1.3h0c-.1-.1-.2-.1-.3-.2l.2.2h-1c.3.1.5.1.6.1s.2,0,.3.1c-.1.1-.3.2-.3.3s.2-.2.3-.2h0v.9c.1-.2.1-.4.1-.5s0-.2.1-.2c.1.1.2.2.3.2-.1-.1-.2-.2-.2-.3h0c.2-.1.3,0,.4,0Z"/>
    <path class="cls-3" d="m44.7,111c-.1-.1-.2-.2-.3-.4.1.2.2.4.2.5s.1.1.1.2h-.3.3c0,.1-.1.1-.1.2-.1.1-.2.2-.3.4.2-.1.3-.2.4-.3q.1-.1.2-.1h0v.3-.3c.1,0,.1.1.2.1.1.1.2.2.4.4-.1-.2-.2-.3-.3-.4s-.1-.2-.1-.2h.3-.3c0-.1.1-.1.1-.2.1-.1.2-.2.3-.3-.2.1-.3.2-.4.2s-.1.1-.2.1v-.3.3h0q-.1-.1-.2-.2Z"/>
    <polygon class="cls-1" points="49.1 136.3 48.9 136.3 48.7 136.4 48.7 136.2 48.5 136.1 48.7 136 48.7 135.8 48.9 136 49.1 135.9 49 136.1 49.1 136.3"/>
  </g>
</svg>