<?xml version="1.0" encoding="UTF-8"?>
<svg id="Stars" xmlns="http://www.w3.org/2000/svg" viewBox="0 0 360 258.1">
  <defs>
    <style>
      .cls-1 {
        fill: #ffffdb;
      }

      .cls-1, .cls-2, .cls-3, .cls-4 {
        stroke-width: 0px;
      }

      .cls-2 {
        fill: #fff;
      }

      .cls-3 {
        fill: #e8f6fc;
      }

      .cls-4 {
        fill: #ffe3ff;
      }
    </style>
  </defs>
  <g id="Group_1_-_Slowest" data-name="Group 1 - Slowest">
    <path class="cls-3" d="m5.7,15.2s.1.5-.2.9c-.2.3-.6.4-1,.3.1,0,.5.2.7.5.3.4.2.8.2.9.1-.2.3-.5.7-.8.4-.2.7-.3.9-.3-.2-.1-.5-.2-.7-.5-.4-.3-.5-.8-.6-1Z"/>
    <path class="cls-2" d="m9.4,31.1s.1.2.3.1c.2,0,.3-.1.3-.3v.4c.1.2.3.2.3.2-.1,0-.2,0-.4.1-.1.1-.2.2-.3.3v-.4c0-.2-.2-.3-.2-.4Z"/>
    <path class="cls-3" d="m48,5.5c-.1-.1-.2-.2-.3-.4.1.2.2.4.2.5s.1.1.1.2h-.3.3c0,.2-.1.2-.1.3-.1.1-.2.2-.3.4.2-.1.3-.2.4-.3,0-.1.1-.2.1-.2h0v.3-.3c.1,0,.1.1.2.1.1.1.2.2.4.4-.1-.2-.2-.3-.3-.4s-.1-.2-.1-.2h.3-.3c0-.1.1-.1.1-.2.1-.1.2-.2.3-.3-.2.1-.3.2-.4.2s-.1.1-.2.1v-.3.3h0s0-.1-.1-.2Z"/>
    <polygon class="cls-1" points="52.4 30.8 52.2 30.8 52 31 52 30.8 51.8 30.7 52 30.6 52 30.4 52.2 30.5 52.4 30.5 52.3 30.7 52.4 30.8"/>
    <path class="cls-3" d="m77.5,31.7s.1.5-.2.9c-.2.3-.6.4-1,.3.1,0,.5.2.7.5.3.4.2.8.2.9.1-.2.3-.5.7-.8.4-.2.7-.3.9-.3-.2-.1-.5-.2-.7-.5-.4-.3-.5-.8-.6-1Z"/>
    <path class="cls-2" d="m81.2,47.6s.1.2.3.1c.2,0,.3-.1.3-.3v.4c.2.2.3.2.4.2-.1,0-.2,0-.4.1-.1.1-.2.2-.3.3v-.4c-.1-.2-.3-.3-.3-.4Z"/>
    <path class="cls-4" d="m22.2,100.2s.2-.3.5-.3c.2,0,.5.1.6.3,0-.1-.1-.3-.1-.6.1-.3.3-.5.3-.5-.1,0-.4.1-.7,0-.3-.1-.4-.2-.5-.3.1.1.1.3.1.5.1.5-.1.8-.2.9Z"/>
    <path class="cls-2" d="m97.1,51.6c.2.2.2.4.1.6-.1.2-.3.3-.6.3.2-.1.5-.2.6-.1.2.1.2.5.2.6,0,0-.2-.4-.1-.6.1-.2.4-.2.6-.2-.2.1-.4.2-.6.1-.1-.2-.2-.5-.2-.7Z"/>
    <path class="cls-1" d="m10.8,86.9c.1,0,.4.1.6,0-.3-.1-.5-.2-.6-.2s-.2,0-.2-.1c.1-.1.1-.2.2-.3-.1.1-.2.2-.2.2-.1-.1-.1-.2,0-.3,0-.2,0-.4-.1-.6,0,.3-.1.5-.1.6s0,.2-.1.3h0c-.1-.1-.2-.1-.3-.2.1.1.2.2.2.2h-1c.3.1.5.1.6.1s.2,0,.3.1c0,.3-.1.4-.1.4,0,.1.2-.2.3-.2h0v.9c.1-.2.1-.4.1-.5s0-.2.1-.2c.1.1.2.2.3.2-.1-.1-.2-.2-.2-.3h0c0-.2.1-.1.2-.1Z"/>
    <path class="cls-3" d="m119.8,22c-.1-.1-.2-.2-.3-.4.1.2.2.4.2.5s.1.1.1.2h-.3.3c0,.1-.1.1-.1.2-.1.1-.2.2-.3.4.2-.1.3-.2.4-.3q.1-.1.2-.1h0v.3-.3c.1,0,.1.1.2.1.1.1.2.2.4.4-.1-.2-.2-.3-.3-.4-.1-.1-.1-.2-.1-.2h.3-.3c0-.1.1-.1.1-.2.1-.1.2-.2.3-.3-.2.1-.3.2-.4.2s-.1.1-.2.1v-.3.3h0c-.1,0-.1-.1-.2-.2Z"/>
    <path class="cls-4" d="m87.2,4.5s.2-.3.5-.3c.2,0,.5.1.6.3,0-.1-.1-.3-.1-.6.1-.3.3-.5.3-.5-.1,0-.4.1-.7,0-.3-.1-.4-.2-.5-.3.1.1.1.3.1.5,0,.6-.1.8-.2.9Z"/>
    <polygon class="cls-1" points="124.2 47.3 124 47.3 123.8 47.4 123.8 47.2 123.6 47.1 123.8 47 123.8 46.8 124 47 124.2 47 124.1 47.1 124.2 47.3"/>
    <path class="cls-2" d="m183.9,9.1c0,.2-.1.5-.3.5-.2.1-.5,0-.6-.2.2.1.5.2.5.4.1.2-.2.5-.2.5,0,0,.1-.4.4-.5.2-.1.4.1.6.2-.2,0-.4-.2-.5-.4-.2-.1-.1-.4.1-.5Z"/>
    <path class="cls-1" d="m172.3,22.4c.1,0,.4.1.6,0-.3-.1-.5-.2-.6-.2s-.2,0-.2-.1c.1-.1.1-.2.2-.3-.1.1-.2.2-.2.2-.1-.1-.1-.2,0-.3,0-.2,0-.4-.1-.6,0,.3-.1.5-.1.6s0,.2-.1.3h0c-.1-.1-.2-.1-.3-.2.1.1.2.2.2.2h-1c.3.1.5.1.6.1s.2,0,.3.1c-.1.1-.3.2-.3.3s.2-.2.3-.2h0v.9c.1-.2.1-.4.1-.5s0-.2.1-.2c.1.1.2.2.3.2-.1-.1-.2-.2-.2-.3h0c.2-.1.3,0,.4,0Z"/>
    <path class="cls-3" d="m199.4,5.2c-.1-.1-.2-.2-.3-.4.1.2.2.4.2.5s.1.1.1.2h-.3.3c0,.1-.1.1-.1.2-.1.1-.2.2-.3.4.2-.1.3-.2.4-.3q.1-.1.2-.1h0v.3-.3c.1,0,.1.1.2.1.1.1.2.2.4.4-.1-.2-.2-.3-.3-.4s-.1-.2-.1-.2h.3-.3c0-.1.1-.1.1-.2.1-.1.2-.2.3-.3-.2.1-.3.2-.4.2s-.1.1-.2.1v-.3.3h0c-.1-.1-.2-.1-.2-.2Z"/>
    <polygon class="cls-1" points="203.8 30.5 203.6 30.4 203.4 30.6 203.4 30.4 203.2 30.3 203.4 30.2 203.4 30 203.6 30.2 203.8 30.1 203.7 30.3 203.8 30.5"/>
    <path class="cls-2" d="m271.7,78.8s-.1.2.1.4c.1.1.3.2.4.1,0,0-.2.1-.3.2-.1.2-.1.3-.1.4,0-.1-.1-.2-.3-.3-.1-.1-.3-.1-.4-.1.1,0,.2-.1.3-.2.2-.2.3-.4.3-.5Z"/>
    <path class="cls-2" d="m236.7,70.8s.1.2.3.1c.2,0,.3-.1.3-.3v.4c.1.2.3.2.3.2-.1,0-.2,0-.4.1-.1.1-.2.2-.3.3v-.4c0-.2-.2-.4-.2-.4Z"/>
    <g>
      <path class="cls-2" d="m252.6,74.8c.2.2.2.4.1.6-.1.2-.3.3-.6.3.2-.1.5-.2.6-.1.2.1.2.5.2.6,0,0-.2-.4-.1-.6.1-.2.4-.2.6-.2-.2.1-.4.2-.6.1-.1-.3-.2-.5-.2-.7Z"/>
      <path class="cls-1" d="m248.2,62.4c.1,0,.4.1.6,0-.3-.1-.5-.2-.6-.2s-.2,0-.2-.1c.1-.1.1-.2.2-.3-.1.1-.2.2-.2.2-.1-.1-.1-.2,0-.3,0-.2,0-.4-.1-.6,0,.3-.1.5-.1.6s0,.2-.1.3h0c-.1-.1-.2-.1-.3-.2.1.1.2.2.2.2h-1c.3.1.5.1.6.1s.2,0,.3.1c-.1.1-.3.2-.3.3s.2-.2.3-.2h0v.9c.1-.2.1-.4.1-.5s0-.2.1-.2c.1.1.2.2.3.2-.1-.1-.2-.2-.2-.3h0c.2-.1.3,0,.4,0Z"/>
      <polygon class="cls-4" points="268.9 64.3 268.6 64.3 268.4 64.5 268.4 64.2 268.2 64.1 268.4 64 268.4 63.7 268.6 63.9 268.9 63.8 268.8 64.1 268.9 64.3"/>
    </g>
    <path class="cls-3" d="m223.5,35.4c-.1-.1-.2-.2-.3-.4.1.2.2.4.2.5s.1.1.1.2h-.3.3c0,.1-.1.1-.1.2-.1.1-.2.2-.3.4.2-.1.3-.2.4-.3q.1-.1.2-.1h0v.3-.3c.1,0,.1.1.2.1.1.1.2.2.4.4-.1-.2-.2-.3-.3-.4-.1-.1-.1-.2-.1-.2h.3-.3c0-.1.1-.1.1-.2.1-.1.2-.2.3-.3-.2.1-.3.2-.4.2s-.1.1-.2.1v-.3.3h0c-.1-.1-.1-.2-.2-.2Z"/>
    <polygon class="cls-4" points="217.1 54.5 216.8 54.4 216.7 54.6 216.6 54.4 216.4 54.2 216.6 54.1 216.7 53.9 216.8 54.1 217.1 54 217 54.3 217.1 54.5"/>
    <polygon class="cls-4" points="278.2 6.4 277.9 6.4 277.7 6.5 277.7 6.3 277.5 6.2 277.7 6.1 277.7 5.8 277.9 6 278.2 5.9 278 6.2 278.2 6.4"/>
    <path class="cls-2" d="m339.3,42.4s-.1.2.1.4c.1.1.3.2.4.1,0,0-.2.1-.3.2-.1.2-.1.3-.1.4,0-.1-.1-.2-.3-.3-.1-.1-.3-.1-.4-.1.1,0,.2-.1.3-.2.2-.2.3-.4.3-.5Z"/>
    <path class="cls-1" d="m315.9,26c.1,0,.4.1.6,0-.3-.1-.5-.2-.6-.2s-.2,0-.2-.1c.1-.1.1-.2.2-.3l-.2.2c-.1-.1-.1-.2,0-.3,0-.2,0-.4-.1-.6,0,.3-.1.5-.1.6s0,.2-.1.3h0c-.1-.1-.2-.1-.3-.2l.2.2h-1c.3.1.5.1.6.1s.2,0,.3.1c-.1.1-.3.2-.3.3s.2-.2.3-.2h0v.9c.1-.2.1-.4.1-.5s0-.2.1-.2c.1.1.2.2.3.2-.1-.1-.2-.2-.2-.3h0c.1-.1.2-.1.4,0Z"/>
    <polygon class="cls-4" points="310.2 11 310 11 309.8 11.2 309.7 10.9 309.5 10.8 309.7 10.7 309.8 10.4 310 10.6 310.2 10.6 310.1 10.8 310.2 11"/>
    <path class="cls-2" d="m251,38.7s.1.2.3.1c.2,0,.3-.1.3-.3v.4c.1.2.3.2.3.2-.1,0-.2,0-.4.1-.1.1-.2.2-.3.3v-.4c0-.2-.1-.3-.2-.4Z"/>
    <path class="cls-1" d="m262.6,30.3c.1,0,.4.1.6,0-.3-.1-.5-.2-.6-.2s-.2,0-.2-.1c.1-.1.1-.2.2-.3l-.2.2c-.1-.1-.1-.2,0-.3,0-.2,0-.4-.1-.6,0,.3-.1.5-.1.6s0,.2-.1.3h0c-.1-.1-.2-.1-.3-.2l.2.2h-1c.3.1.5.1.6.1s.2,0,.3.1c-.1.1-.3.2-.3.3s.2-.2.3-.2h0v.9c.1-.2.1-.4.1-.5s0-.2.1-.2c.1.1.2.2.3.2-.1-.1-.2-.2-.2-.3h.4Z"/>
    <path class="cls-2" d="m295.8,91.7s.1.2.3.1c.2,0,.3-.1.3-.3v.4c.1.2.3.2.3.2-.1,0-.2,0-.4.1-.1.1-.2.2-.3.3v-.4c0-.2-.1-.3-.2-.4Z"/>
    <polygon class="cls-1" points="347.3 34 347.1 34 347 34.2 346.9 34 346.7 33.9 346.9 33.8 347 33.6 347.1 33.7 347.3 33.7 347.2 33.9 347.3 34"/>
    <path class="cls-1" d="m293.7,115.2c.1,0,.4.1.6,0-.3-.1-.5-.2-.6-.2s-.2,0-.2-.1c.1-.1.1-.2.2-.3l-.2.2c-.1-.1-.1-.2,0-.3,0-.2,0-.4-.1-.6,0,.3-.1.5-.1.6s0,.2-.1.3h0c-.1-.1-.2-.1-.3-.2l.2.2h-1c.3.1.5.1.6.1s.2,0,.3.1c-.1.1-.3.2-.3.3s.2-.2.3-.2h0v.9c.1-.2.1-.4.1-.5s0-.2.1-.2c.1.1.2.2.3.2-.1-.1-.2-.2-.2-.3h.4Z"/>
    <path class="cls-1" d="m296.3,45c.1,0,.4.1.6,0-.3-.1-.5-.2-.6-.2s-.2,0-.2-.1c.1-.1.1-.2.2-.3-.1.1-.2.2-.2.2-.1-.1-.1-.2,0-.3,0-.2,0-.4-.1-.6,0,.3-.1.5-.1.6s0,.2-.1.3h0c-.1-.1-.2-.1-.3-.2.1.1.2.2.2.2h-1c.3.1.5.1.6.1s.2,0,.3.1c-.1.1-.3.2-.3.3s.2-.2.3-.2h0v.9c.1-.2.1-.4.1-.5s0-.2.1-.2c.1.1.2.2.3.2-.1-.1-.2-.2-.2-.3h0c.2-.1.3,0,.4,0Z"/>
    <path class="cls-4" d="m333.8,88.4s.2-.3.5-.3c.2,0,.5.1.6.3,0-.1-.1-.3-.1-.6.1-.3.3-.5.3-.5-.1,0-.4.1-.7,0-.3-.1-.4-.2-.5-.3.1.1.1.3.1.5.1.5-.1.8-.2.9Z"/>
    <path class="cls-4" d="m235.2,113.5s.2-.3.5-.3c.2,0,.5.1.6.3,0-.1-.1-.3-.1-.6.1-.3.3-.5.3-.5-.1,0-.4.1-.7,0s-.4-.2-.5-.3c.1.1.1.3.1.5,0,.5-.2.8-.2.9Z"/>
    <path class="cls-3" d="m320.8,98c-.1-.1-.2-.2-.3-.4.1.2.2.4.2.5s.1.1.1.2h-.3.3c0,.1-.1.1-.1.2-.1.1-.2.2-.3.4.2-.1.3-.2.4-.3q.1-.1.2-.1h0v.3-.3c.1,0,.1.1.2.1.1.1.2.2.4.4-.1-.2-.2-.3-.3-.4-.1-.1-.1-.2-.1-.2h.3-.3c0-.1.1-.1.1-.2.1-.1.2-.2.3-.3-.2.1-.3.2-.4.2s-.1.1-.2.1v-.3.3h0c-.1,0-.2-.1-.2-.2Z"/>
    <path class="cls-3" d="m347.1,122.2c-.1-.1-.2-.2-.3-.4.1.2.2.4.2.5s.1.1.1.2h-.3.3c0,.1-.1.1-.1.2-.1.1-.2.2-.3.4.2-.1.3-.2.4-.3q.1-.1.2-.1h0v.3-.3c.1,0,.1.1.2.1.1.1.2.2.4.4-.1-.2-.2-.3-.3-.4-.1-.1-.1-.2-.1-.2h.3-.3c0-.1.1-.1.1-.2.1-.1.2-.2.3-.3-.2.1-.3.2-.4.2s-.1.1-.2.1v-.3.3h0c-.2,0-.2-.1-.2-.2Z"/>
    <polygon class="cls-4" points="316.7 57.9 316.5 57.9 316.3 58.1 316.3 57.8 316 57.7 316.3 57.6 316.3 57.3 316.5 57.5 316.7 57.4 316.6 57.7 316.7 57.9"/>
    <polygon class="cls-4" points="314.3 117.1 314.1 117.1 313.9 117.3 313.8 117 313.6 116.9 313.8 116.8 313.9 116.5 314.1 116.7 314.3 116.7 314.2 116.9 314.3 117.1"/>
    <path class="cls-3" d="m157.4,80.1s.1.5-.2.9c-.2.3-.6.4-1,.3.1,0,.5.2.7.5.3.4.2.8.2.9.1-.2.3-.5.7-.8.4-.2.7-.3.9-.3-.2-.1-.5-.2-.7-.5-.5-.3-.6-.8-.6-1Z"/>
    <path class="cls-3" d="m107.2,136.4s.1.5-.2.9c-.2.3-.6.4-1,.3.1,0,.5.2.7.5.3.4.2.8.2.9.1-.2.3-.5.7-.8.4-.2.7-.3.9-.3-.2-.1-.5-.2-.7-.5-.4-.3-.6-.8-.6-1Z"/>
    <path class="cls-4" d="m216.7,82.1s.2-.3.5-.3c.2,0,.5.1.6.3,0-.1-.1-.3-.1-.6.1-.3.3-.5.3-.5-.1,0-.4.1-.7,0s-.4-.2-.5-.3c.1.1.1.3.1.5.1.5-.1.8-.2.9Z"/>
    <path class="cls-1" d="m180.5,85c.1,0,.4.1.6,0-.3-.1-.5-.2-.6-.2s-.2,0-.2-.1c.1-.1.1-.2.2-.3-.1.1-.2.2-.2.2-.1-.1-.1-.2,0-.3,0-.2,0-.4-.1-.6,0,.3-.1.5-.1.6s0,.2-.1.3h0c-.1-.1-.2-.1-.3-.2.1.1.2.2.2.2h-1c.3.1.5.1.6.1s.2,0,.3.1c-.1.1-.3.2-.3.3s.2-.2.3-.2h0v.9c.1-.2.1-.4.1-.5s0-.2.1-.2c.1.1.2.2.3.2-.1-.1-.2-.2-.2-.3h.4Z"/>
    <path class="cls-1" d="m208.1,116.5c.1,0,.4.1.6,0-.3-.1-.5-.2-.6-.2s-.2,0-.2-.1c.1-.1.1-.2.2-.3-.1.1-.2.2-.2.2-.1-.1-.1-.2,0-.3,0-.2,0-.4-.1-.6,0,.3-.1.5-.1.6s0,.2-.1.3h0c-.1-.1-.2-.1-.3-.2.1.1.2.2.2.2h-1c.3.1.5.1.6.1s.2,0,.3.1c-.1.1-.3.2-.3.3s.2-.2.3-.2h0v.9c.1-.2.1-.4.1-.5s0-.2.1-.2c.1.1.2.2.3.2-.1-.1-.2-.2-.2-.3h.4Z"/>
    <path class="cls-2" d="m223.1,142.4s-.1.2.1.4c.1.1.3.2.4.1,0,0-.2.1-.3.2-.1.2-.1.3-.1.4,0-.1-.1-.2-.3-.3-.1-.1-.3-.1-.4-.1.1,0,.2-.1.3-.2.3-.2.3-.4.3-.5Z"/>
    <path class="cls-1" d="m193.6,62c.1,0,.4.1.6,0-.3-.1-.5-.2-.6-.2s-.2,0-.2-.1c.1-.1.1-.2.2-.3-.1.1-.2.2-.2.2-.1-.1-.1-.2,0-.3,0-.2,0-.4-.1-.6,0,.3-.1.5-.1.6s0,.2-.1.3h0c-.1-.1-.2-.1-.3-.2.1.1.2.2.2.2h-1c.3.1.5.1.6.1s.2,0,.3.1c-.1.1-.3.2-.3.3s.2-.2.3-.2h0v.9c.1-.2.1-.4.1-.5s0-.2.1-.2c.1.1.2.2.3.2-.1-.1-.2-.2-.2-.3h0c.2-.1.3,0,.4,0Z"/>
    <path class="cls-1" d="m131.9,24.5c.1,0,.4.1.6,0-.3-.1-.5-.2-.6-.2s-.2,0-.2-.1c.1-.1.1-.2.2-.3-.1.1-.2.2-.2.2-.1-.1-.1-.2,0-.3,0-.2,0-.4-.1-.6,0,.3-.1.5-.1.6s0,.2-.1.3h0c-.1-.1-.2-.1-.3-.2.1.1.2.2.2.2h-1c.3.1.5.1.6.1s.2,0,.3.1c-.1.1-.3.2-.3.3s.2-.2.3-.2h0v.9c.1-.2.1-.4.1-.5s0-.2.1-.2c.1.1.2.2.3.2-.1-.1-.2-.2-.2-.3h0c.2-.1.3-.1.4,0Z"/>
    <polygon class="cls-1" points="165.5 45.8 165.3 45.8 165.1 45.9 165.1 45.7 164.9 45.6 165.1 45.6 165.1 45.4 165.3 45.5 165.5 45.5 165.4 45.6 165.5 45.8"/>
    <polygon class="cls-4" points="128.5 64.8 128.2 64.7 128.1 64.9 128 64.6 127.8 64.5 128 64.4 128.1 64.1 128.2 64.3 128.5 64.3 128.4 64.5 128.5 64.8"/>
    <path class="cls-2" d="m68.1,94s-.1.2.1.4c.1.1.3.2.4.1,0,0-.2.1-.3.2-.1.2-.1.3-.1.4,0-.1-.1-.2-.3-.3-.1-.1-.3-.1-.4-.1.1,0,.2-.1.3-.2.2-.3.2-.5.3-.5Z"/>
    <polygon class="cls-4" points="39 62.6 38.7 62.6 38.5 62.8 38.5 62.5 38.3 62.4 38.5 62.3 38.5 62 38.7 62.2 39 62.2 38.9 62.4 39 62.6"/>
    <polygon class="cls-4" points="65.2 79.5 65 79.4 64.8 79.6 64.8 79.3 64.5 79.2 64.8 79.1 64.8 78.8 65 79 65.2 79 65.1 79.2 65.2 79.5"/>
    <path class="cls-2" d="m139.3,128.1s-.1.2.1.4c.1.1.3.2.4.1,0,0-.2.1-.3.2-.1.2-.1.3-.1.4,0-.1-.1-.2-.3-.3-.1-.1-.3-.1-.4-.1.1,0,.2-.1.3-.2.2-.2.3-.4.3-.5Z"/>
    <path class="cls-2" d="m127.4,98.4c0,.2-.1.5-.3.5-.2.1-.5,0-.6-.2.2.1.5.2.5.4.1.2-.2.5-.2.5,0,0,.1-.4.4-.5.2-.1.4.1.6.2-.2,0-.4-.2-.5-.4-.2-.1-.1-.3.1-.5Z"/>
    <path class="cls-2" d="m96.2,78.3s.1.2.3.1c.2,0,.3-.1.3-.3v.4c.1.2.3.2.3.2-.1,0-.2,0-.4.1l-.3.3v-.4c0-.3-.2-.4-.2-.4Z"/>
    <polygon class="cls-4" points="110.2 96.8 110 96.8 109.8 96.9 109.7 96.7 109.5 96.6 109.7 96.5 109.8 96.2 110 96.4 110.2 96.3 110.1 96.6 110.2 96.8"/>
    <path class="cls-1" d="m83.7,115.5c.1,0,.4.1.6,0-.3-.1-.5-.2-.6-.2s-.2,0-.2-.1c.1-.1.1-.2.2-.3l-.2.2c-.1-.1-.1-.2,0-.3,0-.2,0-.4-.1-.6,0,.3-.1.5-.1.6s0,.2-.1.3h0c-.1-.1-.2-.1-.3-.2l.2.2h-1c.3.1.5.1.6.1s.2,0,.3.1c-.1.1-.3.2-.3.3s.2-.2.3-.2h0v.9c.1-.2.1-.4.1-.5s0-.2.1-.2c.1.1.2.2.3.2-.1-.1-.2-.2-.2-.3h.4Z"/>
    <polygon class="cls-1" points="16.8 54.5 16.6 54.4 16.4 54.6 16.4 54.4 16.2 54.3 16.4 54.2 16.4 54 16.6 54.1 16.8 54.1 16.7 54.3 16.8 54.5"/>
    <path class="cls-2" d="m77.5,127c0,.2-.1.5-.3.5-.2.1-.5,0-.6-.2.2.1.5.2.5.4.1.2-.2.5-.2.5,0,0,.1-.4.4-.5.2-.1.4.1.6.2-.2,0-.4-.2-.5-.4-.2-.1-.1-.4.1-.5Z"/>
    <path class="cls-2" d="m41.1,144.6s-.1.2.1.4c.1.1.3.2.4.1,0,0-.2.1-.3.2-.1.2-.1.3-.1.4,0-.1-.1-.2-.3-.3-.1-.1-.3-.1-.4-.1.1,0,.2-.1.3-.2.2-.2.3-.4.3-.5Z"/>
    <polygon class="cls-4" points="38.3 130.1 38 130.1 37.8 130.3 37.8 130 37.6 129.9 37.8 129.8 37.8 129.5 38 129.7 38.3 129.6 38.2 129.9 38.3 130.1"/>
  </g>
</svg>