<?xml version="1.0" encoding="UTF-8"?>
<svg id="Stars" xmlns="http://www.w3.org/2000/svg" viewBox="0 0 360 258.1">
  <defs>
    <style>
      .cls-1 {
        fill: #ffffdb;
      }

      .cls-1, .cls-2, .cls-3, .cls-4 {
        stroke-width: 0px;
      }

      .cls-2 {
        fill: #fff;
      }

      .cls-3 {
        fill: #e8f6fc;
      }

      .cls-4 {
        fill: #ffe3ff;
      }
    </style>
  </defs>
  <g id="Group_3_-_Fastest" data-name="Group 3 - Fastest">
    <path class="cls-4" d="m57.2,19.8s.2-.3.5-.3c.2,0,.5.1.6.3,0-.1-.1-.3-.1-.6.1-.3.3-.5.3-.5-.1,0-.4.1-.7,0s-.4-.2-.5-.3c.1.1.1.3.1.5,0,.6-.1.8-.2.9Z"/>
    <path class="cls-2" d="m32.5,9.4c0,.2-.1.5-.3.5-.2.1-.5,0-.6-.2.2.2.4.3.4.5.1.2-.2.5-.2.5,0,0,.1-.4.4-.5.2-.1.4.1.6.2-.2,0-.4-.2-.5-.4s0-.4.2-.6Z"/>
    <path class="cls-2" d="m25.3,35.1c.2.2.2.4.1.6-.1.2-.3.3-.6.3.2-.1.5-.2.6-.1.2.1.2.5.2.6,0,0-.2-.4-.1-.6.1-.2.4-.2.6-.2-.2.1-.4.2-.6.1-.1-.2-.2-.4-.2-.7Z"/>
    <polygon class="cls-4" points="15.3 7.8 15 7.8 14.9 8 14.8 7.7 14.6 7.6 14.8 7.5 14.9 7.2 15 7.4 15.3 7.4 15.2 7.6 15.3 7.8"/>
    <path class="cls-4" d="m60,48.1s.2-.3.5-.3c.2,0,.5.1.6.3,0-.1-.1-.3-.1-.6.1-.3.3-.5.3-.5-.1,0-.4.1-.7,0s-.4-.2-.5-.3c.1.1.1.3.1.5,0,.5-.1.8-.2.9Z"/>
    <path class="cls-2" d="m104.3,25.9c0,.2-.1.5-.3.5-.2.1-.5,0-.6-.2.2.1.5.2.5.4.1.2-.2.5-.2.5,0,0,.1-.4.4-.5.2-.1.4.1.6.2-.2,0-.4-.2-.5-.4-.2-.1-.1-.3.1-.5Z"/>
    <path class="cls-1" d="m92.7,39.2c.1,0,.4.1.6,0-.3-.1-.5-.2-.6-.2s-.2,0-.2-.1c.1-.1.1-.2.2-.3-.1.1-.2.2-.2.2-.1-.1-.1-.2,0-.3,0-.2,0-.4-.1-.6,0,.3-.1.5-.1.6s0,.2-.1.3h0c-.1-.1-.2-.1-.3-.2.1.1.2.2.2.2h-1c.3.1.5.1.6.1s.2,0,.3.1c-.1.1-.3.2-.3.3s.2-.2.3-.2h0v.9c.1-.2.1-.4.1-.5s0-.2.1-.2c.1.1.2.2.3.2-.1-.1-.2-.2-.2-.3h0c.2,0,.3,0,.4,0Z"/>
    <polygon class="cls-4" points="117.1 9 116.9 9 116.7 9.1 116.6 8.9 116.4 8.8 116.6 8.7 116.7 8.4 116.9 8.6 117.1 8.5 117 8.8 117.1 9"/>
    <polygon class="cls-4" points="113.4 41.1 113.1 41.1 112.9 41.3 112.9 41 112.7 40.9 112.9 40.8 112.9 40.5 113.1 40.7 113.4 40.7 113.3 40.9 113.4 41.1"/>
    <path class="cls-3" d="m157.1,14.9s.1.5-.2.9c-.2.3-.6.4-1,.3.1,0,.5.2.7.5.3.4.2.8.2.9.1-.2.3-.5.7-.8.4-.2.7-.3.9-.3-.2-.1-.5-.2-.7-.5-.4-.3-.6-.8-.6-1Z"/>
    <path class="cls-2" d="m195.8,38.8s-.1.2.1.4c.1.1.3.2.4.1,0,0-.2.1-.3.2-.1.2-.1.3-.1.4,0-.1-.1-.2-.3-.3-.1-.1-.3-.1-.4-.1.1,0,.2-.1.3-.2.2-.2.2-.4.3-.5Z"/>
    <path class="cls-2" d="m176.7,34.8c.2.2.2.4.1.6-.1.2-.3.3-.6.3.2-.1.5-.2.6-.1.2.1.2.5.2.6,0,0-.2-.4-.1-.6.1-.2.4-.2.6-.2-.2.1-.4.2-.6.1-.1-.3-.3-.5-.2-.7Z"/>
    <polygon class="cls-4" points="192.9 24.3 192.7 24.3 192.5 24.4 192.5 24.2 192.2 24.1 192.5 24 192.5 23.7 192.7 23.9 192.9 23.8 192.8 24.1 192.9 24.3"/>
    <path class="cls-2" d="m259.8,49.1c0,.2-.1.5-.3.5-.2.1-.5,0-.6-.2.2.1.5.2.5.4.1.2-.2.5-.2.5,0,0,.1-.4.4-.5.2-.1.4.1.6.2-.2,0-.4-.2-.5-.4-.2-.1-.1-.4.1-.5Z"/>
    <path class="cls-3" d="m275.3,45.2c-.1-.1-.2-.2-.3-.4.1.2.2.4.2.5s.1.1.1.2h-.3.3c0,.1-.1.1-.1.2-.1.1-.2.2-.3.4.2-.1.3-.2.4-.3s.1-.1.2-.1h0v.3-.3c.1,0,.1.1.2.1.1.1.2.2.4.4-.1-.2-.2-.3-.3-.4-.1-.1-.1-.2-.1-.2h.3-.3c0-.1.1-.1.1-.2.1-.1.2-.2.3-.3-.2.1-.3.2-.4.2s-.1.1-.2.1v-.3.3h0q-.1-.1-.2-.2Z"/>
    <path class="cls-2" d="m208,39.3c0,.2-.1.5-.3.5-.2.1-.5,0-.6-.2.2.1.5.2.5.4.1.2-.2.5-.2.5,0,0,.1-.4.4-.5.2-.1.4.1.6.2-.2,0-.4-.2-.5-.4-.1-.2-.1-.4.1-.5Z"/>
    <polygon class="cls-1" points="289 12.6 288.8 12.5 288.6 12.7 288.6 12.5 288.4 12.4 288.6 12.3 288.6 12.1 288.8 12.3 289 12.2 288.9 12.4 289 12.6"/>
    <path class="cls-2" d="m327.4,12.6c0,.2-.1.5-.3.5-.2.1-.5,0-.6-.2.2.1.5.2.5.4.1.2-.2.5-.2.5,0,0,.1-.4.4-.5.2-.1.4.1.6.2-.2,0-.4-.2-.5-.4-.2-.1-.1-.3.1-.5Z"/>
    <path class="cls-2" d="m320.2,38.3c.2.2.2.4.1.6-.1.2-.3.3-.6.3.2-.1.5-.2.6-.1.2.1.2.5.2.6,0,0-.2-.4-.1-.6.1-.2.4-.2.6-.2-.2.1-.4.2-.6.1-.1-.2-.2-.4-.2-.7Z"/>
    <path class="cls-3" d="m247.4,22.8s.1.5-.2.9c-.2.3-.6.4-1,.3.1,0,.5.2.7.5.3.4.2.8.2.9.1-.2.3-.5.7-.8.4-.2.7-.3.9-.3-.2-.1-.5-.2-.7-.5-.5-.3-.6-.8-.6-1Z"/>
    <polygon class="cls-4" points="256.9 15.4 256.7 15.4 256.5 15.6 256.4 15.3 256.2 15.2 256.4 15.1 256.5 14.8 256.7 15 256.9 15 256.8 15.2 256.9 15.4"/>
    <path class="cls-3" d="m292.2,75.8s.1.5-.2.9c-.2.3-.6.4-1,.3.1,0,.5.2.7.5.3.4.2.8.2.9.1-.2.3-.5.7-.8.4-.2.7-.3.9-.3-.2-.1-.5-.2-.7-.5-.5-.3-.6-.8-.6-1Z"/>
    <path class="cls-1" d="m307.4,83.3c.1,0,.4.1.6,0-.3-.1-.5-.2-.6-.2s-.2,0-.2-.1c.1-.1.1-.2.2-.3l-.2.2c-.1-.1-.1-.2,0-.3,0-.2,0-.4-.1-.6,0,.3-.1.5-.1.6s0,.2-.1.3h0c-.1-.1-.2-.1-.3-.2l.2.2h-1c.3.1.5.1.6.1s.2,0,.3.1c-.1.1-.3.2-.3.3s.2-.2.3-.2h0v.9c.1-.2.1-.4.1-.5s0-.2.1-.2c.1.1.2.2.3.2-.1-.1-.2-.2-.2-.3h.4Z"/>
    <polygon class="cls-4" points="301.7 68.4 301.5 68.4 301.3 68.6 301.2 68.3 301 68.2 301.2 68.1 301.3 67.8 301.5 68 301.7 67.9 301.6 68.2 301.7 68.4"/>
    <path class="cls-3" d="m278.5,107.7s.1.5-.2.9c-.2.3-.6.4-1,.3.1,0,.5.2.7.5.3.4.2.8.2.9.1-.2.3-.5.7-.8.4-.2.7-.3.9-.3-.2-.1-.5-.2-.7-.5-.5-.3-.6-.8-.6-1Z"/>
    <path class="cls-4" d="m329.9,112.3s.2-.3.5-.3c.2,0,.5.1.6.3,0-.1-.1-.3-.1-.6.1-.3.3-.5.3-.5-.1,0-.4.1-.7,0-.3-.1-.4-.2-.5-.3.1.1.1.3.1.5.1.5-.1.8-.2.9Z"/>
    <path class="cls-2" d="m298,127.6c.2.2.2.4.1.6s-.3.3-.6.3c.2-.1.5-.2.6-.1.2.1.2.5.2.6,0,0-.2-.4-.1-.6.1-.2.4-.2.6-.2-.2.1-.4.2-.6.1-.1-.3-.2-.5-.2-.7Z"/>
    <path class="cls-1" d="m346.6,142.2c.1,0,.4.1.6,0-.3-.1-.5-.2-.6-.2s-.2,0-.2-.1c.1-.1.1-.2.2-.3-.1.1-.2.2-.2.2-.1-.1-.1-.2,0-.3,0-.2,0-.4-.1-.6,0,.3-.1.5-.1.6s0,.2-.1.3h0c-.1-.1-.2-.1-.3-.2.1.1.2.2.2.2h-1c.3.1.5.1.6.1s.2,0,.3.1c-.1.1-.3.2-.3.3s.2-.2.3-.2h0v.9c.1-.2.1-.4.1-.5s0-.2.1-.2c.1.1.2.2.3.2-.1-.1-.2-.2-.2-.3h0c.2-.1.3,0,.4,0Z"/>
    <path class="cls-1" d="m345.6,73.9c.1,0,.4.1.6,0-.3-.1-.5-.2-.6-.2s-.2,0-.2-.1c.1-.1.1-.2.2-.3l-.2.2c-.1-.1-.1-.2,0-.3,0-.2,0-.4-.1-.6,0,.3-.1.5-.1.6s0,.2-.1.3h0c-.1-.1-.2-.1-.3-.2l.2.2h-1c.3.1.5.1.6.1s.2,0,.3.1c-.1.1-.3.2-.3.3s.2-.2.3-.2h0v.9c.1-.2.1-.4.1-.5s0-.2.1-.2c.1.1.2.2.3.2-.1-.1-.2-.2-.2-.3h0c.2-.1.3,0,.4,0Z"/>
    <path class="cls-1" d="m247,99c.1,0,.4.1.6,0-.3-.1-.5-.2-.6-.2s-.2,0-.2-.1c.1-.1.1-.2.2-.3-.1.1-.2.2-.2.2-.1-.1-.1-.2,0-.3,0-.2,0-.4-.1-.6,0,.3-.1.5-.1.6s0,.2-.1.3h0c-.1-.1-.2-.1-.3-.2.1.1.2.2.2.2h-1c.3.1.5.1.6.1s.2,0,.3.1c-.1.1-.3.2-.3.3s.2-.2.3-.2h0v.9c.1-.2.1-.4.1-.5s0-.2.1-.2c.1.1.2.2.3.2-.1-.1-.2-.2-.2-.3h.4Z"/>
    <path class="cls-2" d="m203.9,101.4s-.1.2.1.4c.1.1.3.2.4.1,0,0-.2.1-.3.2-.1.2-.1.3-.1.4,0-.1-.1-.2-.3-.3-.1-.1-.3-.1-.4-.1.1,0,.2-.1.3-.2.2-.2.3-.4.3-.5Z"/>
    <path class="cls-2" d="m192,71.7c0,.2-.1.5-.3.5-.2.1-.5,0-.6-.2.2.1.5.2.5.4.1.2-.2.5-.2.5,0,0,.1-.4.4-.5.2-.1.4.1.6.2-.2,0-.4-.2-.5-.4-.1-.1-.1-.3.1-.5Z"/>
    <path class="cls-3" d="m252.7,119.9s.1.5-.2.9c-.2.3-.6.4-1,.3.1,0,.5.2.7.5.3.4.2.8.2.9.1-.2.3-.5.7-.8.4-.2.7-.3.9-.3-.2-.1-.5-.2-.7-.5-.5-.3-.6-.8-.6-1Z"/>
    <path class="cls-2" d="m264.2,133.2s.1.2.3.1c.2,0,.3-.1.3-.3v.4c.1.2.3.2.3.2-.1,0-.2,0-.4.1-.1.1-.2.2-.3.3v-.4c0-.2-.1-.4-.2-.4Z"/>
    <path class="cls-2" d="m188.1,134.4s.1.2.3.1c.2,0,.3-.1.3-.3v.4c.1.2.3.2.3.2-.1,0-.2,0-.4.1l-.3.3v-.4c0-.2-.1-.4-.2-.4Z"/>
    <polygon class="cls-4" points="220.3 127.9 220.1 127.9 219.9 128.1 219.8 127.8 219.6 127.7 219.8 127.6 219.9 127.3 220.1 127.5 220.3 127.5 220.2 127.7 220.3 127.9"/>
    <path class="cls-4" d="m168.2,145.7s.2-.3.5-.3c.2,0,.5.1.6.3,0-.1-.1-.3-.1-.6.1-.3.3-.5.3-.5-.1,0-.4.1-.7,0s-.4-.2-.5-.3c.1.1.1.3.1.5,0,.5-.2.8-.2.9Z"/>
    <polygon class="cls-4" points="174.8 70.1 174.6 70.1 174.4 70.2 174.4 70 174.1 69.9 174.4 69.7 174.4 69.5 174.6 69.7 174.8 69.6 174.7 69.9 174.8 70.1"/>
    <path class="cls-2" d="m143.4,11.1c0,.2-.1.5-.3.5-.2.1-.5,0-.6-.2.2.1.5.2.5.4.1.2-.2.5-.2.5,0,0,.1-.4.4-.5.2-.1.4.1.6.2-.2,0-.4-.2-.5-.4-.2-.1-.1-.3.1-.5Z"/>
    <polygon class="cls-4" points="152.5 26.4 152.2 26.3 152.1 26.5 152 26.3 151.8 26.1 152 26 152.1 25.8 152.2 26 152.5 25.9 152.4 26.1 152.5 26.4"/>
    <polygon class="cls-1" points="211.9 93.1 211.7 93.1 211.6 93.2 211.5 93 211.4 92.9 211.5 92.8 211.6 92.6 211.7 92.8 211.9 92.8 211.8 92.9 211.9 93.1"/>
    <path class="cls-2" d="m157.5,54.2s-.1.2.1.4c.1.1.3.2.4.1,0,0-.2.1-.3.2-.1.2-.1.3-.1.4,0-.1-.1-.2-.3-.3-.1-.1-.3-.1-.4-.1.1,0,.2-.1.3-.2.2-.3.3-.5.3-.5Z"/>
    <path class="cls-2" d="m131.3,79.3s-.1.2.1.4c.1.1.3.2.4.1,0,0-.2.1-.3.2-.1.2-.1.3-.1.4,0-.1-.1-.2-.3-.3-.1-.1-.3-.1-.4-.1.1,0,.2-.1.3-.2.3-.3.3-.5.3-.5Z"/>
    <path class="cls-3" d="m29.4,70s.1.5-.2.9c-.2.3-.6.4-1,.3.1,0,.5.2.7.5.3.4.2.8.2.9.1-.2.3-.5.7-.8.4-.2.7-.3.9-.3-.2-.1-.5-.2-.7-.5-.4-.3-.6-.8-.6-1Z"/>
    <path class="cls-4" d="m80.9,74.6s.2-.3.5-.3c.2,0,.5.1.6.3,0-.1-.1-.3-.1-.6.1-.3.3-.5.3-.5-.1,0-.4.1-.7,0-.3-.1-.4-.2-.5-.3.1.1.1.3.1.5,0,.6-.2.8-.2.9Z"/>
    <path class="cls-1" d="m44.6,77.5c.1,0,.4.1.6,0-.3-.1-.5-.2-.6-.2s-.2,0-.2-.1c.1-.1.1-.2.2-.3-.1.1-.2.2-.2.2-.1-.1-.1-.2,0-.3,0-.2,0-.4-.1-.6,0,.3-.1.5-.1.6s0,.2-.1.3h0c-.1-.1-.2-.1-.3-.2.1.1.2.2.2.2h-1c.3.1.5.1.6.1s.2,0,.3.1c-.1.1-.3.2-.3.3s.2-.2.3-.2h0v.9c.1-.2.1-.4.1-.5s0-.2.1-.2c.1.1.2.2.3.2-.1-.1-.2-.2-.2-.3h.4Z"/>
    <path class="cls-1" d="m69,9.3c.1,0,.4.1.6,0-.3-.1-.5-.2-.6-.2s-.2,0-.2-.1c.1-.1.1-.2.2-.3-.2.2-.2.3-.3.3-.1-.1-.1-.2,0-.3,0-.2,0-.4-.1-.6,0,.3-.1.5-.1.6s0,.2-.1.3h0c-.1-.1-.2-.1-.3-.2.1.1.2.2.2.2h-1c.3.1.5.1.6.1s.2,0,.3.1c-.1.1-.3.2-.3.3s.2-.2.3-.2h0v.9c.1-.2.1-.4.1-.5s0-.2.1-.2c.1.1.2.2.3.2-.1-.1-.2-.2-.2-.3h0c.3-.1.4-.1.5-.1Z"/>
    <polygon class="cls-1" points="76 85.6 75.8 85.6 75.7 85.7 75.7 85.5 75.5 85.5 75.7 85.4 75.7 85.2 75.9 85.3 76 85.3 76 85.5 76 85.6"/>
    <path class="cls-2" d="m104.3,120.1s.1.2.3.1c.2,0,.3-.1.3-.3v.4c.1.2.3.2.3.2-.1,0-.2,0-.4.1l-.3.3v-.4c0-.2-.1-.3-.2-.4Z"/>
    <path class="cls-4" d="m152.1,108.8s.2-.3.5-.3c.2,0,.5.1.6.3,0-.1-.1-.3-.1-.6.1-.3.3-.5.3-.5-.1,0-.4.1-.7,0s-.4-.2-.5-.3c.1.1.1.3.1.5,0,.5-.1.8-.2.9Z"/>
    <path class="cls-1" d="m115.9,111.7c.1,0,.4.1.6,0-.3-.1-.5-.2-.6-.2s-.2,0-.2-.1c.1-.1.1-.2.2-.3l-.2.2c-.1-.1-.1-.2,0-.3,0-.2,0-.4-.1-.6,0,.3-.1.5-.1.6s0,.2-.1.3h0c-.1-.1-.2-.1-.3-.2l.2.2h-1c.3.1.5.1.6.1s.2,0,.3.1c-.1.1-.3.2-.3.3s.2-.2.3-.2h0v.9c.1-.2.1-.4.1-.5s0-.2.1-.2c.1.1.2.2.3.2-.1-.1-.2-.2-.2-.3h.4Z"/>
    <path class="cls-2" d="m112.1,82.3c.2.2.2.4.1.6s-.3.3-.6.3c.2-.1.5-.2.6-.1.2.1.2.5.2.6,0,0-.2-.4-.1-.6s.4-.2.6-.2c-.2.1-.4.2-.6.1-.1-.3-.2-.5-.2-.7Z"/>
    <path class="cls-1" d="m107.7,69.9c.1,0,.4.1.6,0-.3-.1-.5-.2-.6-.2s-.2,0-.2-.1c.1-.1.1-.2.2-.3l-.2.2c-.1-.1-.1-.2,0-.3,0-.2,0-.4-.1-.6,0,.3-.1.5-.1.6s0,.2-.1.3h0c-.1-.1-.2-.1-.3-.2l.2.2h-1c.3.1.5.1.6.1s.2,0,.3.1c-.1.1-.3.2-.3.3s.2-.2.3-.2h0v.9c.1-.2.1-.4.1-.5s0-.2.1-.2c.1.1.2.2.3.2-.1-.1-.2-.2-.2-.3h0c.2-.1.3,0,.4,0Z"/>
    <path class="cls-3" d="m68.4,108s.1.5-.2.9c-.2.3-.6.4-1,.3.1,0,.5.2.7.5.3.4.2.8.2.9.1-.2.3-.5.7-.8.4-.2.7-.3.9-.3-.2-.1-.5-.2-.7-.5-.4-.3-.5-.8-.6-1Z"/>
    <polygon class="cls-4" points="78 100.6 77.8 100.6 77.6 100.7 77.5 100.5 77.3 100.4 77.5 100.2 77.6 100 77.8 100.2 78 100.1 77.9 100.4 78 100.6"/>
    <polygon class="cls-4" points="6 48.3 5.7 48.2 5.5 48.4 5.5 48.2 5.3 48.1 5.5 47.9 5.5 47.7 5.7 47.9 6 47.8 5.9 48.1 6 48.3"/>
    <polygon class="cls-4" points="136.5 113.6 136.2 113.6 136 113.8 136 113.5 135.8 113.4 136 113.3 136 113 136.2 113.2 136.5 113.2 136.4 113.4 136.5 113.6"/>
    <polygon class="cls-4" points="86.6 142.2 86.3 142.2 86.1 142.3 86.1 142.1 85.9 142 86.1 141.9 86.1 141.6 86.3 141.8 86.6 141.7 86.5 142 86.6 142.2"/>
    <path class="cls-4" d="m53.9,125.3s.2-.3.5-.3c.2,0,.5.1.6.3,0-.1-.1-.3-.1-.6.1-.3.3-.5.3-.5-.1,0-.4.1-.7,0s-.4-.2-.5-.3c.1.1.1.3.1.5,0,.5-.1.8-.2.9Z"/>
    <path class="cls-2" d="m29.2,114.9c0,.2-.1.5-.3.5-.2.1-.5,0-.6-.2.2.1.5.2.5.4.1.2-.2.5-.2.5,0,0,.1-.4.4-.5.2-.1.4.1.6.2-.2,0-.4-.2-.5-.4-.2-.1-.1-.4.1-.5Z"/>
    <path class="cls-2" d="m22,140.6c.2.2.2.4.1.6-.1.2-.3.3-.6.3.2-.1.5-.2.6-.1.2.1.2.5.2.6,0,0-.2-.4-.1-.6.1-.2.4-.2.6-.2-.2.1-.4.2-.6.1-.1-.3-.2-.5-.2-.7Z"/>
    <polygon class="cls-4" points="12 113.3 11.7 113.2 11.6 113.4 11.5 113.2 11.3 113 11.5 112.9 11.6 112.7 11.7 112.9 12 112.8 11.9 113 12 113.3"/>
  </g>
</svg>